<svg width="663" height="443" viewBox="0 0 663 443" fill="none" xmlns="http://www.w3.org/2000/svg">
<g clip-path="url(#clip0_130_1901)">
<rect width="663" height="443" fill="black"/>
<rect x="68.3599" y="-0.730722" width="42.4628" height="25.9095" stroke="#1B1B1B" stroke-width="0.719708"/>
<rect x="110.823" y="-0.730966" width="42.4628" height="25.9095" stroke="#1B1B1B" stroke-width="0.719708"/>
<rect x="153.286" y="-0.730966" width="42.4628" height="25.9095" stroke="#1B1B1B" stroke-width="0.719708"/>
<rect x="195.748" y="-0.730966" width="42.4628" height="25.9095" stroke="#1B1B1B" stroke-width="0.719708"/>
<rect x="238.211" y="-0.730966" width="42.4628" height="25.9095" stroke="#1B1B1B" stroke-width="0.719708"/>
<rect x="280.674" y="-0.730966" width="42.4628" height="25.9095" stroke="#1B1B1B" stroke-width="0.719708"/>
<rect x="323.136" y="-0.730966" width="42.4628" height="25.9095" stroke="#1B1B1B" stroke-width="0.719708"/>
<rect x="365.599" y="-0.730966" width="42.4628" height="25.9095" stroke="#1B1B1B" stroke-width="0.719708"/>
<rect x="408.062" y="-0.730966" width="42.4628" height="25.9095" stroke="#1B1B1B" stroke-width="0.719708"/>
<rect x="450.525" y="-0.730966" width="42.4628" height="25.9095" stroke="#1B1B1B" stroke-width="0.719708"/>
<rect x="492.988" y="-0.730966" width="42.4628" height="25.9095" stroke="#1B1B1B" stroke-width="0.719708"/>
<rect x="535.45" y="-0.730966" width="42.4628" height="25.9095" stroke="#1B1B1B" stroke-width="0.719708"/>
<rect x="577.913" y="-0.730966" width="42.4628" height="25.9095" stroke="#1B1B1B" stroke-width="0.719708"/>
<rect x="620.376" y="-0.730966" width="42.4628" height="25.9095" stroke="#1B1B1B" stroke-width="0.719708"/>
<rect x="662.839" y="-0.730966" width="42.4628" height="25.9095" stroke="#1B1B1B" stroke-width="0.719708"/>
<rect x="68.3599" y="25.1789" width="42.4628" height="25.9095" stroke="#1B1B1B" stroke-width="0.719708"/>
<rect x="110.823" y="25.1792" width="42.4628" height="25.9095" stroke="#1B1B1B" stroke-width="0.719708"/>
<rect x="153.286" y="25.1792" width="42.4628" height="25.9095" stroke="#1B1B1B" stroke-width="0.719708"/>
<rect x="195.748" y="25.1792" width="42.4628" height="25.9095" stroke="#1B1B1B" stroke-width="0.719708"/>
<rect x="238.211" y="25.1792" width="42.4628" height="25.9095" stroke="#1B1B1B" stroke-width="0.719708"/>
<rect x="280.674" y="25.1792" width="42.4628" height="25.9095" stroke="#1B1B1B" stroke-width="0.719708"/>
<rect x="323.136" y="25.1792" width="42.4628" height="25.9095" stroke="#1B1B1B" stroke-width="0.719708"/>
<rect x="365.599" y="25.1792" width="42.4628" height="25.9095" stroke="#1B1B1B" stroke-width="0.719708"/>
<rect x="408.062" y="25.1792" width="42.4628" height="25.9095" stroke="#1B1B1B" stroke-width="0.719708"/>
<rect x="450.525" y="25.1792" width="42.4628" height="25.9095" stroke="#1B1B1B" stroke-width="0.719708"/>
<rect x="492.988" y="25.1792" width="42.4628" height="25.9095" stroke="#1B1B1B" stroke-width="0.719708"/>
<rect x="535.45" y="25.1792" width="42.4628" height="25.9095" stroke="#1B1B1B" stroke-width="0.719708"/>
<rect x="577.913" y="25.1792" width="42.4628" height="25.9095" stroke="#1B1B1B" stroke-width="0.719708"/>
<rect x="620.376" y="25.1792" width="42.4628" height="25.9095" stroke="#1B1B1B" stroke-width="0.719708"/>
<rect x="662.839" y="25.1792" width="42.4628" height="25.9095" stroke="#1B1B1B" stroke-width="0.719708"/>
<rect x="68.3599" y="51.0884" width="42.4628" height="25.9095" stroke="#1B1B1B" stroke-width="0.719708"/>
<rect x="110.823" y="51.0884" width="42.4628" height="25.9095" stroke="#1B1B1B" stroke-width="0.719708"/>
<rect x="153.286" y="51.0884" width="42.4628" height="25.9095" stroke="#1B1B1B" stroke-width="0.719708"/>
<rect x="195.748" y="51.0884" width="42.4628" height="25.9095" stroke="#1B1B1B" stroke-width="0.719708"/>
<rect x="238.211" y="51.0884" width="42.4628" height="25.9095" stroke="#1B1B1B" stroke-width="0.719708"/>
<rect x="280.674" y="51.0884" width="42.4628" height="25.9095" stroke="#1B1B1B" stroke-width="0.719708"/>
<rect x="323.136" y="51.0884" width="42.4628" height="25.9095" stroke="#1B1B1B" stroke-width="0.719708"/>
<rect x="365.599" y="51.0884" width="42.4628" height="25.9095" stroke="#1B1B1B" stroke-width="0.719708"/>
<rect x="408.062" y="51.0884" width="42.4628" height="25.9095" stroke="#1B1B1B" stroke-width="0.719708"/>
<rect x="450.525" y="51.0884" width="42.4628" height="25.9095" stroke="#1B1B1B" stroke-width="0.719708"/>
<rect x="492.988" y="51.0884" width="42.4628" height="25.9095" stroke="#1B1B1B" stroke-width="0.719708"/>
<rect x="535.45" y="51.0884" width="42.4628" height="25.9095" stroke="#1B1B1B" stroke-width="0.719708"/>
<rect x="577.913" y="51.0884" width="42.4628" height="25.9095" stroke="#1B1B1B" stroke-width="0.719708"/>
<rect x="620.376" y="51.0884" width="42.4628" height="25.9095" stroke="#1B1B1B" stroke-width="0.719708"/>
<rect x="662.839" y="51.0884" width="42.4628" height="25.9095" stroke="#1B1B1B" stroke-width="0.719708"/>
<rect x="68.3599" y="76.9978" width="42.4628" height="25.9095" stroke="#1B1B1B" stroke-width="0.719708"/>
<rect x="110.823" y="76.9975" width="42.4628" height="25.9095" stroke="#1B1B1B" stroke-width="0.719708"/>
<rect x="153.286" y="76.9975" width="42.4628" height="25.9095" stroke="#1B1B1B" stroke-width="0.719708"/>
<rect x="195.748" y="76.9975" width="42.4628" height="25.9095" stroke="#1B1B1B" stroke-width="0.719708"/>
<rect x="238.211" y="76.9975" width="42.4628" height="25.9095" stroke="#1B1B1B" stroke-width="0.719708"/>
<rect x="280.674" y="76.9975" width="42.4628" height="25.9095" stroke="#1B1B1B" stroke-width="0.719708"/>
<rect x="323.136" y="76.9975" width="42.4628" height="25.9095" stroke="#1B1B1B" stroke-width="0.719708"/>
<rect x="365.599" y="76.9975" width="42.4628" height="25.9095" stroke="#1B1B1B" stroke-width="0.719708"/>
<rect x="408.062" y="76.9975" width="42.4628" height="25.9095" stroke="#1B1B1B" stroke-width="0.719708"/>
<rect x="450.525" y="76.9975" width="42.4628" height="25.9095" stroke="#1B1B1B" stroke-width="0.719708"/>
<rect x="492.988" y="76.9975" width="42.4628" height="25.9095" stroke="#1B1B1B" stroke-width="0.719708"/>
<rect x="535.45" y="76.9975" width="42.4628" height="25.9095" stroke="#1B1B1B" stroke-width="0.719708"/>
<rect x="577.913" y="76.9975" width="42.4628" height="25.9095" stroke="#1B1B1B" stroke-width="0.719708"/>
<rect x="620.376" y="76.9975" width="42.4628" height="25.9095" stroke="#1B1B1B" stroke-width="0.719708"/>
<rect x="662.839" y="76.9975" width="42.4628" height="25.9095" stroke="#1B1B1B" stroke-width="0.719708"/>
<rect x="68.3599" y="102.907" width="42.4628" height="25.9095" stroke="#1B1B1B" stroke-width="0.719708"/>
<rect x="110.823" y="102.907" width="42.4628" height="25.9095" stroke="#1B1B1B" stroke-width="0.719708"/>
<rect x="153.286" y="102.907" width="42.4628" height="25.9095" stroke="#1B1B1B" stroke-width="0.719708"/>
<rect x="195.748" y="102.907" width="42.4628" height="25.9095" stroke="#1B1B1B" stroke-width="0.719708"/>
<rect x="238.211" y="102.907" width="42.4628" height="25.9095" stroke="#1B1B1B" stroke-width="0.719708"/>
<rect x="280.674" y="102.907" width="42.4628" height="25.9095" stroke="#1B1B1B" stroke-width="0.719708"/>
<rect x="323.136" y="102.907" width="42.4628" height="25.9095" stroke="#1B1B1B" stroke-width="0.719708"/>
<rect x="365.599" y="102.907" width="42.4628" height="25.9095" stroke="#1B1B1B" stroke-width="0.719708"/>
<rect x="408.062" y="102.907" width="42.4628" height="25.9095" stroke="#1B1B1B" stroke-width="0.719708"/>
<rect x="450.525" y="102.907" width="42.4628" height="25.9095" stroke="#1B1B1B" stroke-width="0.719708"/>
<rect x="492.988" y="102.907" width="42.4628" height="25.9095" stroke="#1B1B1B" stroke-width="0.719708"/>
<rect x="535.45" y="102.907" width="42.4628" height="25.9095" stroke="#1B1B1B" stroke-width="0.719708"/>
<rect x="577.913" y="102.907" width="42.4628" height="25.9095" stroke="#1B1B1B" stroke-width="0.719708"/>
<rect x="620.376" y="102.907" width="42.4628" height="25.9095" stroke="#1B1B1B" stroke-width="0.719708"/>
<rect x="662.839" y="102.907" width="42.4628" height="25.9095" stroke="#1B1B1B" stroke-width="0.719708"/>
<rect x="68.3599" y="128.817" width="42.4628" height="25.9095" stroke="#1B1B1B" stroke-width="0.719708"/>
<rect x="110.823" y="128.817" width="42.4628" height="25.9095" stroke="#1B1B1B" stroke-width="0.719708"/>
<rect x="153.286" y="128.817" width="42.4628" height="25.9095" stroke="#1B1B1B" stroke-width="0.719708"/>
<rect x="195.748" y="128.817" width="42.4628" height="25.9095" stroke="#1B1B1B" stroke-width="0.719708"/>
<rect x="238.211" y="128.817" width="42.4628" height="25.9095" stroke="#1B1B1B" stroke-width="0.719708"/>
<rect x="280.674" y="128.817" width="42.4628" height="25.9095" stroke="#1B1B1B" stroke-width="0.719708"/>
<rect x="323.136" y="128.817" width="42.4628" height="25.9095" stroke="#1B1B1B" stroke-width="0.719708"/>
<rect x="365.599" y="128.817" width="42.4628" height="25.9095" stroke="#1B1B1B" stroke-width="0.719708"/>
<rect x="408.062" y="128.817" width="42.4628" height="25.9095" stroke="#1B1B1B" stroke-width="0.719708"/>
<rect x="450.525" y="128.817" width="42.4628" height="25.9095" stroke="#1B1B1B" stroke-width="0.719708"/>
<rect x="492.988" y="128.817" width="42.4628" height="25.9095" stroke="#1B1B1B" stroke-width="0.719708"/>
<rect x="535.45" y="128.817" width="42.4628" height="25.9095" stroke="#1B1B1B" stroke-width="0.719708"/>
<rect x="577.913" y="128.817" width="42.4628" height="25.9095" stroke="#1B1B1B" stroke-width="0.719708"/>
<rect x="620.376" y="128.817" width="42.4628" height="25.9095" stroke="#1B1B1B" stroke-width="0.719708"/>
<rect x="662.839" y="128.817" width="42.4628" height="25.9095" stroke="#1B1B1B" stroke-width="0.719708"/>
<rect x="68.3599" y="154.726" width="42.4628" height="25.9095" stroke="#1B1B1B" stroke-width="0.719708"/>
<rect x="110.823" y="154.727" width="42.4628" height="25.9095" stroke="#1B1B1B" stroke-width="0.719708"/>
<rect x="153.286" y="154.727" width="42.4628" height="25.9095" stroke="#1B1B1B" stroke-width="0.719708"/>
<rect x="195.748" y="154.727" width="42.4628" height="25.9095" stroke="#1B1B1B" stroke-width="0.719708"/>
<rect x="238.211" y="154.727" width="42.4628" height="25.9095" stroke="#1B1B1B" stroke-width="0.719708"/>
<rect x="280.674" y="154.727" width="42.4628" height="25.9095" stroke="#1B1B1B" stroke-width="0.719708"/>
<rect x="323.136" y="154.727" width="42.4628" height="25.9095" stroke="#1B1B1B" stroke-width="0.719708"/>
<rect x="365.599" y="154.727" width="42.4628" height="25.9095" stroke="#1B1B1B" stroke-width="0.719708"/>
<rect x="408.062" y="154.727" width="42.4628" height="25.9095" stroke="#1B1B1B" stroke-width="0.719708"/>
<rect x="450.525" y="154.727" width="42.4628" height="25.9095" stroke="#1B1B1B" stroke-width="0.719708"/>
<rect x="492.988" y="154.727" width="42.4628" height="25.9095" stroke="#1B1B1B" stroke-width="0.719708"/>
<rect x="535.45" y="154.727" width="42.4628" height="25.9095" stroke="#1B1B1B" stroke-width="0.719708"/>
<rect x="577.913" y="154.727" width="42.4628" height="25.9095" stroke="#1B1B1B" stroke-width="0.719708"/>
<rect x="620.376" y="154.727" width="42.4628" height="25.9095" stroke="#1B1B1B" stroke-width="0.719708"/>
<rect x="662.839" y="154.727" width="42.4628" height="25.9095" stroke="#1B1B1B" stroke-width="0.719708"/>
<rect x="68.3599" y="180.636" width="42.4628" height="25.9095" stroke="#1B1B1B" stroke-width="0.719708"/>
<rect x="110.823" y="180.636" width="42.4628" height="25.9095" stroke="#1B1B1B" stroke-width="0.719708"/>
<rect x="153.286" y="180.636" width="42.4628" height="25.9095" stroke="#1B1B1B" stroke-width="0.719708"/>
<rect x="195.748" y="180.636" width="42.4628" height="25.9095" stroke="#1B1B1B" stroke-width="0.719708"/>
<rect x="238.211" y="180.636" width="42.4628" height="25.9095" stroke="#1B1B1B" stroke-width="0.719708"/>
<rect x="280.674" y="180.636" width="42.4628" height="25.9095" stroke="#1B1B1B" stroke-width="0.719708"/>
<rect x="323.136" y="180.636" width="42.4628" height="25.9095" stroke="#1B1B1B" stroke-width="0.719708"/>
<rect x="365.599" y="180.636" width="42.4628" height="25.9095" stroke="#1B1B1B" stroke-width="0.719708"/>
<rect x="408.062" y="180.636" width="42.4628" height="25.9095" stroke="#1B1B1B" stroke-width="0.719708"/>
<rect x="450.525" y="180.636" width="42.4628" height="25.9095" stroke="#1B1B1B" stroke-width="0.719708"/>
<rect x="492.988" y="180.636" width="42.4628" height="25.9095" stroke="#1B1B1B" stroke-width="0.719708"/>
<rect x="535.45" y="180.636" width="42.4628" height="25.9095" stroke="#1B1B1B" stroke-width="0.719708"/>
<rect x="577.913" y="180.636" width="42.4628" height="25.9095" stroke="#1B1B1B" stroke-width="0.719708"/>
<rect x="620.376" y="180.636" width="42.4628" height="25.9095" stroke="#1B1B1B" stroke-width="0.719708"/>
<rect x="662.839" y="180.636" width="42.4628" height="25.9095" stroke="#1B1B1B" stroke-width="0.719708"/>
<rect x="68.3599" y="206.545" width="42.4628" height="25.9095" stroke="#1B1B1B" stroke-width="0.719708"/>
<rect x="110.823" y="206.545" width="42.4628" height="25.9095" stroke="#1B1B1B" stroke-width="0.719708"/>
<rect x="153.286" y="206.545" width="42.4628" height="25.9095" stroke="#1B1B1B" stroke-width="0.719708"/>
<rect x="195.748" y="206.545" width="42.4628" height="25.9095" stroke="#1B1B1B" stroke-width="0.719708"/>
<rect x="238.211" y="206.545" width="42.4628" height="25.9095" stroke="#1B1B1B" stroke-width="0.719708"/>
<rect x="280.674" y="206.545" width="42.4628" height="25.9095" stroke="#1B1B1B" stroke-width="0.719708"/>
<rect x="323.136" y="206.545" width="42.4628" height="25.9095" stroke="#1B1B1B" stroke-width="0.719708"/>
<rect x="365.599" y="206.545" width="42.4628" height="25.9095" stroke="#1B1B1B" stroke-width="0.719708"/>
<rect x="408.062" y="206.545" width="42.4628" height="25.9095" stroke="#1B1B1B" stroke-width="0.719708"/>
<rect x="450.525" y="206.545" width="42.4628" height="25.9095" stroke="#1B1B1B" stroke-width="0.719708"/>
<rect x="492.988" y="206.545" width="42.4628" height="25.9095" stroke="#1B1B1B" stroke-width="0.719708"/>
<rect x="535.45" y="206.545" width="42.4628" height="25.9095" stroke="#1B1B1B" stroke-width="0.719708"/>
<rect x="577.913" y="206.545" width="42.4628" height="25.9095" stroke="#1B1B1B" stroke-width="0.719708"/>
<rect x="620.376" y="206.545" width="42.4628" height="25.9095" stroke="#1B1B1B" stroke-width="0.719708"/>
<rect x="662.839" y="206.545" width="42.4628" height="25.9095" stroke="#1B1B1B" stroke-width="0.719708"/>
<rect x="68.3599" y="232.455" width="42.4628" height="25.9095" stroke="#1B1B1B" stroke-width="0.719708"/>
<rect x="110.823" y="232.455" width="42.4628" height="25.9095" stroke="#1B1B1B" stroke-width="0.719708"/>
<rect x="153.285" y="232.455" width="42.4628" height="25.9095" stroke="#1B1B1B" stroke-width="0.719708"/>
<rect x="195.748" y="232.455" width="42.4628" height="25.9095" stroke="#1B1B1B" stroke-width="0.719708"/>
<rect x="238.211" y="232.455" width="42.4628" height="25.9095" stroke="#1B1B1B" stroke-width="0.719708"/>
<rect x="280.674" y="232.455" width="42.4628" height="25.9095" stroke="#1B1B1B" stroke-width="0.719708"/>
<rect x="323.136" y="232.455" width="42.4628" height="25.9095" stroke="#1B1B1B" stroke-width="0.719708"/>
<rect x="365.599" y="232.455" width="42.4628" height="25.9095" stroke="#1B1B1B" stroke-width="0.719708"/>
<rect x="408.062" y="232.455" width="42.4628" height="25.9095" stroke="#1B1B1B" stroke-width="0.719708"/>
<rect x="450.525" y="232.455" width="42.4628" height="25.9095" stroke="#1B1B1B" stroke-width="0.719708"/>
<rect x="492.988" y="232.455" width="42.4628" height="25.9095" stroke="#1B1B1B" stroke-width="0.719708"/>
<rect x="535.45" y="232.455" width="42.4628" height="25.9095" stroke="#1B1B1B" stroke-width="0.719708"/>
<rect x="577.913" y="232.455" width="42.4628" height="25.9095" stroke="#1B1B1B" stroke-width="0.719708"/>
<rect x="620.376" y="232.455" width="42.4628" height="25.9095" stroke="#1B1B1B" stroke-width="0.719708"/>
<rect x="662.839" y="232.455" width="42.4628" height="25.9095" stroke="#1B1B1B" stroke-width="0.719708"/>
<rect x="68.3599" y="258.364" width="42.4628" height="25.9095" stroke="#1B1B1B" stroke-width="0.719708"/>
<rect x="110.823" y="258.364" width="42.4628" height="25.9095" stroke="#1B1B1B" stroke-width="0.719708"/>
<rect x="153.286" y="258.364" width="42.4628" height="25.9095" stroke="#1B1B1B" stroke-width="0.719708"/>
<rect x="195.748" y="258.364" width="42.4628" height="25.9095" stroke="#1B1B1B" stroke-width="0.719708"/>
<rect x="238.211" y="258.364" width="42.4628" height="25.9095" stroke="#1B1B1B" stroke-width="0.719708"/>
<rect x="280.674" y="258.364" width="42.4628" height="25.9095" stroke="#1B1B1B" stroke-width="0.719708"/>
<rect x="323.136" y="258.364" width="42.4628" height="25.9095" stroke="#1B1B1B" stroke-width="0.719708"/>
<rect x="365.599" y="258.364" width="42.4628" height="25.9095" stroke="#1B1B1B" stroke-width="0.719708"/>
<rect x="408.062" y="258.364" width="42.4628" height="25.9095" stroke="#1B1B1B" stroke-width="0.719708"/>
<rect x="450.525" y="258.364" width="42.4628" height="25.9095" stroke="#1B1B1B" stroke-width="0.719708"/>
<rect x="492.988" y="258.364" width="42.4628" height="25.9095" stroke="#1B1B1B" stroke-width="0.719708"/>
<rect x="535.45" y="258.364" width="42.4628" height="25.9095" stroke="#1B1B1B" stroke-width="0.719708"/>
<rect x="577.913" y="258.364" width="42.4628" height="25.9095" stroke="#1B1B1B" stroke-width="0.719708"/>
<rect x="620.376" y="258.364" width="42.4628" height="25.9095" stroke="#1B1B1B" stroke-width="0.719708"/>
<rect x="662.839" y="258.364" width="42.4628" height="25.9095" stroke="#1B1B1B" stroke-width="0.719708"/>
<rect x="68.3599" y="284.274" width="42.4628" height="25.9095" stroke="#1B1B1B" stroke-width="0.719708"/>
<rect x="110.823" y="284.274" width="42.4628" height="25.9095" stroke="#1B1B1B" stroke-width="0.719708"/>
<rect x="153.286" y="284.274" width="42.4628" height="25.9095" stroke="#1B1B1B" stroke-width="0.719708"/>
<rect x="195.748" y="284.274" width="42.4628" height="25.9095" stroke="#1B1B1B" stroke-width="0.719708"/>
<rect x="238.211" y="284.274" width="42.4628" height="25.9095" stroke="#1B1B1B" stroke-width="0.719708"/>
<rect x="280.674" y="284.274" width="42.4628" height="25.9095" stroke="#1B1B1B" stroke-width="0.719708"/>
<rect x="323.136" y="284.274" width="42.4628" height="25.9095" stroke="#1B1B1B" stroke-width="0.719708"/>
<rect x="365.599" y="284.274" width="42.4628" height="25.9095" stroke="#1B1B1B" stroke-width="0.719708"/>
<rect x="408.062" y="284.274" width="42.4628" height="25.9095" stroke="#1B1B1B" stroke-width="0.719708"/>
<rect x="450.525" y="284.274" width="42.4628" height="25.9095" stroke="#1B1B1B" stroke-width="0.719708"/>
<rect x="492.988" y="284.274" width="42.4628" height="25.9095" stroke="#1B1B1B" stroke-width="0.719708"/>
<rect x="535.45" y="284.274" width="42.4628" height="25.9095" stroke="#1B1B1B" stroke-width="0.719708"/>
<rect x="577.913" y="284.274" width="42.4628" height="25.9095" stroke="#1B1B1B" stroke-width="0.719708"/>
<rect x="620.376" y="284.274" width="42.4628" height="25.9095" stroke="#1B1B1B" stroke-width="0.719708"/>
<rect x="662.839" y="284.274" width="42.4628" height="25.9095" stroke="#1B1B1B" stroke-width="0.719708"/>
<rect x="68.3599" y="310.183" width="42.4628" height="25.9095" stroke="#1B1B1B" stroke-width="0.719708"/>
<rect x="110.823" y="310.183" width="42.4628" height="25.9095" stroke="#1B1B1B" stroke-width="0.719708"/>
<rect x="153.286" y="310.183" width="42.4628" height="25.9095" stroke="#1B1B1B" stroke-width="0.719708"/>
<rect x="195.748" y="310.183" width="42.4628" height="25.9095" stroke="#1B1B1B" stroke-width="0.719708"/>
<rect x="238.211" y="310.183" width="42.4628" height="25.9095" stroke="#1B1B1B" stroke-width="0.719708"/>
<rect x="280.674" y="310.183" width="42.4628" height="25.9095" stroke="#1B1B1B" stroke-width="0.719708"/>
<rect x="323.136" y="310.183" width="42.4628" height="25.9095" stroke="#1B1B1B" stroke-width="0.719708"/>
<rect x="365.599" y="310.183" width="42.4628" height="25.9095" stroke="#1B1B1B" stroke-width="0.719708"/>
<rect x="408.062" y="310.183" width="42.4628" height="25.9095" stroke="#1B1B1B" stroke-width="0.719708"/>
<rect x="450.525" y="310.183" width="42.4628" height="25.9095" stroke="#1B1B1B" stroke-width="0.719708"/>
<rect x="492.988" y="310.183" width="42.4628" height="25.9095" stroke="#1B1B1B" stroke-width="0.719708"/>
<rect x="535.45" y="310.183" width="42.4628" height="25.9095" stroke="#1B1B1B" stroke-width="0.719708"/>
<rect x="577.913" y="310.183" width="42.4628" height="25.9095" stroke="#1B1B1B" stroke-width="0.719708"/>
<rect x="620.376" y="310.183" width="42.4628" height="25.9095" stroke="#1B1B1B" stroke-width="0.719708"/>
<rect x="662.839" y="310.183" width="42.4628" height="25.9095" stroke="#1B1B1B" stroke-width="0.719708"/>
<rect x="68.3599" y="336.093" width="42.4628" height="25.9095" stroke="#1B1B1B" stroke-width="0.719708"/>
<rect x="110.823" y="336.093" width="42.4628" height="25.9095" stroke="#1B1B1B" stroke-width="0.719708"/>
<rect x="153.286" y="336.093" width="42.4628" height="25.9095" stroke="#1B1B1B" stroke-width="0.719708"/>
<rect x="195.748" y="336.093" width="42.4628" height="25.9095" stroke="#1B1B1B" stroke-width="0.719708"/>
<rect x="238.211" y="336.093" width="42.4628" height="25.9095" stroke="#1B1B1B" stroke-width="0.719708"/>
<rect x="280.674" y="336.093" width="42.4628" height="25.9095" stroke="#1B1B1B" stroke-width="0.719708"/>
<rect x="323.136" y="336.093" width="42.4628" height="25.9095" stroke="#1B1B1B" stroke-width="0.719708"/>
<rect x="365.599" y="336.093" width="42.4628" height="25.9095" stroke="#1B1B1B" stroke-width="0.719708"/>
<rect x="408.062" y="336.093" width="42.4628" height="25.9095" stroke="#1B1B1B" stroke-width="0.719708"/>
<rect x="450.525" y="336.093" width="42.4628" height="25.9095" stroke="#1B1B1B" stroke-width="0.719708"/>
<rect x="492.988" y="336.093" width="42.4628" height="25.9095" stroke="#1B1B1B" stroke-width="0.719708"/>
<rect x="535.45" y="336.093" width="42.4628" height="25.9095" stroke="#1B1B1B" stroke-width="0.719708"/>
<rect x="577.913" y="336.093" width="42.4628" height="25.9095" stroke="#1B1B1B" stroke-width="0.719708"/>
<rect x="620.376" y="336.093" width="42.4628" height="25.9095" stroke="#1B1B1B" stroke-width="0.719708"/>
<rect x="662.839" y="336.093" width="42.4628" height="25.9095" stroke="#1B1B1B" stroke-width="0.719708"/>
<rect x="68.3599" y="362.002" width="42.4628" height="25.9095" stroke="#1B1B1B" stroke-width="0.719708"/>
<rect x="110.823" y="362.002" width="42.4628" height="25.9095" stroke="#1B1B1B" stroke-width="0.719708"/>
<rect x="153.285" y="362.002" width="42.4628" height="25.9095" stroke="#1B1B1B" stroke-width="0.719708"/>
<rect x="195.748" y="362.002" width="42.4628" height="25.9095" stroke="#1B1B1B" stroke-width="0.719708"/>
<rect x="238.211" y="362.002" width="42.4628" height="25.9095" stroke="#1B1B1B" stroke-width="0.719708"/>
<rect x="280.674" y="362.002" width="42.4628" height="25.9095" stroke="#1B1B1B" stroke-width="0.719708"/>
<rect x="323.136" y="362.002" width="42.4628" height="25.9095" stroke="#1B1B1B" stroke-width="0.719708"/>
<rect x="365.599" y="362.002" width="42.4628" height="25.9095" stroke="#1B1B1B" stroke-width="0.719708"/>
<rect x="408.062" y="362.002" width="42.4628" height="25.9095" stroke="#1B1B1B" stroke-width="0.719708"/>
<rect x="450.525" y="362.002" width="42.4628" height="25.9095" stroke="#1B1B1B" stroke-width="0.719708"/>
<rect x="492.988" y="362.002" width="42.4628" height="25.9095" stroke="#1B1B1B" stroke-width="0.719708"/>
<rect x="535.45" y="362.002" width="42.4628" height="25.9095" stroke="#1B1B1B" stroke-width="0.719708"/>
<rect x="577.913" y="362.002" width="42.4628" height="25.9095" stroke="#1B1B1B" stroke-width="0.719708"/>
<rect x="620.376" y="362.002" width="42.4628" height="25.9095" stroke="#1B1B1B" stroke-width="0.719708"/>
<rect x="662.839" y="362.002" width="42.4628" height="25.9095" stroke="#1B1B1B" stroke-width="0.719708"/>
<rect x="68.3599" y="387.912" width="42.4628" height="25.9095" stroke="#1B1B1B" stroke-width="0.719708"/>
<rect x="110.823" y="387.912" width="42.4628" height="25.9095" stroke="#1B1B1B" stroke-width="0.719708"/>
<rect x="153.286" y="387.912" width="42.4628" height="25.9095" stroke="#1B1B1B" stroke-width="0.719708"/>
<rect x="195.748" y="387.912" width="42.4628" height="25.9095" stroke="#1B1B1B" stroke-width="0.719708"/>
<rect x="238.211" y="387.912" width="42.4628" height="25.9095" stroke="#1B1B1B" stroke-width="0.719708"/>
<rect x="280.674" y="387.912" width="42.4628" height="25.9095" stroke="#1B1B1B" stroke-width="0.719708"/>
<rect x="323.136" y="387.912" width="42.4628" height="25.9095" stroke="#1B1B1B" stroke-width="0.719708"/>
<rect x="365.599" y="387.912" width="42.4628" height="25.9095" stroke="#1B1B1B" stroke-width="0.719708"/>
<rect x="408.062" y="387.912" width="42.4628" height="25.9095" stroke="#1B1B1B" stroke-width="0.719708"/>
<rect x="450.525" y="387.912" width="42.4628" height="25.9095" stroke="#1B1B1B" stroke-width="0.719708"/>
<rect x="492.988" y="387.912" width="42.4628" height="25.9095" stroke="#1B1B1B" stroke-width="0.719708"/>
<rect x="535.45" y="387.912" width="42.4628" height="25.9095" stroke="#1B1B1B" stroke-width="0.719708"/>
<rect x="577.913" y="387.912" width="42.4628" height="25.9095" stroke="#1B1B1B" stroke-width="0.719708"/>
<rect x="620.376" y="387.912" width="42.4628" height="25.9095" stroke="#1B1B1B" stroke-width="0.719708"/>
<rect x="662.839" y="387.912" width="42.4628" height="25.9095" stroke="#1B1B1B" stroke-width="0.719708"/>
<rect x="68.3599" y="413.821" width="42.4628" height="25.9095" stroke="#1B1B1B" stroke-width="0.719708"/>
<rect x="110.823" y="413.821" width="42.4628" height="25.9095" stroke="#1B1B1B" stroke-width="0.719708"/>
<rect x="153.286" y="413.821" width="42.4628" height="25.9095" stroke="#1B1B1B" stroke-width="0.719708"/>
<rect x="195.748" y="413.821" width="42.4628" height="25.9095" stroke="#1B1B1B" stroke-width="0.719708"/>
<rect x="238.211" y="413.821" width="42.4628" height="25.9095" stroke="#1B1B1B" stroke-width="0.719708"/>
<rect x="280.674" y="413.821" width="42.4628" height="25.9095" stroke="#1B1B1B" stroke-width="0.719708"/>
<rect x="323.136" y="413.821" width="42.4628" height="25.9095" stroke="#1B1B1B" stroke-width="0.719708"/>
<rect x="365.599" y="413.821" width="42.4628" height="25.9095" stroke="#1B1B1B" stroke-width="0.719708"/>
<rect x="408.062" y="413.821" width="42.4628" height="25.9095" stroke="#1B1B1B" stroke-width="0.719708"/>
<rect x="450.525" y="413.821" width="42.4628" height="25.9095" stroke="#1B1B1B" stroke-width="0.719708"/>
<rect x="492.988" y="413.821" width="42.4628" height="25.9095" stroke="#1B1B1B" stroke-width="0.719708"/>
<rect x="535.45" y="413.821" width="42.4628" height="25.9095" stroke="#1B1B1B" stroke-width="0.719708"/>
<rect x="577.913" y="413.821" width="42.4628" height="25.9095" stroke="#1B1B1B" stroke-width="0.719708"/>
<rect x="620.376" y="413.821" width="42.4628" height="25.9095" stroke="#1B1B1B" stroke-width="0.719708"/>
<rect x="662.839" y="413.821" width="42.4628" height="25.9095" stroke="#1B1B1B" stroke-width="0.719708"/>
<rect x="68.3599" y="439.73" width="42.4628" height="25.9095" stroke="#1B1B1B" stroke-width="0.719708"/>
<rect x="110.823" y="439.73" width="42.4628" height="25.9095" stroke="#1B1B1B" stroke-width="0.719708"/>
<rect x="153.285" y="439.73" width="42.4628" height="25.9095" stroke="#1B1B1B" stroke-width="0.719708"/>
<rect x="195.748" y="439.73" width="42.4628" height="25.9095" stroke="#1B1B1B" stroke-width="0.719708"/>
<rect x="238.211" y="439.73" width="42.4628" height="25.9095" stroke="#1B1B1B" stroke-width="0.719708"/>
<rect x="280.674" y="439.73" width="42.4628" height="25.9095" stroke="#1B1B1B" stroke-width="0.719708"/>
<rect x="323.136" y="439.73" width="42.4628" height="25.9095" stroke="#1B1B1B" stroke-width="0.719708"/>
<rect x="365.599" y="439.73" width="42.4628" height="25.9095" stroke="#1B1B1B" stroke-width="0.719708"/>
<rect x="408.062" y="439.73" width="42.4628" height="25.9095" stroke="#1B1B1B" stroke-width="0.719708"/>
<rect x="450.525" y="439.73" width="42.4628" height="25.9095" stroke="#1B1B1B" stroke-width="0.719708"/>
<rect x="492.988" y="439.73" width="42.4628" height="25.9095" stroke="#1B1B1B" stroke-width="0.719708"/>
<rect x="535.45" y="439.73" width="42.4628" height="25.9095" stroke="#1B1B1B" stroke-width="0.719708"/>
<rect x="577.913" y="439.73" width="42.4628" height="25.9095" stroke="#1B1B1B" stroke-width="0.719708"/>
<rect x="620.376" y="439.73" width="42.4628" height="25.9095" stroke="#1B1B1B" stroke-width="0.719708"/>
<rect x="662.839" y="439.73" width="42.4628" height="25.9095" stroke="#1B1B1B" stroke-width="0.719708"/>
<path d="M383.28 354.783C264.207 460.53 88.1278 522.475 14.9724 540.23L-29.4578 555.619C-30.096 555.84 -30.5146 556.452 -30.4888 557.127L-27.4169 637.371C-27.375 638.466 -26.2329 639.165 -25.2391 638.705L130.319 566.657C358.062 469.481 503.721 320.539 550.334 255.416C551.108 254.335 552.76 254.748 553.079 256.04C557.925 275.623 564.106 288.229 567.708 293.832C568.34 294.813 569.759 294.614 570.203 293.535C594.078 235.507 590.236 197.981 584.298 183.5C582.765 179.762 580.909 180.333 577 180.42C534.054 181.374 473.477 209.8 469.199 214.728C465.811 218.632 497.368 219.449 516.16 219.376C517.425 219.371 518.166 220.781 517.396 221.784C490.61 256.706 417.323 324.57 383.28 354.783Z" fill="white"/>
<g filter="url(#filter0_f_130_1901)">
<circle cx="152" cy="173" r="287" fill="black"/>
</g>
<g filter="url(#filter1_i_130_1901)">
<circle cx="356.5" cy="296.5" r="71.5" fill="#F3F3F3"/>
</g>
<g filter="url(#filter2_i_130_1901)">
<circle cx="356.501" cy="296.5" r="62.4" fill="#F3F3F3"/>
</g>
<path d="M352.46 288.12L329.866 308.221C328.414 309.579 329.375 312.013 331.363 312.013L345.495 312.013C345.789 312.013 346.071 311.894 346.277 311.683L380.119 277.005C381.511 275.664 383.831 276.651 383.831 278.584V309.821C383.831 311.031 382.85 312.013 381.64 312.013L357.526 312.013C356.922 312.013 356.433 311.524 356.433 310.92V303.793V289.12C356.433 287.202 353.86 286.81 352.46 288.12Z" stroke="black" stroke-width="3.35069" stroke-linecap="round"/>
</g>
<defs>
<filter id="filter0_f_130_1901" x="-235" y="-214" width="774" height="774" filterUnits="userSpaceOnUse" color-interpolation-filters="sRGB">
<feFlood flood-opacity="0" result="BackgroundImageFix"/>
<feBlend mode="normal" in="SourceGraphic" in2="BackgroundImageFix" result="shape"/>
<feGaussianBlur stdDeviation="50" result="effect1_foregroundBlur_130_1901"/>
</filter>
<filter id="filter1_i_130_1901" x="285" y="225" width="143" height="143" filterUnits="userSpaceOnUse" color-interpolation-filters="sRGB">
<feFlood flood-opacity="0" result="BackgroundImageFix"/>
<feBlend mode="normal" in="SourceGraphic" in2="BackgroundImageFix" result="shape"/>
<feColorMatrix in="SourceAlpha" type="matrix" values="0 0 0 0 0 0 0 0 0 0 0 0 0 0 0 0 0 0 127 0" result="hardAlpha"/>
<feOffset/>
<feGaussianBlur stdDeviation="7.80005"/>
<feComposite in2="hardAlpha" operator="arithmetic" k2="-1" k3="1"/>
<feColorMatrix type="matrix" values="0 0 0 0 0.335824 0 0 0 0 0.335824 0 0 0 0 0.335824 0 0 0 0.68 0"/>
<feBlend mode="normal" in2="shape" result="effect1_innerShadow_130_1901"/>
</filter>
<filter id="filter2_i_130_1901" x="294.101" y="234.1" width="124.8" height="124.8" filterUnits="userSpaceOnUse" color-interpolation-filters="sRGB">
<feFlood flood-opacity="0" result="BackgroundImageFix"/>
<feBlend mode="normal" in="SourceGraphic" in2="BackgroundImageFix" result="shape"/>
<feColorMatrix in="SourceAlpha" type="matrix" values="0 0 0 0 0 0 0 0 0 0 0 0 0 0 0 0 0 0 127 0" result="hardAlpha"/>
<feOffset/>
<feGaussianBlur stdDeviation="7.80005"/>
<feComposite in2="hardAlpha" operator="arithmetic" k2="-1" k3="1"/>
<feColorMatrix type="matrix" values="0 0 0 0 0.335824 0 0 0 0 0.335824 0 0 0 0 0.335824 0 0 0 0.68 0"/>
<feBlend mode="normal" in2="shape" result="effect1_innerShadow_130_1901"/>
</filter>
<clipPath id="clip0_130_1901">
<rect width="663" height="443" fill="white"/>
</clipPath>
</defs>
</svg>
