<svg width="663" height="443" viewBox="0 0 663 443" fill="none" xmlns="http://www.w3.org/2000/svg">
<g clip-path="url(#clip0_3_3602)">
<rect width="663" height="443" fill="black"/>
<g filter="url(#filter0_f_3_3602)">
<ellipse cx="633.189" cy="394.781" rx="159.567" ry="319" transform="rotate(-58.1795 633.189 394.781)" fill="#171717"/>
</g>
<g filter="url(#filter1_f_3_3602)">
<ellipse cx="633.189" cy="394.781" rx="159.567" ry="319" transform="rotate(-58.1795 633.189 394.781)" fill="url(#paint0_linear_3_3602)"/>
</g>
<circle cx="592" cy="189" r="1" fill="#3D3D3D"/>
<circle cx="620" cy="301" r="1" fill="#3D3D3D"/>
<circle cx="588" cy="342" r="1" fill="#3D3D3D"/>
<circle cx="536" cy="251" r="1" fill="#3D3D3D"/>
<circle cx="536" cy="303" r="1" fill="#3D3D3D"/>
<circle cx="536" cy="355" r="1" fill="#3D3D3D"/>
<circle cx="452" cy="201" r="1" fill="#3D3D3D"/>
<circle cx="602" cy="159" r="1" fill="#3D3D3D"/>
<circle cx="529" cy="113" r="1" fill="#3D3D3D"/>
<path d="M658 116.5H560.038C549.118 116.5 539.575 123.871 536.817 134.437L518 206.5" stroke="url(#paint1_linear_3_3602)" stroke-linecap="round"/>
<path d="M500.049 289.012L514.505 226.34C515.225 223.219 511.236 221.266 509.213 223.749L428.016 323.415C426.426 325.367 427.776 328.293 430.293 328.35L468.122 329.202C470.04 329.245 471.434 331.041 471 332.911L456.538 395.182C455.814 398.299 459.794 400.259 461.823 397.784L543.945 297.66C545.565 295.686 544.16 292.717 541.606 292.717H502.997C501.051 292.717 499.612 290.908 500.049 289.012Z" fill="#080808" stroke="#111111" stroke-width="1.27723"/>
<path d="M494.94 281.349L509.397 218.676C510.116 215.555 506.127 213.603 504.104 216.086L422.907 315.752C421.317 317.703 422.667 320.63 425.184 320.687L463.013 321.539C464.931 321.582 466.325 323.378 465.891 325.247L451.429 387.518C450.705 390.635 454.685 392.595 456.714 390.121L538.836 289.997C540.456 288.023 539.051 285.054 536.498 285.054H497.888C495.943 285.054 494.503 283.244 494.94 281.349Z" fill="#242424"/>
<g filter="url(#filter2_i_3_3602)">
<path d="M490.441 276.406L503.799 218.654C504.52 215.534 500.534 213.579 498.509 216.058L422.92 308.589C421.326 310.54 422.676 313.471 425.195 313.527L460.148 314.313C462.068 314.356 463.462 316.153 463.026 318.023L449.663 375.407C448.937 378.523 452.914 380.485 454.946 378.015L531.395 285.059C533.018 283.086 531.614 280.113 529.059 280.113H493.388C491.442 280.113 490.002 278.302 490.441 276.406Z" fill="#BCBCBC"/>
</g>
<path d="M34 309.5H331.298C336.92 309.5 342.364 311.474 346.68 315.077L446 398" stroke="url(#paint2_linear_3_3602)" stroke-linecap="round"/>
<path d="M420 376.5L446 398" stroke="url(#paint3_linear_3_3602)" stroke-linecap="round"/>
<path d="M526.5 174L518 206.5" stroke="url(#paint4_linear_3_3602)" stroke-linecap="round"/>
</g>
<defs>
<filter id="filter0_f_3_3602" x="249.301" y="78.7339" width="767.777" height="632.094" filterUnits="userSpaceOnUse" color-interpolationFilters="sRGB">
<feFlood flood-opacity="0" result="BackgroundImageFix"/>
<feBlend mode="normal" in="SourceGraphic" in2="BackgroundImageFix" result="shape"/>
<feGaussianBlur stdDeviation="50" result="effect1_foregroundBlur_3_3602"/>
</filter>
<filter id="filter1_f_3_3602" x="249.301" y="78.7339" width="767.777" height="632.094" filterUnits="userSpaceOnUse" color-interpolationFilters="sRGB">
<feFlood flood-opacity="0" result="BackgroundImageFix"/>
<feBlend mode="normal" in="SourceGraphic" in2="BackgroundImageFix" result="shape"/>
<feGaussianBlur stdDeviation="50" result="effect1_foregroundBlur_3_3602"/>
</filter>
<filter id="filter2_i_3_3602" x="422.233" y="214.933" width="109.857" height="168.199" filterUnits="userSpaceOnUse" color-interpolationFilters="sRGB">
<feFlood flood-opacity="0" result="BackgroundImageFix"/>
<feBlend mode="normal" in="SourceGraphic" in2="BackgroundImageFix" result="shape"/>
<feColorMatrix in="SourceAlpha" type="matrix" values="0 0 0 0 0 0 0 0 0 0 0 0 0 0 0 0 0 0 127 0" result="hardAlpha"/>
<feOffset dy="4"/>
<feGaussianBlur stdDeviation="5"/>
<feComposite in2="hardAlpha" operator="arithmetic" k2="-1" k3="1"/>
<feColorMatrix type="matrix" values="0 0 0 0 1 0 0 0 0 1 0 0 0 0 1 0 0 0 1 0"/>
<feBlend mode="normal" in2="shape" result="effect1_innerShadow_3_3602"/>
</filter>
<linearGradient id="paint0_linear_3_3602" x1="605.396" y1="361.787" x2="641.199" y2="238.359" gradientUnits="userSpaceOnUse">
<stop stop-color="white" stop-opacity="0.15"/>
<stop offset="1" stop-color="#999999" stop-opacity="0"/>
</linearGradient>
<linearGradient id="paint1_linear_3_3602" x1="524" y1="178.5" x2="571.096" y2="101.215" gradientUnits="userSpaceOnUse">
<stop stop-color="#999999" stop-opacity="0.77"/>
<stop offset="1" stop-color="#999999" stop-opacity="0.05"/>
</linearGradient>
<linearGradient id="paint2_linear_3_3602" x1="87.5" y1="310" x2="446" y2="353.75" gradientUnits="userSpaceOnUse">
<stop stop-color="#999999" stop-opacity="0.05"/>
<stop offset="1" stop-color="#999999" stop-opacity="0.77"/>
</linearGradient>
<linearGradient id="paint3_linear_3_3602" x1="436.5" y1="390" x2="433" y2="386.5" gradientUnits="userSpaceOnUse">
<stop stop-color="white"/>
<stop offset="1" stop-color="#999999" stop-opacity="0"/>
</linearGradient>
<linearGradient id="paint4_linear_3_3602" x1="522.091" y1="194.598" x2="523.837" y2="189.966" gradientUnits="userSpaceOnUse">
<stop stop-color="white"/>
<stop offset="1" stop-color="#999999" stop-opacity="0"/>
</linearGradient>
<clipPath id="clip0_3_3602">
<rect width="663" height="443" fill="white"/>
</clipPath>
</defs>
</svg>
