<svg width="1147" height="856" viewBox="0 0 1147 856" fill="none" xmlns="http://www.w3.org/2000/svg">
<g filter="url(#filter0_f_0_1)">
<ellipse cx="47.5464" cy="48.8571" rx="47.5464" ry="48.8571" transform="matrix(-0.882696 -0.469944 -0.469944 0.882696 494.858 405.688)" fill="white" fill-opacity="0.62"/>
</g>
<g filter="url(#filter1_f_0_1)">
<ellipse cx="230.391" cy="236.742" rx="230.391" ry="236.742" transform="matrix(-0.882696 -0.469944 -0.469944 0.882696 1031.24 335.542)" fill="#0E0E0E" fill-opacity="0.62"/>
</g>
<circle cx="814" cy="444" r="1" fill="#3D3D3D"/>
<circle cx="842" cy="556" r="1" fill="#3D3D3D"/>
<circle cx="810" cy="597" r="1" fill="#3D3D3D"/>
<circle cx="758" cy="506" r="1" fill="#3D3D3D"/>
<circle cx="758" cy="558" r="1" fill="#3D3D3D"/>
<circle cx="758" cy="610" r="1" fill="#3D3D3D"/>
<circle cx="674" cy="456" r="1" fill="#3D3D3D"/>
<circle cx="970" cy="506" r="1" fill="#3D3D3D"/>
<circle cx="897" cy="460" r="1" fill="#3D3D3D"/>
<circle cx="824" cy="414" r="1" fill="#3D3D3D"/>
<circle cx="751" cy="368" r="1" fill="#3D3D3D"/>
<circle cx="141" cy="538" r="1" fill="#3D3D3D"/>
<circle cx="169" cy="650" r="1" fill="#3D3D3D"/>
<circle cx="137" cy="691" r="1" fill="#3D3D3D"/>
<circle cx="85" cy="600" r="1" fill="#3D3D3D"/>
<circle cx="85" cy="652" r="1" fill="#3D3D3D"/>
<circle cx="85" cy="704" r="1" fill="#3D3D3D"/>
<circle cx="1" cy="550" r="1" fill="#3D3D3D"/>
<circle cx="297" cy="600" r="1" fill="#3D3D3D"/>
<circle cx="224" cy="554" r="1" fill="#3D3D3D"/>
<circle cx="151" cy="508" r="1" fill="#3D3D3D"/>
<circle cx="78" cy="462" r="1" fill="#3D3D3D"/>
<circle cx="431" cy="345" r="1" fill="#3D3D3D"/>
<circle cx="459" cy="457" r="1" fill="#3D3D3D"/>
<circle cx="427" cy="498" r="1" fill="#3D3D3D"/>
<circle cx="375" cy="407" r="1" fill="#3D3D3D"/>
<circle cx="375" cy="459" r="1" fill="#3D3D3D"/>
<circle cx="375" cy="511" r="1" fill="#3D3D3D"/>
<circle cx="291" cy="357" r="1" fill="#3D3D3D"/>
<circle cx="587" cy="407" r="1" fill="#3D3D3D"/>
<circle cx="514" cy="361" r="1" fill="#3D3D3D"/>
<circle cx="441" cy="315" r="1" fill="#3D3D3D"/>
<circle cx="368" cy="269" r="1" fill="#3D3D3D"/>
<defs>
<filter id="filter0_f_0_1" x="182.081" y="177.89" width="495.696" height="497.162" filterUnits="userSpaceOnUse" color-interpolation-filters="sRGB">
<feFlood flood-opacity="0" result="BackgroundImageFix"/>
<feBlend mode="normal" in="SourceGraphic" in2="BackgroundImageFix" result="shape"/>
<feGaussianBlur stdDeviation="100" result="effect1_foregroundBlur_0_1"/>
</filter>
<filter id="filter1_f_0_1" x="284.769" y="0.839188" width="863.703" height="870.805" filterUnits="userSpaceOnUse" color-interpolation-filters="sRGB">
<feFlood flood-opacity="0" result="BackgroundImageFix"/>
<feBlend mode="normal" in="SourceGraphic" in2="BackgroundImageFix" result="shape"/>
<feGaussianBlur stdDeviation="100" result="effect1_foregroundBlur_0_1"/>
</filter>
</defs>
</svg>
