<svg width="1440" height="903" viewBox="0 0 1440 903" fill="none" xmlns="http://www.w3.org/2000/svg">
<rect x="-19.0107" y="0.659124" width="77.7766" height="47.4569" stroke="#1B1B1B" stroke-width="1.31825"/>
<rect x="58.7657" y="0.659124" width="77.7766" height="47.4569" stroke="#1B1B1B" stroke-width="1.31825"/>
<rect x="136.543" y="0.659124" width="77.7766" height="47.4569" stroke="#1B1B1B" stroke-width="1.31825"/>
<rect x="214.319" y="0.659124" width="77.7766" height="47.4569" stroke="#1B1B1B" stroke-width="1.31825"/>
<rect x="292.096" y="0.659124" width="77.7766" height="47.4569" stroke="#1B1B1B" stroke-width="1.31825"/>
<rect x="369.872" y="0.659124" width="77.7766" height="47.4569" stroke="#1B1B1B" stroke-width="1.31825"/>
<rect x="447.649" y="0.659124" width="77.7766" height="47.4569" stroke="#1B1B1B" stroke-width="1.31825"/>
<rect x="525.425" y="0.659124" width="77.7766" height="47.4569" stroke="#1B1B1B" stroke-width="1.31825"/>
<rect x="603.202" y="0.659124" width="77.7766" height="47.4569" stroke="#1B1B1B" stroke-width="1.31825"/>
<rect x="680.979" y="0.659124" width="77.7766" height="47.4569" stroke="#1B1B1B" stroke-width="1.31825"/>
<rect x="758.756" y="0.659124" width="77.7766" height="47.4569" stroke="#1B1B1B" stroke-width="1.31825"/>
<rect x="836.532" y="0.659124" width="77.7766" height="47.4569" stroke="#1B1B1B" stroke-width="1.31825"/>
<rect x="914.309" y="0.659124" width="77.7766" height="47.4569" stroke="#1B1B1B" stroke-width="1.31825"/>
<rect x="992.085" y="0.659124" width="77.7766" height="47.4569" stroke="#1B1B1B" stroke-width="1.31825"/>
<rect x="1069.86" y="0.659124" width="77.7766" height="47.4569" stroke="#1B1B1B" stroke-width="1.31825"/>
<rect x="1147.64" y="0.659124" width="77.7766" height="47.4569" stroke="#1B1B1B" stroke-width="1.31825"/>
<rect x="1225.42" y="0.659124" width="77.7766" height="47.4569" stroke="#1B1B1B" stroke-width="1.31825"/>
<rect x="1303.19" y="0.659124" width="77.7766" height="47.4569" stroke="#1B1B1B" stroke-width="1.31825"/>
<rect x="1380.97" y="0.659124" width="77.7766" height="47.4569" stroke="#1B1B1B" stroke-width="1.31825"/>
<rect x="-19.0109" y="48.1159" width="77.7766" height="47.4569" stroke="#1B1B1B" stroke-width="1.31825"/>
<rect x="58.7657" y="48.1159" width="77.7766" height="47.4569" stroke="#1B1B1B" stroke-width="1.31825"/>
<rect x="136.542" y="48.1159" width="77.7766" height="47.4569" stroke="#1B1B1B" stroke-width="1.31825"/>
<rect x="214.319" y="48.1159" width="77.7766" height="47.4569" stroke="#1B1B1B" stroke-width="1.31825"/>
<rect x="292.096" y="48.1159" width="77.7766" height="47.4569" stroke="#1B1B1B" stroke-width="1.31825"/>
<rect x="369.872" y="48.1159" width="77.7766" height="47.4569" stroke="#1B1B1B" stroke-width="1.31825"/>
<rect x="447.649" y="48.1159" width="77.7766" height="47.4569" stroke="#1B1B1B" stroke-width="1.31825"/>
<rect x="525.426" y="48.1159" width="77.7766" height="47.4569" stroke="#1B1B1B" stroke-width="1.31825"/>
<rect x="603.202" y="48.1159" width="77.7766" height="47.4569" stroke="#1B1B1B" stroke-width="1.31825"/>
<rect x="680.979" y="48.1159" width="77.7766" height="47.4569" stroke="#1B1B1B" stroke-width="1.31825"/>
<rect x="758.756" y="48.1159" width="77.7766" height="47.4569" stroke="#1B1B1B" stroke-width="1.31825"/>
<rect x="836.532" y="48.1159" width="77.7766" height="47.4569" stroke="#1B1B1B" stroke-width="1.31825"/>
<rect x="914.309" y="48.1159" width="77.7766" height="47.4569" stroke="#1B1B1B" stroke-width="1.31825"/>
<rect x="992.086" y="48.1159" width="77.7766" height="47.4569" stroke="#1B1B1B" stroke-width="1.31825"/>
<rect x="1069.86" y="48.1159" width="77.7766" height="47.4569" stroke="#1B1B1B" stroke-width="1.31825"/>
<rect x="1147.64" y="48.1159" width="77.7766" height="47.4569" stroke="#1B1B1B" stroke-width="1.31825"/>
<rect x="1225.42" y="48.1159" width="77.7766" height="47.4569" stroke="#1B1B1B" stroke-width="1.31825"/>
<rect x="1303.19" y="48.1159" width="77.7766" height="47.4569" stroke="#1B1B1B" stroke-width="1.31825"/>
<rect x="1380.97" y="48.1159" width="77.7766" height="47.4569" stroke="#1B1B1B" stroke-width="1.31825"/>
<rect x="-19.0109" y="95.5732" width="77.7766" height="47.4569" stroke="#1B1B1B" stroke-width="1.31825"/>
<rect x="58.7657" y="95.5732" width="77.7766" height="47.4569" stroke="#1B1B1B" stroke-width="1.31825"/>
<rect x="136.542" y="95.5732" width="77.7766" height="47.4569" stroke="#1B1B1B" stroke-width="1.31825"/>
<rect x="214.319" y="95.5732" width="77.7766" height="47.4569" stroke="#1B1B1B" stroke-width="1.31825"/>
<rect x="292.096" y="95.5732" width="77.7766" height="47.4569" stroke="#1B1B1B" stroke-width="1.31825"/>
<rect x="369.872" y="95.5732" width="77.7766" height="47.4569" stroke="#1B1B1B" stroke-width="1.31825"/>
<rect x="447.649" y="95.5732" width="77.7766" height="47.4569" stroke="#1B1B1B" stroke-width="1.31825"/>
<rect x="525.426" y="95.5732" width="77.7766" height="47.4569" stroke="#1B1B1B" stroke-width="1.31825"/>
<rect x="603.202" y="95.5732" width="77.7766" height="47.4569" stroke="#1B1B1B" stroke-width="1.31825"/>
<rect x="680.979" y="95.5732" width="77.7766" height="47.4569" stroke="#1B1B1B" stroke-width="1.31825"/>
<rect x="758.756" y="95.5732" width="77.7766" height="47.4569" stroke="#1B1B1B" stroke-width="1.31825"/>
<rect x="836.532" y="95.5732" width="77.7766" height="47.4569" stroke="#1B1B1B" stroke-width="1.31825"/>
<rect x="914.309" y="95.5732" width="77.7766" height="47.4569" stroke="#1B1B1B" stroke-width="1.31825"/>
<rect x="992.086" y="95.5732" width="77.7766" height="47.4569" stroke="#1B1B1B" stroke-width="1.31825"/>
<rect x="1069.86" y="95.5732" width="77.7766" height="47.4569" stroke="#1B1B1B" stroke-width="1.31825"/>
<rect x="1147.64" y="95.5732" width="77.7766" height="47.4569" stroke="#1B1B1B" stroke-width="1.31825"/>
<rect x="1225.42" y="95.5732" width="77.7766" height="47.4569" stroke="#1B1B1B" stroke-width="1.31825"/>
<rect x="1303.19" y="95.5732" width="77.7766" height="47.4569" stroke="#1B1B1B" stroke-width="1.31825"/>
<rect x="1380.97" y="95.5732" width="77.7766" height="47.4569" stroke="#1B1B1B" stroke-width="1.31825"/>
<rect x="-19.0107" y="143.03" width="77.7766" height="47.4569" stroke="#1B1B1B" stroke-width="1.31825"/>
<rect x="58.7657" y="143.03" width="77.7766" height="47.4569" stroke="#1B1B1B" stroke-width="1.31825"/>
<rect x="136.543" y="143.03" width="77.7766" height="47.4569" stroke="#1B1B1B" stroke-width="1.31825"/>
<rect x="214.319" y="143.03" width="77.7766" height="47.4569" stroke="#1B1B1B" stroke-width="1.31825"/>
<rect x="292.096" y="143.03" width="77.7766" height="47.4569" stroke="#1B1B1B" stroke-width="1.31825"/>
<rect x="369.872" y="143.03" width="77.7766" height="47.4569" stroke="#1B1B1B" stroke-width="1.31825"/>
<rect x="447.649" y="143.03" width="77.7766" height="47.4569" stroke="#1B1B1B" stroke-width="1.31825"/>
<rect x="525.425" y="143.03" width="77.7766" height="47.4569" stroke="#1B1B1B" stroke-width="1.31825"/>
<rect x="603.202" y="143.03" width="77.7766" height="47.4569" stroke="#1B1B1B" stroke-width="1.31825"/>
<rect x="680.979" y="143.03" width="77.7766" height="47.4569" stroke="#1B1B1B" stroke-width="1.31825"/>
<rect x="758.756" y="143.03" width="77.7766" height="47.4569" stroke="#1B1B1B" stroke-width="1.31825"/>
<rect x="836.532" y="143.03" width="77.7766" height="47.4569" stroke="#1B1B1B" stroke-width="1.31825"/>
<rect x="914.309" y="143.03" width="77.7766" height="47.4569" stroke="#1B1B1B" stroke-width="1.31825"/>
<rect x="992.085" y="143.03" width="77.7766" height="47.4569" stroke="#1B1B1B" stroke-width="1.31825"/>
<rect x="1069.86" y="143.03" width="77.7766" height="47.4569" stroke="#1B1B1B" stroke-width="1.31825"/>
<rect x="1147.64" y="143.03" width="77.7766" height="47.4569" stroke="#1B1B1B" stroke-width="1.31825"/>
<rect x="1225.42" y="143.03" width="77.7766" height="47.4569" stroke="#1B1B1B" stroke-width="1.31825"/>
<rect x="1303.19" y="143.03" width="77.7766" height="47.4569" stroke="#1B1B1B" stroke-width="1.31825"/>
<rect x="1380.97" y="143.03" width="77.7766" height="47.4569" stroke="#1B1B1B" stroke-width="1.31825"/>
<rect x="-19.0109" y="190.487" width="77.7766" height="47.4569" stroke="#1B1B1B" stroke-width="1.31825"/>
<rect x="58.7657" y="190.487" width="77.7766" height="47.4569" stroke="#1B1B1B" stroke-width="1.31825"/>
<rect x="136.542" y="190.487" width="77.7766" height="47.4569" stroke="#1B1B1B" stroke-width="1.31825"/>
<rect x="214.319" y="190.487" width="77.7766" height="47.4569" stroke="#1B1B1B" stroke-width="1.31825"/>
<rect x="292.096" y="190.487" width="77.7766" height="47.4569" stroke="#1B1B1B" stroke-width="1.31825"/>
<rect x="369.872" y="190.487" width="77.7766" height="47.4569" stroke="#1B1B1B" stroke-width="1.31825"/>
<rect x="447.649" y="190.487" width="77.7766" height="47.4569" stroke="#1B1B1B" stroke-width="1.31825"/>
<rect x="525.426" y="190.487" width="77.7766" height="47.4569" stroke="#1B1B1B" stroke-width="1.31825"/>
<rect x="603.202" y="190.487" width="77.7766" height="47.4569" stroke="#1B1B1B" stroke-width="1.31825"/>
<rect x="680.979" y="190.487" width="77.7766" height="47.4569" stroke="#1B1B1B" stroke-width="1.31825"/>
<rect x="758.756" y="190.487" width="77.7766" height="47.4569" stroke="#1B1B1B" stroke-width="1.31825"/>
<rect x="836.532" y="190.487" width="77.7766" height="47.4569" stroke="#1B1B1B" stroke-width="1.31825"/>
<rect x="914.309" y="190.487" width="77.7766" height="47.4569" stroke="#1B1B1B" stroke-width="1.31825"/>
<rect x="992.086" y="190.487" width="77.7766" height="47.4569" stroke="#1B1B1B" stroke-width="1.31825"/>
<rect x="1069.86" y="190.487" width="77.7766" height="47.4569" stroke="#1B1B1B" stroke-width="1.31825"/>
<rect x="1147.64" y="190.487" width="77.7766" height="47.4569" stroke="#1B1B1B" stroke-width="1.31825"/>
<rect x="1225.42" y="190.487" width="77.7766" height="47.4569" stroke="#1B1B1B" stroke-width="1.31825"/>
<rect x="1303.19" y="190.487" width="77.7766" height="47.4569" stroke="#1B1B1B" stroke-width="1.31825"/>
<rect x="1380.97" y="190.487" width="77.7766" height="47.4569" stroke="#1B1B1B" stroke-width="1.31825"/>
<rect x="-19.0107" y="237.944" width="77.7766" height="47.4569" stroke="#1B1B1B" stroke-width="1.31825"/>
<rect x="58.7657" y="237.944" width="77.7766" height="47.4569" stroke="#1B1B1B" stroke-width="1.31825"/>
<rect x="136.543" y="237.944" width="77.7766" height="47.4569" stroke="#1B1B1B" stroke-width="1.31825"/>
<rect x="214.319" y="237.944" width="77.7766" height="47.4569" stroke="#1B1B1B" stroke-width="1.31825"/>
<rect x="292.096" y="237.944" width="77.7766" height="47.4569" stroke="#1B1B1B" stroke-width="1.31825"/>
<rect x="369.872" y="237.944" width="77.7766" height="47.4569" stroke="#1B1B1B" stroke-width="1.31825"/>
<rect x="447.649" y="237.944" width="77.7766" height="47.4569" stroke="#1B1B1B" stroke-width="1.31825"/>
<rect x="525.425" y="237.944" width="77.7766" height="47.4569" stroke="#1B1B1B" stroke-width="1.31825"/>
<rect x="603.202" y="237.944" width="77.7766" height="47.4569" stroke="#1B1B1B" stroke-width="1.31825"/>
<rect x="680.979" y="237.944" width="77.7766" height="47.4569" stroke="#1B1B1B" stroke-width="1.31825"/>
<rect x="758.756" y="237.944" width="77.7766" height="47.4569" stroke="#1B1B1B" stroke-width="1.31825"/>
<rect x="836.532" y="237.944" width="77.7766" height="47.4569" stroke="#1B1B1B" stroke-width="1.31825"/>
<rect x="914.309" y="237.944" width="77.7766" height="47.4569" stroke="#1B1B1B" stroke-width="1.31825"/>
<rect x="992.085" y="237.944" width="77.7766" height="47.4569" stroke="#1B1B1B" stroke-width="1.31825"/>
<rect x="1069.86" y="237.944" width="77.7766" height="47.4569" stroke="#1B1B1B" stroke-width="1.31825"/>
<rect x="1147.64" y="237.944" width="77.7766" height="47.4569" stroke="#1B1B1B" stroke-width="1.31825"/>
<rect x="1225.42" y="237.944" width="77.7766" height="47.4569" stroke="#1B1B1B" stroke-width="1.31825"/>
<rect x="1303.19" y="237.944" width="77.7766" height="47.4569" stroke="#1B1B1B" stroke-width="1.31825"/>
<rect x="1380.97" y="237.944" width="77.7766" height="47.4569" stroke="#1B1B1B" stroke-width="1.31825"/>
<rect x="-19.0107" y="285.401" width="77.7766" height="47.4569" stroke="#1B1B1B" stroke-width="1.31825"/>
<rect x="58.7657" y="285.401" width="77.7766" height="47.4569" stroke="#1B1B1B" stroke-width="1.31825"/>
<rect x="136.543" y="285.401" width="77.7766" height="47.4569" stroke="#1B1B1B" stroke-width="1.31825"/>
<rect x="214.319" y="285.401" width="77.7766" height="47.4569" stroke="#1B1B1B" stroke-width="1.31825"/>
<rect x="292.096" y="285.401" width="77.7766" height="47.4569" stroke="#1B1B1B" stroke-width="1.31825"/>
<rect x="369.872" y="285.401" width="77.7766" height="47.4569" stroke="#1B1B1B" stroke-width="1.31825"/>
<rect x="447.649" y="285.401" width="77.7766" height="47.4569" stroke="#1B1B1B" stroke-width="1.31825"/>
<rect x="525.425" y="285.401" width="77.7766" height="47.4569" stroke="#1B1B1B" stroke-width="1.31825"/>
<rect x="603.202" y="285.401" width="77.7766" height="47.4569" stroke="#1B1B1B" stroke-width="1.31825"/>
<rect x="680.979" y="285.401" width="77.7766" height="47.4569" stroke="#1B1B1B" stroke-width="1.31825"/>
<rect x="758.756" y="285.401" width="77.7766" height="47.4569" stroke="#1B1B1B" stroke-width="1.31825"/>
<rect x="836.532" y="285.401" width="77.7766" height="47.4569" stroke="#1B1B1B" stroke-width="1.31825"/>
<rect x="914.309" y="285.401" width="77.7766" height="47.4569" stroke="#1B1B1B" stroke-width="1.31825"/>
<rect x="992.085" y="285.401" width="77.7766" height="47.4569" stroke="#1B1B1B" stroke-width="1.31825"/>
<rect x="1069.86" y="285.401" width="77.7766" height="47.4569" stroke="#1B1B1B" stroke-width="1.31825"/>
<rect x="1147.64" y="285.401" width="77.7766" height="47.4569" stroke="#1B1B1B" stroke-width="1.31825"/>
<rect x="1225.42" y="285.401" width="77.7766" height="47.4569" stroke="#1B1B1B" stroke-width="1.31825"/>
<rect x="1303.19" y="285.401" width="77.7766" height="47.4569" stroke="#1B1B1B" stroke-width="1.31825"/>
<rect x="1380.97" y="285.401" width="77.7766" height="47.4569" stroke="#1B1B1B" stroke-width="1.31825"/>
<rect x="-19.0109" y="332.858" width="77.7766" height="47.4569" stroke="#1B1B1B" stroke-width="1.31825"/>
<rect x="58.7657" y="332.858" width="77.7766" height="47.4569" stroke="#1B1B1B" stroke-width="1.31825"/>
<rect x="136.542" y="332.858" width="77.7766" height="47.4569" stroke="#1B1B1B" stroke-width="1.31825"/>
<rect x="214.319" y="332.858" width="77.7766" height="47.4569" stroke="#1B1B1B" stroke-width="1.31825"/>
<rect x="292.096" y="332.858" width="77.7766" height="47.4569" stroke="#1B1B1B" stroke-width="1.31825"/>
<rect x="369.872" y="332.858" width="77.7766" height="47.4569" stroke="#1B1B1B" stroke-width="1.31825"/>
<rect x="447.649" y="332.858" width="77.7766" height="47.4569" stroke="#1B1B1B" stroke-width="1.31825"/>
<rect x="525.426" y="332.858" width="77.7766" height="47.4569" stroke="#1B1B1B" stroke-width="1.31825"/>
<rect x="603.202" y="332.858" width="77.7766" height="47.4569" stroke="#1B1B1B" stroke-width="1.31825"/>
<rect x="680.979" y="332.858" width="77.7766" height="47.4569" stroke="#1B1B1B" stroke-width="1.31825"/>
<rect x="758.756" y="332.858" width="77.7766" height="47.4569" stroke="#1B1B1B" stroke-width="1.31825"/>
<rect x="836.532" y="332.858" width="77.7766" height="47.4569" stroke="#1B1B1B" stroke-width="1.31825"/>
<rect x="914.309" y="332.858" width="77.7766" height="47.4569" stroke="#1B1B1B" stroke-width="1.31825"/>
<rect x="992.086" y="332.858" width="77.7766" height="47.4569" stroke="#1B1B1B" stroke-width="1.31825"/>
<rect x="1069.86" y="332.858" width="77.7766" height="47.4569" stroke="#1B1B1B" stroke-width="1.31825"/>
<rect x="1147.64" y="332.858" width="77.7766" height="47.4569" stroke="#1B1B1B" stroke-width="1.31825"/>
<rect x="1225.42" y="332.858" width="77.7766" height="47.4569" stroke="#1B1B1B" stroke-width="1.31825"/>
<rect x="1303.19" y="332.858" width="77.7766" height="47.4569" stroke="#1B1B1B" stroke-width="1.31825"/>
<rect x="1380.97" y="332.858" width="77.7766" height="47.4569" stroke="#1B1B1B" stroke-width="1.31825"/>
<rect x="-19.0107" y="380.315" width="77.7766" height="47.4569" stroke="#1B1B1B" stroke-width="1.31825"/>
<rect x="58.7657" y="380.315" width="77.7766" height="47.4569" stroke="#1B1B1B" stroke-width="1.31825"/>
<rect x="136.543" y="380.315" width="77.7766" height="47.4569" stroke="#1B1B1B" stroke-width="1.31825"/>
<rect x="214.319" y="380.315" width="77.7766" height="47.4569" stroke="#1B1B1B" stroke-width="1.31825"/>
<rect x="292.096" y="380.315" width="77.7766" height="47.4569" stroke="#1B1B1B" stroke-width="1.31825"/>
<rect x="369.872" y="380.315" width="77.7766" height="47.4569" stroke="#1B1B1B" stroke-width="1.31825"/>
<rect x="447.649" y="380.315" width="77.7766" height="47.4569" stroke="#1B1B1B" stroke-width="1.31825"/>
<rect x="525.425" y="380.315" width="77.7766" height="47.4569" stroke="#1B1B1B" stroke-width="1.31825"/>
<rect x="603.202" y="380.315" width="77.7766" height="47.4569" stroke="#1B1B1B" stroke-width="1.31825"/>
<rect x="680.979" y="380.315" width="77.7766" height="47.4569" stroke="#1B1B1B" stroke-width="1.31825"/>
<rect x="758.756" y="380.315" width="77.7766" height="47.4569" stroke="#1B1B1B" stroke-width="1.31825"/>
<rect x="836.532" y="380.315" width="77.7766" height="47.4569" stroke="#1B1B1B" stroke-width="1.31825"/>
<rect x="914.309" y="380.315" width="77.7766" height="47.4569" stroke="#1B1B1B" stroke-width="1.31825"/>
<rect x="992.085" y="380.315" width="77.7766" height="47.4569" stroke="#1B1B1B" stroke-width="1.31825"/>
<rect x="1069.86" y="380.315" width="77.7766" height="47.4569" stroke="#1B1B1B" stroke-width="1.31825"/>
<rect x="1147.64" y="380.315" width="77.7766" height="47.4569" stroke="#1B1B1B" stroke-width="1.31825"/>
<rect x="1225.42" y="380.315" width="77.7766" height="47.4569" stroke="#1B1B1B" stroke-width="1.31825"/>
<rect x="1303.19" y="380.315" width="77.7766" height="47.4569" stroke="#1B1B1B" stroke-width="1.31825"/>
<rect x="1380.97" y="380.315" width="77.7766" height="47.4569" stroke="#1B1B1B" stroke-width="1.31825"/>
<rect x="-19.0109" y="427.771" width="77.7766" height="47.4569" stroke="#1B1B1B" stroke-width="1.31825"/>
<rect x="58.7657" y="427.771" width="77.7766" height="47.4569" stroke="#1B1B1B" stroke-width="1.31825"/>
<rect x="136.542" y="427.771" width="77.7766" height="47.4569" stroke="#1B1B1B" stroke-width="1.31825"/>
<rect x="214.319" y="427.771" width="77.7766" height="47.4569" stroke="#1B1B1B" stroke-width="1.31825"/>
<rect x="292.096" y="427.771" width="77.7766" height="47.4569" stroke="#1B1B1B" stroke-width="1.31825"/>
<rect x="369.872" y="427.771" width="77.7766" height="47.4569" stroke="#1B1B1B" stroke-width="1.31825"/>
<rect x="447.649" y="427.771" width="77.7766" height="47.4569" stroke="#1B1B1B" stroke-width="1.31825"/>
<rect x="525.426" y="427.771" width="77.7766" height="47.4569" stroke="#1B1B1B" stroke-width="1.31825"/>
<rect x="603.202" y="427.771" width="77.7766" height="47.4569" stroke="#1B1B1B" stroke-width="1.31825"/>
<rect x="680.979" y="427.771" width="77.7766" height="47.4569" stroke="#1B1B1B" stroke-width="1.31825"/>
<rect x="758.756" y="427.771" width="77.7766" height="47.4569" stroke="#1B1B1B" stroke-width="1.31825"/>
<rect x="836.532" y="427.771" width="77.7766" height="47.4569" stroke="#1B1B1B" stroke-width="1.31825"/>
<rect x="914.309" y="427.771" width="77.7766" height="47.4569" stroke="#1B1B1B" stroke-width="1.31825"/>
<rect x="992.086" y="427.771" width="77.7766" height="47.4569" stroke="#1B1B1B" stroke-width="1.31825"/>
<rect x="1069.86" y="427.771" width="77.7766" height="47.4569" stroke="#1B1B1B" stroke-width="1.31825"/>
<rect x="1147.64" y="427.771" width="77.7766" height="47.4569" stroke="#1B1B1B" stroke-width="1.31825"/>
<rect x="1225.42" y="427.771" width="77.7766" height="47.4569" stroke="#1B1B1B" stroke-width="1.31825"/>
<rect x="1303.19" y="427.771" width="77.7766" height="47.4569" stroke="#1B1B1B" stroke-width="1.31825"/>
<rect x="1380.97" y="427.771" width="77.7766" height="47.4569" stroke="#1B1B1B" stroke-width="1.31825"/>
<rect x="-19.0107" y="475.228" width="77.7766" height="47.4569" stroke="#1B1B1B" stroke-width="1.31825"/>
<rect x="58.7657" y="475.228" width="77.7766" height="47.4569" stroke="#1B1B1B" stroke-width="1.31825"/>
<rect x="136.543" y="475.228" width="77.7766" height="47.4569" stroke="#1B1B1B" stroke-width="1.31825"/>
<rect x="214.319" y="475.228" width="77.7766" height="47.4569" stroke="#1B1B1B" stroke-width="1.31825"/>
<rect x="292.096" y="475.228" width="77.7766" height="47.4569" stroke="#1B1B1B" stroke-width="1.31825"/>
<rect x="369.872" y="475.228" width="77.7766" height="47.4569" stroke="#1B1B1B" stroke-width="1.31825"/>
<rect x="447.649" y="475.228" width="77.7766" height="47.4569" stroke="#1B1B1B" stroke-width="1.31825"/>
<rect x="525.425" y="475.228" width="77.7766" height="47.4569" stroke="#1B1B1B" stroke-width="1.31825"/>
<rect x="603.202" y="475.228" width="77.7766" height="47.4569" stroke="#1B1B1B" stroke-width="1.31825"/>
<rect x="680.979" y="475.228" width="77.7766" height="47.4569" stroke="#1B1B1B" stroke-width="1.31825"/>
<rect x="758.756" y="475.228" width="77.7766" height="47.4569" stroke="#1B1B1B" stroke-width="1.31825"/>
<rect x="836.532" y="475.228" width="77.7766" height="47.4569" stroke="#1B1B1B" stroke-width="1.31825"/>
<rect x="914.309" y="475.228" width="77.7766" height="47.4569" stroke="#1B1B1B" stroke-width="1.31825"/>
<rect x="992.085" y="475.228" width="77.7766" height="47.4569" stroke="#1B1B1B" stroke-width="1.31825"/>
<rect x="1069.86" y="475.228" width="77.7766" height="47.4569" stroke="#1B1B1B" stroke-width="1.31825"/>
<rect x="1147.64" y="475.228" width="77.7766" height="47.4569" stroke="#1B1B1B" stroke-width="1.31825"/>
<rect x="1225.42" y="475.228" width="77.7766" height="47.4569" stroke="#1B1B1B" stroke-width="1.31825"/>
<rect x="1303.19" y="475.228" width="77.7766" height="47.4569" stroke="#1B1B1B" stroke-width="1.31825"/>
<rect x="1380.97" y="475.228" width="77.7766" height="47.4569" stroke="#1B1B1B" stroke-width="1.31825"/>
<rect x="-19.0107" y="522.685" width="77.7766" height="47.4569" stroke="#1B1B1B" stroke-width="1.31825"/>
<rect x="58.7657" y="522.685" width="77.7766" height="47.4569" stroke="#1B1B1B" stroke-width="1.31825"/>
<rect x="136.543" y="522.685" width="77.7766" height="47.4569" stroke="#1B1B1B" stroke-width="1.31825"/>
<rect x="214.319" y="522.685" width="77.7766" height="47.4569" stroke="#1B1B1B" stroke-width="1.31825"/>
<rect x="292.096" y="522.685" width="77.7766" height="47.4569" stroke="#1B1B1B" stroke-width="1.31825"/>
<rect x="369.872" y="522.685" width="77.7766" height="47.4569" stroke="#1B1B1B" stroke-width="1.31825"/>
<rect x="447.649" y="522.685" width="77.7766" height="47.4569" stroke="#1B1B1B" stroke-width="1.31825"/>
<rect x="525.425" y="522.685" width="77.7766" height="47.4569" stroke="#1B1B1B" stroke-width="1.31825"/>
<rect x="603.202" y="522.685" width="77.7766" height="47.4569" stroke="#1B1B1B" stroke-width="1.31825"/>
<rect x="680.979" y="522.685" width="77.7766" height="47.4569" stroke="#1B1B1B" stroke-width="1.31825"/>
<rect x="758.756" y="522.685" width="77.7766" height="47.4569" stroke="#1B1B1B" stroke-width="1.31825"/>
<rect x="836.532" y="522.685" width="77.7766" height="47.4569" stroke="#1B1B1B" stroke-width="1.31825"/>
<rect x="914.309" y="522.685" width="77.7766" height="47.4569" stroke="#1B1B1B" stroke-width="1.31825"/>
<rect x="992.085" y="522.685" width="77.7766" height="47.4569" stroke="#1B1B1B" stroke-width="1.31825"/>
<rect x="1069.86" y="522.685" width="77.7766" height="47.4569" stroke="#1B1B1B" stroke-width="1.31825"/>
<rect x="1147.64" y="522.685" width="77.7766" height="47.4569" stroke="#1B1B1B" stroke-width="1.31825"/>
<rect x="1225.42" y="522.685" width="77.7766" height="47.4569" stroke="#1B1B1B" stroke-width="1.31825"/>
<rect x="1303.19" y="522.685" width="77.7766" height="47.4569" stroke="#1B1B1B" stroke-width="1.31825"/>
<rect x="1380.97" y="522.685" width="77.7766" height="47.4569" stroke="#1B1B1B" stroke-width="1.31825"/>
<rect x="-19.0109" y="570.142" width="77.7766" height="47.4569" stroke="#1B1B1B" stroke-width="1.31825"/>
<rect x="58.7657" y="570.142" width="77.7766" height="47.4569" stroke="#1B1B1B" stroke-width="1.31825"/>
<rect x="136.542" y="570.142" width="77.7766" height="47.4569" stroke="#1B1B1B" stroke-width="1.31825"/>
<rect x="214.319" y="570.142" width="77.7766" height="47.4569" stroke="#1B1B1B" stroke-width="1.31825"/>
<rect x="292.096" y="570.142" width="77.7766" height="47.4569" stroke="#1B1B1B" stroke-width="1.31825"/>
<rect x="369.872" y="570.142" width="77.7766" height="47.4569" stroke="#1B1B1B" stroke-width="1.31825"/>
<rect x="447.649" y="570.142" width="77.7766" height="47.4569" stroke="#1B1B1B" stroke-width="1.31825"/>
<rect x="525.426" y="570.142" width="77.7766" height="47.4569" stroke="#1B1B1B" stroke-width="1.31825"/>
<rect x="603.202" y="570.142" width="77.7766" height="47.4569" stroke="#1B1B1B" stroke-width="1.31825"/>
<rect x="680.979" y="570.142" width="77.7766" height="47.4569" stroke="#1B1B1B" stroke-width="1.31825"/>
<rect x="758.756" y="570.142" width="77.7766" height="47.4569" stroke="#1B1B1B" stroke-width="1.31825"/>
<rect x="836.532" y="570.142" width="77.7766" height="47.4569" stroke="#1B1B1B" stroke-width="1.31825"/>
<rect x="914.309" y="570.142" width="77.7766" height="47.4569" stroke="#1B1B1B" stroke-width="1.31825"/>
<rect x="992.086" y="570.142" width="77.7766" height="47.4569" stroke="#1B1B1B" stroke-width="1.31825"/>
<rect x="1069.86" y="570.142" width="77.7766" height="47.4569" stroke="#1B1B1B" stroke-width="1.31825"/>
<rect x="1147.64" y="570.142" width="77.7766" height="47.4569" stroke="#1B1B1B" stroke-width="1.31825"/>
<rect x="1225.42" y="570.142" width="77.7766" height="47.4569" stroke="#1B1B1B" stroke-width="1.31825"/>
<rect x="1303.19" y="570.142" width="77.7766" height="47.4569" stroke="#1B1B1B" stroke-width="1.31825"/>
<rect x="1380.97" y="570.142" width="77.7766" height="47.4569" stroke="#1B1B1B" stroke-width="1.31825"/>
<rect x="-19.0107" y="617.599" width="77.7766" height="47.4569" stroke="#1B1B1B" stroke-width="1.31825"/>
<rect x="58.7657" y="617.599" width="77.7766" height="47.4569" stroke="#1B1B1B" stroke-width="1.31825"/>
<rect x="136.543" y="617.599" width="77.7766" height="47.4569" stroke="#1B1B1B" stroke-width="1.31825"/>
<rect x="214.319" y="617.599" width="77.7766" height="47.4569" stroke="#1B1B1B" stroke-width="1.31825"/>
<rect x="292.096" y="617.599" width="77.7766" height="47.4569" stroke="#1B1B1B" stroke-width="1.31825"/>
<rect x="369.872" y="617.599" width="77.7766" height="47.4569" stroke="#1B1B1B" stroke-width="1.31825"/>
<rect x="447.649" y="617.599" width="77.7766" height="47.4569" stroke="#1B1B1B" stroke-width="1.31825"/>
<rect x="525.425" y="617.599" width="77.7766" height="47.4569" stroke="#1B1B1B" stroke-width="1.31825"/>
<rect x="603.202" y="617.599" width="77.7766" height="47.4569" stroke="#1B1B1B" stroke-width="1.31825"/>
<rect x="680.979" y="617.599" width="77.7766" height="47.4569" stroke="#1B1B1B" stroke-width="1.31825"/>
<rect x="758.756" y="617.599" width="77.7766" height="47.4569" stroke="#1B1B1B" stroke-width="1.31825"/>
<rect x="836.532" y="617.599" width="77.7766" height="47.4569" stroke="#1B1B1B" stroke-width="1.31825"/>
<rect x="914.309" y="617.599" width="77.7766" height="47.4569" stroke="#1B1B1B" stroke-width="1.31825"/>
<rect x="992.085" y="617.599" width="77.7766" height="47.4569" stroke="#1B1B1B" stroke-width="1.31825"/>
<rect x="1069.86" y="617.599" width="77.7766" height="47.4569" stroke="#1B1B1B" stroke-width="1.31825"/>
<rect x="1147.64" y="617.599" width="77.7766" height="47.4569" stroke="#1B1B1B" stroke-width="1.31825"/>
<rect x="1225.42" y="617.599" width="77.7766" height="47.4569" stroke="#1B1B1B" stroke-width="1.31825"/>
<rect x="1303.19" y="617.599" width="77.7766" height="47.4569" stroke="#1B1B1B" stroke-width="1.31825"/>
<rect x="1380.97" y="617.599" width="77.7766" height="47.4569" stroke="#1B1B1B" stroke-width="1.31825"/>
<rect x="-19.0107" y="665.056" width="77.7766" height="47.4569" stroke="#1B1B1B" stroke-width="1.31825"/>
<rect x="58.7657" y="665.056" width="77.7766" height="47.4569" stroke="#1B1B1B" stroke-width="1.31825"/>
<rect x="136.543" y="665.056" width="77.7766" height="47.4569" stroke="#1B1B1B" stroke-width="1.31825"/>
<rect x="214.319" y="665.056" width="77.7766" height="47.4569" stroke="#1B1B1B" stroke-width="1.31825"/>
<rect x="292.096" y="665.056" width="77.7766" height="47.4569" stroke="#1B1B1B" stroke-width="1.31825"/>
<rect x="369.872" y="665.056" width="77.7766" height="47.4569" stroke="#1B1B1B" stroke-width="1.31825"/>
<rect x="447.649" y="665.056" width="77.7766" height="47.4569" stroke="#1B1B1B" stroke-width="1.31825"/>
<rect x="525.425" y="665.056" width="77.7766" height="47.4569" stroke="#1B1B1B" stroke-width="1.31825"/>
<rect x="603.202" y="665.056" width="77.7766" height="47.4569" stroke="#1B1B1B" stroke-width="1.31825"/>
<rect x="680.979" y="665.056" width="77.7766" height="47.4569" stroke="#1B1B1B" stroke-width="1.31825"/>
<rect x="758.756" y="665.056" width="77.7766" height="47.4569" stroke="#1B1B1B" stroke-width="1.31825"/>
<rect x="836.532" y="665.056" width="77.7766" height="47.4569" stroke="#1B1B1B" stroke-width="1.31825"/>
<rect x="914.309" y="665.056" width="77.7766" height="47.4569" stroke="#1B1B1B" stroke-width="1.31825"/>
<rect x="992.085" y="665.056" width="77.7766" height="47.4569" stroke="#1B1B1B" stroke-width="1.31825"/>
<rect x="1069.86" y="665.056" width="77.7766" height="47.4569" stroke="#1B1B1B" stroke-width="1.31825"/>
<rect x="1147.64" y="665.056" width="77.7766" height="47.4569" stroke="#1B1B1B" stroke-width="1.31825"/>
<rect x="1225.42" y="665.056" width="77.7766" height="47.4569" stroke="#1B1B1B" stroke-width="1.31825"/>
<rect x="1303.19" y="665.056" width="77.7766" height="47.4569" stroke="#1B1B1B" stroke-width="1.31825"/>
<rect x="1380.97" y="665.056" width="77.7766" height="47.4569" stroke="#1B1B1B" stroke-width="1.31825"/>
<rect x="-19.0107" y="712.513" width="77.7766" height="47.4569" stroke="#1B1B1B" stroke-width="1.31825"/>
<rect x="58.7657" y="712.513" width="77.7766" height="47.4569" stroke="#1B1B1B" stroke-width="1.31825"/>
<rect x="136.543" y="712.513" width="77.7766" height="47.4569" stroke="#1B1B1B" stroke-width="1.31825"/>
<rect x="214.319" y="712.513" width="77.7766" height="47.4569" stroke="#1B1B1B" stroke-width="1.31825"/>
<rect x="292.096" y="712.513" width="77.7766" height="47.4569" stroke="#1B1B1B" stroke-width="1.31825"/>
<rect x="369.872" y="712.513" width="77.7766" height="47.4569" stroke="#1B1B1B" stroke-width="1.31825"/>
<rect x="447.649" y="712.513" width="77.7766" height="47.4569" stroke="#1B1B1B" stroke-width="1.31825"/>
<rect x="525.425" y="712.513" width="77.7766" height="47.4569" stroke="#1B1B1B" stroke-width="1.31825"/>
<rect x="603.202" y="712.513" width="77.7766" height="47.4569" stroke="#1B1B1B" stroke-width="1.31825"/>
<rect x="680.979" y="712.513" width="77.7766" height="47.4569" stroke="#1B1B1B" stroke-width="1.31825"/>
<rect x="758.756" y="712.513" width="77.7766" height="47.4569" stroke="#1B1B1B" stroke-width="1.31825"/>
<rect x="836.532" y="712.513" width="77.7766" height="47.4569" stroke="#1B1B1B" stroke-width="1.31825"/>
<rect x="914.309" y="712.513" width="77.7766" height="47.4569" stroke="#1B1B1B" stroke-width="1.31825"/>
<rect x="992.085" y="712.513" width="77.7766" height="47.4569" stroke="#1B1B1B" stroke-width="1.31825"/>
<rect x="1069.86" y="712.513" width="77.7766" height="47.4569" stroke="#1B1B1B" stroke-width="1.31825"/>
<rect x="1147.64" y="712.513" width="77.7766" height="47.4569" stroke="#1B1B1B" stroke-width="1.31825"/>
<rect x="1225.42" y="712.513" width="77.7766" height="47.4569" stroke="#1B1B1B" stroke-width="1.31825"/>
<rect x="1303.19" y="712.513" width="77.7766" height="47.4569" stroke="#1B1B1B" stroke-width="1.31825"/>
<rect x="1380.97" y="712.513" width="77.7766" height="47.4569" stroke="#1B1B1B" stroke-width="1.31825"/>
<rect x="-19.0107" y="759.97" width="77.7766" height="47.4569" stroke="#1B1B1B" stroke-width="1.31825"/>
<rect x="58.7657" y="759.97" width="77.7766" height="47.4569" stroke="#1B1B1B" stroke-width="1.31825"/>
<rect x="136.543" y="759.97" width="77.7766" height="47.4569" stroke="#1B1B1B" stroke-width="1.31825"/>
<rect x="214.319" y="759.97" width="77.7766" height="47.4569" stroke="#1B1B1B" stroke-width="1.31825"/>
<rect x="292.096" y="759.97" width="77.7766" height="47.4569" stroke="#1B1B1B" stroke-width="1.31825"/>
<rect x="369.872" y="759.97" width="77.7766" height="47.4569" stroke="#1B1B1B" stroke-width="1.31825"/>
<rect x="447.649" y="759.97" width="77.7766" height="47.4569" stroke="#1B1B1B" stroke-width="1.31825"/>
<rect x="525.425" y="759.97" width="77.7766" height="47.4569" stroke="#1B1B1B" stroke-width="1.31825"/>
<rect x="603.202" y="759.97" width="77.7766" height="47.4569" stroke="#1B1B1B" stroke-width="1.31825"/>
<rect x="680.979" y="759.97" width="77.7766" height="47.4569" stroke="#1B1B1B" stroke-width="1.31825"/>
<rect x="758.756" y="759.97" width="77.7766" height="47.4569" stroke="#1B1B1B" stroke-width="1.31825"/>
<rect x="836.532" y="759.97" width="77.7766" height="47.4569" stroke="#1B1B1B" stroke-width="1.31825"/>
<rect x="914.309" y="759.97" width="77.7766" height="47.4569" stroke="#1B1B1B" stroke-width="1.31825"/>
<rect x="992.085" y="759.97" width="77.7766" height="47.4569" stroke="#1B1B1B" stroke-width="1.31825"/>
<rect x="1069.86" y="759.97" width="77.7766" height="47.4569" stroke="#1B1B1B" stroke-width="1.31825"/>
<rect x="1147.64" y="759.97" width="77.7766" height="47.4569" stroke="#1B1B1B" stroke-width="1.31825"/>
<rect x="1225.42" y="759.97" width="77.7766" height="47.4569" stroke="#1B1B1B" stroke-width="1.31825"/>
<rect x="1303.19" y="759.97" width="77.7766" height="47.4569" stroke="#1B1B1B" stroke-width="1.31825"/>
<rect x="1380.97" y="759.97" width="77.7766" height="47.4569" stroke="#1B1B1B" stroke-width="1.31825"/>
<rect x="-19.0109" y="807.427" width="77.7766" height="47.4569" stroke="#1B1B1B" stroke-width="1.31825"/>
<rect x="58.7657" y="807.427" width="77.7766" height="47.4569" stroke="#1B1B1B" stroke-width="1.31825"/>
<rect x="136.542" y="807.427" width="77.7766" height="47.4569" stroke="#1B1B1B" stroke-width="1.31825"/>
<rect x="214.319" y="807.427" width="77.7766" height="47.4569" stroke="#1B1B1B" stroke-width="1.31825"/>
<rect x="292.096" y="807.427" width="77.7766" height="47.4569" stroke="#1B1B1B" stroke-width="1.31825"/>
<rect x="369.872" y="807.427" width="77.7766" height="47.4569" stroke="#1B1B1B" stroke-width="1.31825"/>
<rect x="447.649" y="807.427" width="77.7766" height="47.4569" stroke="#1B1B1B" stroke-width="1.31825"/>
<rect x="525.426" y="807.427" width="77.7766" height="47.4569" stroke="#1B1B1B" stroke-width="1.31825"/>
<rect x="603.202" y="807.427" width="77.7766" height="47.4569" stroke="#1B1B1B" stroke-width="1.31825"/>
<rect x="680.979" y="807.427" width="77.7766" height="47.4569" stroke="#1B1B1B" stroke-width="1.31825"/>
<rect x="758.756" y="807.427" width="77.7766" height="47.4569" stroke="#1B1B1B" stroke-width="1.31825"/>
<rect x="836.532" y="807.427" width="77.7766" height="47.4569" stroke="#1B1B1B" stroke-width="1.31825"/>
<rect x="914.309" y="807.427" width="77.7766" height="47.4569" stroke="#1B1B1B" stroke-width="1.31825"/>
<rect x="992.086" y="807.427" width="77.7766" height="47.4569" stroke="#1B1B1B" stroke-width="1.31825"/>
<rect x="1069.86" y="807.427" width="77.7766" height="47.4569" stroke="#1B1B1B" stroke-width="1.31825"/>
<rect x="1147.64" y="807.427" width="77.7766" height="47.4569" stroke="#1B1B1B" stroke-width="1.31825"/>
<rect x="1225.42" y="807.427" width="77.7766" height="47.4569" stroke="#1B1B1B" stroke-width="1.31825"/>
<rect x="1303.19" y="807.427" width="77.7766" height="47.4569" stroke="#1B1B1B" stroke-width="1.31825"/>
<rect x="1380.97" y="807.427" width="77.7766" height="47.4569" stroke="#1B1B1B" stroke-width="1.31825"/>
<rect x="-19.0107" y="854.884" width="77.7766" height="47.4569" stroke="#1B1B1B" stroke-width="1.31825"/>
<rect x="58.7657" y="854.884" width="77.7766" height="47.4569" stroke="#1B1B1B" stroke-width="1.31825"/>
<rect x="136.543" y="854.884" width="77.7766" height="47.4569" stroke="#1B1B1B" stroke-width="1.31825"/>
<rect x="214.319" y="854.884" width="77.7766" height="47.4569" stroke="#1B1B1B" stroke-width="1.31825"/>
<rect x="292.096" y="854.884" width="77.7766" height="47.4569" stroke="#1B1B1B" stroke-width="1.31825"/>
<rect x="369.872" y="854.884" width="77.7766" height="47.4569" stroke="#1B1B1B" stroke-width="1.31825"/>
<rect x="447.649" y="854.884" width="77.7766" height="47.4569" stroke="#1B1B1B" stroke-width="1.31825"/>
<rect x="525.425" y="854.884" width="77.7766" height="47.4569" stroke="#1B1B1B" stroke-width="1.31825"/>
<rect x="603.202" y="854.884" width="77.7766" height="47.4569" stroke="#1B1B1B" stroke-width="1.31825"/>
<rect x="680.979" y="854.884" width="77.7766" height="47.4569" stroke="#1B1B1B" stroke-width="1.31825"/>
<rect x="758.756" y="854.884" width="77.7766" height="47.4569" stroke="#1B1B1B" stroke-width="1.31825"/>
<rect x="836.532" y="854.884" width="77.7766" height="47.4569" stroke="#1B1B1B" stroke-width="1.31825"/>
<rect x="914.309" y="854.884" width="77.7766" height="47.4569" stroke="#1B1B1B" stroke-width="1.31825"/>
<rect x="992.085" y="854.884" width="77.7766" height="47.4569" stroke="#1B1B1B" stroke-width="1.31825"/>
<rect x="1069.86" y="854.884" width="77.7766" height="47.4569" stroke="#1B1B1B" stroke-width="1.31825"/>
<rect x="1147.64" y="854.884" width="77.7766" height="47.4569" stroke="#1B1B1B" stroke-width="1.31825"/>
<rect x="1225.42" y="854.884" width="77.7766" height="47.4569" stroke="#1B1B1B" stroke-width="1.31825"/>
<rect x="1303.19" y="854.884" width="77.7766" height="47.4569" stroke="#1B1B1B" stroke-width="1.31825"/>
<rect x="1380.97" y="854.884" width="77.7766" height="47.4569" stroke="#1B1B1B" stroke-width="1.31825"/>
</svg>
