<svg width="1440" height="903" viewBox="0 0 1440 903" fill="none" xmlns="http://www.w3.org/2000/svg">
<rect x="-19.0108" y="0.659124" width="77.7766" height="47.4569" stroke="#1B1B1B" stroke-width="1.31825"/>
<rect x="58.7656" y="0.659124" width="77.7766" height="47.4569" stroke="#1B1B1B" stroke-width="1.31825"/>
<rect x="136.542" y="0.659124" width="77.7766" height="47.4569" stroke="#1B1B1B" stroke-width="1.31825"/>
<rect x="214.319" y="0.659124" width="77.7766" height="47.4569" stroke="#1B1B1B" stroke-width="1.31825"/>
<rect x="292.096" y="0.659124" width="77.7766" height="47.4569" stroke="#1B1B1B" stroke-width="1.31825"/>
<rect x="369.872" y="0.659124" width="77.7766" height="47.4569" stroke="#1B1B1B" stroke-width="1.31825"/>
<rect x="447.649" y="0.659124" width="77.7766" height="47.4569" stroke="#1B1B1B" stroke-width="1.31825"/>
<rect x="525.425" y="0.659124" width="77.7766" height="47.4569" stroke="#1B1B1B" stroke-width="1.31825"/>
<rect x="603.202" y="0.659124" width="77.7766" height="47.4569" stroke="#1B1B1B" stroke-width="1.31825"/>
<rect x="680.979" y="0.659124" width="77.7766" height="47.4569" stroke="#1B1B1B" stroke-width="1.31825"/>
<rect x="758.756" y="0.659124" width="77.7766" height="47.4569" stroke="#1B1B1B" stroke-width="1.31825"/>
<rect x="836.532" y="0.659124" width="77.7766" height="47.4569" stroke="#1B1B1B" stroke-width="1.31825"/>
<rect x="914.309" y="0.659124" width="77.7766" height="47.4569" stroke="#1B1B1B" stroke-width="1.31825"/>
<rect x="992.085" y="0.659124" width="77.7766" height="47.4569" stroke="#1B1B1B" stroke-width="1.31825"/>
<rect x="1069.86" y="0.659124" width="77.7766" height="47.4569" stroke="#1B1B1B" stroke-width="1.31825"/>
<rect x="1147.64" y="0.659124" width="77.7766" height="47.4569" stroke="#1B1B1B" stroke-width="1.31825"/>
<rect x="1225.42" y="0.659124" width="77.7766" height="47.4569" stroke="#1B1B1B" stroke-width="1.31825"/>
<rect x="1303.19" y="0.659124" width="77.7766" height="47.4569" stroke="#1B1B1B" stroke-width="1.31825"/>
<rect x="1380.97" y="0.659124" width="77.7766" height="47.4569" stroke="#1B1B1B" stroke-width="1.31825"/>
<rect x="-19.0108" y="48.1159" width="77.7766" height="47.4569" stroke="#1B1B1B" stroke-width="1.31825"/>
<rect x="58.7658" y="48.1159" width="77.7766" height="47.4569" stroke="#1B1B1B" stroke-width="1.31825"/>
<rect x="136.542" y="48.1159" width="77.7766" height="47.4569" stroke="#1B1B1B" stroke-width="1.31825"/>
<rect x="214.319" y="48.1159" width="77.7766" height="47.4569" stroke="#1B1B1B" stroke-width="1.31825"/>
<rect x="292.096" y="48.1159" width="77.7766" height="47.4569" stroke="#1B1B1B" stroke-width="1.31825"/>
<rect x="369.872" y="48.1159" width="77.7766" height="47.4569" stroke="#1B1B1B" stroke-width="1.31825"/>
<rect x="447.649" y="48.1159" width="77.7766" height="47.4569" stroke="#1B1B1B" stroke-width="1.31825"/>
<rect x="525.426" y="48.1159" width="77.7766" height="47.4569" stroke="#1B1B1B" stroke-width="1.31825"/>
<rect x="603.202" y="48.1159" width="77.7766" height="47.4569" stroke="#1B1B1B" stroke-width="1.31825"/>
<rect x="680.979" y="48.1159" width="77.7766" height="47.4569" stroke="#1B1B1B" stroke-width="1.31825"/>
<rect x="758.756" y="48.1159" width="77.7766" height="47.4569" stroke="#1B1B1B" stroke-width="1.31825"/>
<rect x="836.532" y="48.1159" width="77.7766" height="47.4569" stroke="#1B1B1B" stroke-width="1.31825"/>
<rect x="914.309" y="48.1159" width="77.7766" height="47.4569" stroke="#1B1B1B" stroke-width="1.31825"/>
<rect x="992.086" y="48.1159" width="77.7766" height="47.4569" stroke="#1B1B1B" stroke-width="1.31825"/>
<rect x="1069.86" y="48.1159" width="77.7766" height="47.4569" stroke="#1B1B1B" stroke-width="1.31825"/>
<rect x="1147.64" y="48.1159" width="77.7766" height="47.4569" stroke="#1B1B1B" stroke-width="1.31825"/>
<rect x="1225.42" y="48.1159" width="77.7766" height="47.4569" stroke="#1B1B1B" stroke-width="1.31825"/>
<rect x="1303.19" y="48.1159" width="77.7766" height="47.4569" stroke="#1B1B1B" stroke-width="1.31825"/>
<rect x="1380.97" y="48.1159" width="77.7766" height="47.4569" stroke="#1B1B1B" stroke-width="1.31825"/>
<rect x="-19.0108" y="95.5732" width="77.7766" height="47.4569" stroke="#1B1B1B" stroke-width="1.31825"/>
<rect x="58.7658" y="95.5732" width="77.7766" height="47.4569" stroke="#1B1B1B" stroke-width="1.31825"/>
<rect x="136.542" y="95.5732" width="77.7766" height="47.4569" stroke="#1B1B1B" stroke-width="1.31825"/>
<rect x="214.319" y="95.5732" width="77.7766" height="47.4569" stroke="#1B1B1B" stroke-width="1.31825"/>
<rect x="292.096" y="95.5732" width="77.7766" height="47.4569" stroke="#1B1B1B" stroke-width="1.31825"/>
<rect x="369.872" y="95.5732" width="77.7766" height="47.4569" stroke="#1B1B1B" stroke-width="1.31825"/>
<rect x="447.649" y="95.5732" width="77.7766" height="47.4569" stroke="#1B1B1B" stroke-width="1.31825"/>
<rect x="525.426" y="95.5732" width="77.7766" height="47.4569" stroke="#1B1B1B" stroke-width="1.31825"/>
<rect x="603.202" y="95.5732" width="77.7766" height="47.4569" stroke="#1B1B1B" stroke-width="1.31825"/>
<rect x="680.979" y="95.5732" width="77.7766" height="47.4569" stroke="#1B1B1B" stroke-width="1.31825"/>
<rect x="758.756" y="95.5732" width="77.7766" height="47.4569" stroke="#1B1B1B" stroke-width="1.31825"/>
<rect x="836.532" y="95.5732" width="77.7766" height="47.4569" stroke="#1B1B1B" stroke-width="1.31825"/>
<rect x="914.309" y="95.5732" width="77.7766" height="47.4569" stroke="#1B1B1B" stroke-width="1.31825"/>
<rect x="992.086" y="95.5732" width="77.7766" height="47.4569" stroke="#1B1B1B" stroke-width="1.31825"/>
<rect x="1069.86" y="95.5732" width="77.7766" height="47.4569" stroke="#1B1B1B" stroke-width="1.31825"/>
<rect x="1147.64" y="95.5732" width="77.7766" height="47.4569" stroke="#1B1B1B" stroke-width="1.31825"/>
<rect x="1225.42" y="95.5732" width="77.7766" height="47.4569" stroke="#1B1B1B" stroke-width="1.31825"/>
<rect x="1303.19" y="95.5732" width="77.7766" height="47.4569" stroke="#1B1B1B" stroke-width="1.31825"/>
<rect x="1380.97" y="95.5732" width="77.7766" height="47.4569" stroke="#1B1B1B" stroke-width="1.31825"/>
<rect x="-19.0108" y="143.03" width="77.7766" height="47.4569" stroke="#1B1B1B" stroke-width="1.31825"/>
<rect x="58.7656" y="143.03" width="77.7766" height="47.4569" stroke="#1B1B1B" stroke-width="1.31825"/>
<rect x="136.542" y="143.03" width="77.7766" height="47.4569" stroke="#1B1B1B" stroke-width="1.31825"/>
<rect x="214.319" y="143.03" width="77.7766" height="47.4569" stroke="#1B1B1B" stroke-width="1.31825"/>
<rect x="292.096" y="143.03" width="77.7766" height="47.4569" stroke="#1B1B1B" stroke-width="1.31825"/>
<rect x="369.872" y="143.03" width="77.7766" height="47.4569" stroke="#1B1B1B" stroke-width="1.31825"/>
<rect x="447.649" y="143.03" width="77.7766" height="47.4569" stroke="#1B1B1B" stroke-width="1.31825"/>
<rect x="525.425" y="143.03" width="77.7766" height="47.4569" stroke="#1B1B1B" stroke-width="1.31825"/>
<rect x="603.202" y="143.03" width="77.7766" height="47.4569" stroke="#1B1B1B" stroke-width="1.31825"/>
<rect x="680.979" y="143.03" width="77.7766" height="47.4569" stroke="#1B1B1B" stroke-width="1.31825"/>
<rect x="758.756" y="143.03" width="77.7766" height="47.4569" stroke="#1B1B1B" stroke-width="1.31825"/>
<rect x="836.532" y="143.03" width="77.7766" height="47.4569" stroke="#1B1B1B" stroke-width="1.31825"/>
<rect x="914.309" y="143.03" width="77.7766" height="47.4569" stroke="#1B1B1B" stroke-width="1.31825"/>
<rect x="992.085" y="143.03" width="77.7766" height="47.4569" stroke="#1B1B1B" stroke-width="1.31825"/>
<rect x="1069.86" y="143.03" width="77.7766" height="47.4569" stroke="#1B1B1B" stroke-width="1.31825"/>
<rect x="1147.64" y="143.03" width="77.7766" height="47.4569" stroke="#1B1B1B" stroke-width="1.31825"/>
<rect x="1225.42" y="143.03" width="77.7766" height="47.4569" stroke="#1B1B1B" stroke-width="1.31825"/>
<rect x="1303.19" y="143.03" width="77.7766" height="47.4569" stroke="#1B1B1B" stroke-width="1.31825"/>
<rect x="1380.97" y="143.03" width="77.7766" height="47.4569" stroke="#1B1B1B" stroke-width="1.31825"/>
<rect x="-19.0108" y="190.487" width="77.7766" height="47.4569" stroke="#1B1B1B" stroke-width="1.31825"/>
<rect x="58.7658" y="190.487" width="77.7766" height="47.4569" stroke="#1B1B1B" stroke-width="1.31825"/>
<rect x="136.542" y="190.487" width="77.7766" height="47.4569" stroke="#1B1B1B" stroke-width="1.31825"/>
<rect x="214.319" y="190.487" width="77.7766" height="47.4569" stroke="#1B1B1B" stroke-width="1.31825"/>
<rect x="292.096" y="190.487" width="77.7766" height="47.4569" stroke="#1B1B1B" stroke-width="1.31825"/>
<rect x="369.872" y="190.487" width="77.7766" height="47.4569" stroke="#1B1B1B" stroke-width="1.31825"/>
<rect x="447.649" y="190.487" width="77.7766" height="47.4569" stroke="#1B1B1B" stroke-width="1.31825"/>
<rect x="525.426" y="190.487" width="77.7766" height="47.4569" stroke="#1B1B1B" stroke-width="1.31825"/>
<rect x="603.202" y="190.487" width="77.7766" height="47.4569" stroke="#1B1B1B" stroke-width="1.31825"/>
<rect x="680.979" y="190.487" width="77.7766" height="47.4569" stroke="#1B1B1B" stroke-width="1.31825"/>
<rect x="758.756" y="190.487" width="77.7766" height="47.4569" stroke="#1B1B1B" stroke-width="1.31825"/>
<rect x="836.532" y="190.487" width="77.7766" height="47.4569" stroke="#1B1B1B" stroke-width="1.31825"/>
<rect x="914.309" y="190.487" width="77.7766" height="47.4569" stroke="#1B1B1B" stroke-width="1.31825"/>
<rect x="992.086" y="190.487" width="77.7766" height="47.4569" stroke="#1B1B1B" stroke-width="1.31825"/>
<rect x="1069.86" y="190.487" width="77.7766" height="47.4569" stroke="#1B1B1B" stroke-width="1.31825"/>
<rect x="1147.64" y="190.487" width="77.7766" height="47.4569" stroke="#1B1B1B" stroke-width="1.31825"/>
<rect x="1225.42" y="190.487" width="77.7766" height="47.4569" stroke="#1B1B1B" stroke-width="1.31825"/>
<rect x="1303.19" y="190.487" width="77.7766" height="47.4569" stroke="#1B1B1B" stroke-width="1.31825"/>
<rect x="1380.97" y="190.487" width="77.7766" height="47.4569" stroke="#1B1B1B" stroke-width="1.31825"/>
<rect x="-19.0108" y="237.944" width="77.7766" height="47.4569" stroke="#1B1B1B" stroke-width="1.31825"/>
<rect x="58.7656" y="237.944" width="77.7766" height="47.4569" stroke="#1B1B1B" stroke-width="1.31825"/>
<rect x="136.542" y="237.944" width="77.7766" height="47.4569" stroke="#1B1B1B" stroke-width="1.31825"/>
<rect x="214.319" y="237.944" width="77.7766" height="47.4569" stroke="#1B1B1B" stroke-width="1.31825"/>
<rect x="292.096" y="237.944" width="77.7766" height="47.4569" stroke="#1B1B1B" stroke-width="1.31825"/>
<rect x="369.872" y="237.944" width="77.7766" height="47.4569" stroke="#1B1B1B" stroke-width="1.31825"/>
<rect x="447.649" y="237.944" width="77.7766" height="47.4569" stroke="#1B1B1B" stroke-width="1.31825"/>
<rect x="525.425" y="237.944" width="77.7766" height="47.4569" stroke="#1B1B1B" stroke-width="1.31825"/>
<rect x="603.202" y="237.944" width="77.7766" height="47.4569" stroke="#1B1B1B" stroke-width="1.31825"/>
<rect x="680.979" y="237.944" width="77.7766" height="47.4569" stroke="#1B1B1B" stroke-width="1.31825"/>
<rect x="758.756" y="237.944" width="77.7766" height="47.4569" stroke="#1B1B1B" stroke-width="1.31825"/>
<rect x="836.532" y="237.944" width="77.7766" height="47.4569" stroke="#1B1B1B" stroke-width="1.31825"/>
<rect x="914.309" y="237.944" width="77.7766" height="47.4569" stroke="#1B1B1B" stroke-width="1.31825"/>
<rect x="992.085" y="237.944" width="77.7766" height="47.4569" stroke="#1B1B1B" stroke-width="1.31825"/>
<rect x="1069.86" y="237.944" width="77.7766" height="47.4569" stroke="#1B1B1B" stroke-width="1.31825"/>
<rect x="1147.64" y="237.944" width="77.7766" height="47.4569" stroke="#1B1B1B" stroke-width="1.31825"/>
<rect x="1225.42" y="237.944" width="77.7766" height="47.4569" stroke="#1B1B1B" stroke-width="1.31825"/>
<rect x="1303.19" y="237.944" width="77.7766" height="47.4569" stroke="#1B1B1B" stroke-width="1.31825"/>
<rect x="1380.97" y="237.944" width="77.7766" height="47.4569" stroke="#1B1B1B" stroke-width="1.31825"/>
<rect x="-19.0108" y="285.401" width="77.7766" height="47.4569" stroke="#1B1B1B" stroke-width="1.31825"/>
<rect x="58.7656" y="285.401" width="77.7766" height="47.4569" stroke="#1B1B1B" stroke-width="1.31825"/>
<rect x="136.542" y="285.401" width="77.7766" height="47.4569" stroke="#1B1B1B" stroke-width="1.31825"/>
<rect x="214.319" y="285.401" width="77.7766" height="47.4569" stroke="#1B1B1B" stroke-width="1.31825"/>
<rect x="292.096" y="285.401" width="77.7766" height="47.4569" stroke="#1B1B1B" stroke-width="1.31825"/>
<rect x="369.872" y="285.401" width="77.7766" height="47.4569" stroke="#1B1B1B" stroke-width="1.31825"/>
<rect x="447.649" y="285.401" width="77.7766" height="47.4569" stroke="#1B1B1B" stroke-width="1.31825"/>
<rect x="525.425" y="285.401" width="77.7766" height="47.4569" stroke="#1B1B1B" stroke-width="1.31825"/>
<rect x="603.202" y="285.401" width="77.7766" height="47.4569" stroke="#1B1B1B" stroke-width="1.31825"/>
<rect x="680.979" y="285.401" width="77.7766" height="47.4569" stroke="#1B1B1B" stroke-width="1.31825"/>
<rect x="758.756" y="285.401" width="77.7766" height="47.4569" stroke="#1B1B1B" stroke-width="1.31825"/>
<rect x="836.532" y="285.401" width="77.7766" height="47.4569" stroke="#1B1B1B" stroke-width="1.31825"/>
<rect x="914.309" y="285.401" width="77.7766" height="47.4569" stroke="#1B1B1B" stroke-width="1.31825"/>
<rect x="992.085" y="285.401" width="77.7766" height="47.4569" stroke="#1B1B1B" stroke-width="1.31825"/>
<rect x="1069.86" y="285.401" width="77.7766" height="47.4569" stroke="#1B1B1B" stroke-width="1.31825"/>
<rect x="1147.64" y="285.401" width="77.7766" height="47.4569" stroke="#1B1B1B" stroke-width="1.31825"/>
<rect x="1225.42" y="285.401" width="77.7766" height="47.4569" stroke="#1B1B1B" stroke-width="1.31825"/>
<rect x="1303.19" y="285.401" width="77.7766" height="47.4569" stroke="#1B1B1B" stroke-width="1.31825"/>
<rect x="1380.97" y="285.401" width="77.7766" height="47.4569" stroke="#1B1B1B" stroke-width="1.31825"/>
<rect x="-19.0108" y="332.858" width="77.7766" height="47.4569" stroke="#1B1B1B" stroke-width="1.31825"/>
<rect x="58.7658" y="332.858" width="77.7766" height="47.4569" stroke="#1B1B1B" stroke-width="1.31825"/>
<rect x="136.542" y="332.858" width="77.7766" height="47.4569" stroke="#1B1B1B" stroke-width="1.31825"/>
<rect x="214.319" y="332.858" width="77.7766" height="47.4569" stroke="#1B1B1B" stroke-width="1.31825"/>
<rect x="292.096" y="332.858" width="77.7766" height="47.4569" stroke="#1B1B1B" stroke-width="1.31825"/>
<rect x="369.872" y="332.858" width="77.7766" height="47.4569" stroke="#1B1B1B" stroke-width="1.31825"/>
<rect x="447.649" y="332.858" width="77.7766" height="47.4569" stroke="#1B1B1B" stroke-width="1.31825"/>
<rect x="525.426" y="332.858" width="77.7766" height="47.4569" stroke="#1B1B1B" stroke-width="1.31825"/>
<rect x="603.202" y="332.858" width="77.7766" height="47.4569" stroke="#1B1B1B" stroke-width="1.31825"/>
<rect x="680.979" y="332.858" width="77.7766" height="47.4569" stroke="#1B1B1B" stroke-width="1.31825"/>
<rect x="758.756" y="332.858" width="77.7766" height="47.4569" stroke="#1B1B1B" stroke-width="1.31825"/>
<rect x="836.532" y="332.858" width="77.7766" height="47.4569" stroke="#1B1B1B" stroke-width="1.31825"/>
<rect x="914.309" y="332.858" width="77.7766" height="47.4569" stroke="#1B1B1B" stroke-width="1.31825"/>
<rect x="992.086" y="332.858" width="77.7766" height="47.4569" stroke="#1B1B1B" stroke-width="1.31825"/>
<rect x="1069.86" y="332.858" width="77.7766" height="47.4569" stroke="#1B1B1B" stroke-width="1.31825"/>
<rect x="1147.64" y="332.858" width="77.7766" height="47.4569" stroke="#1B1B1B" stroke-width="1.31825"/>
<rect x="1225.42" y="332.858" width="77.7766" height="47.4569" stroke="#1B1B1B" stroke-width="1.31825"/>
<rect x="1303.19" y="332.858" width="77.7766" height="47.4569" stroke="#1B1B1B" stroke-width="1.31825"/>
<rect x="1380.97" y="332.858" width="77.7766" height="47.4569" stroke="#1B1B1B" stroke-width="1.31825"/>
<rect x="-19.0108" y="380.314" width="77.7766" height="47.4569" stroke="#1B1B1B" stroke-width="1.31825"/>
<rect x="58.7656" y="380.314" width="77.7766" height="47.4569" stroke="#1B1B1B" stroke-width="1.31825"/>
<rect x="136.542" y="380.314" width="77.7766" height="47.4569" stroke="#1B1B1B" stroke-width="1.31825"/>
<rect x="214.319" y="380.314" width="77.7766" height="47.4569" stroke="#1B1B1B" stroke-width="1.31825"/>
<rect x="292.096" y="380.315" width="77.7766" height="47.4569" stroke="#1B1B1B" stroke-width="1.31825"/>
<rect x="369.872" y="380.315" width="77.7766" height="47.4569" stroke="#1B1B1B" stroke-width="1.31825"/>
<rect x="447.649" y="380.314" width="77.7766" height="47.4569" stroke="#1B1B1B" stroke-width="1.31825"/>
<rect x="525.425" y="380.314" width="77.7766" height="47.4569" stroke="#1B1B1B" stroke-width="1.31825"/>
<rect x="603.202" y="380.315" width="77.7766" height="47.4569" stroke="#1B1B1B" stroke-width="1.31825"/>
<rect x="680.979" y="380.314" width="77.7766" height="47.4569" stroke="#1B1B1B" stroke-width="1.31825"/>
<rect x="758.756" y="380.314" width="77.7766" height="47.4569" stroke="#1B1B1B" stroke-width="1.31825"/>
<rect x="836.532" y="380.314" width="77.7766" height="47.4569" stroke="#1B1B1B" stroke-width="1.31825"/>
<rect x="914.309" y="380.314" width="77.7766" height="47.4569" stroke="#1B1B1B" stroke-width="1.31825"/>
<rect x="992.085" y="380.314" width="77.7766" height="47.4569" stroke="#1B1B1B" stroke-width="1.31825"/>
<rect x="1069.86" y="380.314" width="77.7766" height="47.4569" stroke="#1B1B1B" stroke-width="1.31825"/>
<rect x="1147.64" y="380.314" width="77.7766" height="47.4569" stroke="#1B1B1B" stroke-width="1.31825"/>
<rect x="1225.42" y="380.314" width="77.7766" height="47.4569" stroke="#1B1B1B" stroke-width="1.31825"/>
<rect x="1303.19" y="380.314" width="77.7766" height="47.4569" stroke="#1B1B1B" stroke-width="1.31825"/>
<rect x="1380.97" y="380.314" width="77.7766" height="47.4569" stroke="#1B1B1B" stroke-width="1.31825"/>
<rect x="-19.0108" y="427.771" width="77.7766" height="47.4569" stroke="#1B1B1B" stroke-width="1.31825"/>
<rect x="58.7658" y="427.771" width="77.7766" height="47.4569" stroke="#1B1B1B" stroke-width="1.31825"/>
<rect x="136.542" y="427.771" width="77.7766" height="47.4569" stroke="#1B1B1B" stroke-width="1.31825"/>
<rect x="214.319" y="427.771" width="77.7766" height="47.4569" stroke="#1B1B1B" stroke-width="1.31825"/>
<rect x="292.096" y="427.771" width="77.7766" height="47.4569" stroke="#1B1B1B" stroke-width="1.31825"/>
<rect x="369.872" y="427.771" width="77.7766" height="47.4569" stroke="#1B1B1B" stroke-width="1.31825"/>
<rect x="447.649" y="427.771" width="77.7766" height="47.4569" stroke="#1B1B1B" stroke-width="1.31825"/>
<rect x="525.426" y="427.771" width="77.7766" height="47.4569" stroke="#1B1B1B" stroke-width="1.31825"/>
<rect x="603.202" y="427.771" width="77.7766" height="47.4569" stroke="#1B1B1B" stroke-width="1.31825"/>
<rect x="680.979" y="427.771" width="77.7766" height="47.4569" stroke="#1B1B1B" stroke-width="1.31825"/>
<rect x="758.756" y="427.771" width="77.7766" height="47.4569" stroke="#1B1B1B" stroke-width="1.31825"/>
<rect x="836.532" y="427.771" width="77.7766" height="47.4569" stroke="#1B1B1B" stroke-width="1.31825"/>
<rect x="914.309" y="427.771" width="77.7766" height="47.4569" stroke="#1B1B1B" stroke-width="1.31825"/>
<rect x="992.086" y="427.771" width="77.7766" height="47.4569" stroke="#1B1B1B" stroke-width="1.31825"/>
<rect x="1069.86" y="427.771" width="77.7766" height="47.4569" stroke="#1B1B1B" stroke-width="1.31825"/>
<rect x="1147.64" y="427.771" width="77.7766" height="47.4569" stroke="#1B1B1B" stroke-width="1.31825"/>
<rect x="1225.42" y="427.771" width="77.7766" height="47.4569" stroke="#1B1B1B" stroke-width="1.31825"/>
<rect x="1303.19" y="427.771" width="77.7766" height="47.4569" stroke="#1B1B1B" stroke-width="1.31825"/>
<rect x="1380.97" y="427.771" width="77.7766" height="47.4569" stroke="#1B1B1B" stroke-width="1.31825"/>
<rect x="-19.0108" y="475.228" width="77.7766" height="47.4569" stroke="#1B1B1B" stroke-width="1.31825"/>
<rect x="58.7656" y="475.228" width="77.7766" height="47.4569" stroke="#1B1B1B" stroke-width="1.31825"/>
<rect x="136.542" y="475.228" width="77.7766" height="47.4569" stroke="#1B1B1B" stroke-width="1.31825"/>
<rect x="214.319" y="475.228" width="77.7766" height="47.4569" stroke="#1B1B1B" stroke-width="1.31825"/>
<rect x="292.096" y="475.228" width="77.7766" height="47.4569" stroke="#1B1B1B" stroke-width="1.31825"/>
<rect x="369.872" y="475.228" width="77.7766" height="47.4569" stroke="#1B1B1B" stroke-width="1.31825"/>
<rect x="447.649" y="475.228" width="77.7766" height="47.4569" stroke="#1B1B1B" stroke-width="1.31825"/>
<rect x="525.425" y="475.228" width="77.7766" height="47.4569" stroke="#1B1B1B" stroke-width="1.31825"/>
<rect x="603.202" y="475.228" width="77.7766" height="47.4569" stroke="#1B1B1B" stroke-width="1.31825"/>
<rect x="680.979" y="475.228" width="77.7766" height="47.4569" stroke="#1B1B1B" stroke-width="1.31825"/>
<rect x="758.756" y="475.228" width="77.7766" height="47.4569" stroke="#1B1B1B" stroke-width="1.31825"/>
<rect x="836.532" y="475.228" width="77.7766" height="47.4569" stroke="#1B1B1B" stroke-width="1.31825"/>
<rect x="914.309" y="475.228" width="77.7766" height="47.4569" stroke="#1B1B1B" stroke-width="1.31825"/>
<rect x="992.085" y="475.228" width="77.7766" height="47.4569" stroke="#1B1B1B" stroke-width="1.31825"/>
<rect x="1069.86" y="475.228" width="77.7766" height="47.4569" stroke="#1B1B1B" stroke-width="1.31825"/>
<rect x="1147.64" y="475.228" width="77.7766" height="47.4569" stroke="#1B1B1B" stroke-width="1.31825"/>
<rect x="1225.42" y="475.228" width="77.7766" height="47.4569" stroke="#1B1B1B" stroke-width="1.31825"/>
<rect x="1303.19" y="475.228" width="77.7766" height="47.4569" stroke="#1B1B1B" stroke-width="1.31825"/>
<rect x="1380.97" y="475.228" width="77.7766" height="47.4569" stroke="#1B1B1B" stroke-width="1.31825"/>
<rect x="-19.0108" y="522.685" width="77.7766" height="47.4569" stroke="#1B1B1B" stroke-width="1.31825"/>
<rect x="58.7656" y="522.685" width="77.7766" height="47.4569" stroke="#1B1B1B" stroke-width="1.31825"/>
<rect x="136.542" y="522.685" width="77.7766" height="47.4569" stroke="#1B1B1B" stroke-width="1.31825"/>
<rect x="214.319" y="522.685" width="77.7766" height="47.4569" stroke="#1B1B1B" stroke-width="1.31825"/>
<rect x="292.096" y="522.685" width="77.7766" height="47.4569" stroke="#1B1B1B" stroke-width="1.31825"/>
<rect x="369.872" y="522.685" width="77.7766" height="47.4569" stroke="#1B1B1B" stroke-width="1.31825"/>
<rect x="447.649" y="522.685" width="77.7766" height="47.4569" stroke="#1B1B1B" stroke-width="1.31825"/>
<rect x="525.425" y="522.685" width="77.7766" height="47.4569" stroke="#1B1B1B" stroke-width="1.31825"/>
<rect x="603.202" y="522.685" width="77.7766" height="47.4569" stroke="#1B1B1B" stroke-width="1.31825"/>
<rect x="680.979" y="522.685" width="77.7766" height="47.4569" stroke="#1B1B1B" stroke-width="1.31825"/>
<rect x="758.756" y="522.685" width="77.7766" height="47.4569" stroke="#1B1B1B" stroke-width="1.31825"/>
<rect x="836.532" y="522.685" width="77.7766" height="47.4569" stroke="#1B1B1B" stroke-width="1.31825"/>
<rect x="914.309" y="522.685" width="77.7766" height="47.4569" stroke="#1B1B1B" stroke-width="1.31825"/>
<rect x="992.085" y="522.685" width="77.7766" height="47.4569" stroke="#1B1B1B" stroke-width="1.31825"/>
<rect x="1069.86" y="522.685" width="77.7766" height="47.4569" stroke="#1B1B1B" stroke-width="1.31825"/>
<rect x="1147.64" y="522.685" width="77.7766" height="47.4569" stroke="#1B1B1B" stroke-width="1.31825"/>
<rect x="1225.42" y="522.685" width="77.7766" height="47.4569" stroke="#1B1B1B" stroke-width="1.31825"/>
<rect x="1303.19" y="522.685" width="77.7766" height="47.4569" stroke="#1B1B1B" stroke-width="1.31825"/>
<rect x="1380.97" y="522.685" width="77.7766" height="47.4569" stroke="#1B1B1B" stroke-width="1.31825"/>
<rect x="-19.0108" y="570.142" width="77.7766" height="47.4569" stroke="#1B1B1B" stroke-width="1.31825"/>
<rect x="58.7658" y="570.142" width="77.7766" height="47.4569" stroke="#1B1B1B" stroke-width="1.31825"/>
<rect x="136.542" y="570.142" width="77.7766" height="47.4569" stroke="#1B1B1B" stroke-width="1.31825"/>
<rect x="214.319" y="570.142" width="77.7766" height="47.4569" stroke="#1B1B1B" stroke-width="1.31825"/>
<rect x="292.096" y="570.142" width="77.7766" height="47.4569" stroke="#1B1B1B" stroke-width="1.31825"/>
<rect x="369.872" y="570.142" width="77.7766" height="47.4569" stroke="#1B1B1B" stroke-width="1.31825"/>
<rect x="447.649" y="570.142" width="77.7766" height="47.4569" stroke="#1B1B1B" stroke-width="1.31825"/>
<rect x="525.426" y="570.142" width="77.7766" height="47.4569" stroke="#1B1B1B" stroke-width="1.31825"/>
<rect x="603.202" y="570.142" width="77.7766" height="47.4569" stroke="#1B1B1B" stroke-width="1.31825"/>
<rect x="680.979" y="570.142" width="77.7766" height="47.4569" stroke="#1B1B1B" stroke-width="1.31825"/>
<rect x="758.756" y="570.142" width="77.7766" height="47.4569" stroke="#1B1B1B" stroke-width="1.31825"/>
<rect x="836.532" y="570.142" width="77.7766" height="47.4569" stroke="#1B1B1B" stroke-width="1.31825"/>
<rect x="914.309" y="570.142" width="77.7766" height="47.4569" stroke="#1B1B1B" stroke-width="1.31825"/>
<rect x="992.086" y="570.142" width="77.7766" height="47.4569" stroke="#1B1B1B" stroke-width="1.31825"/>
<rect x="1069.86" y="570.142" width="77.7766" height="47.4569" stroke="#1B1B1B" stroke-width="1.31825"/>
<rect x="1147.64" y="570.142" width="77.7766" height="47.4569" stroke="#1B1B1B" stroke-width="1.31825"/>
<rect x="1225.42" y="570.142" width="77.7766" height="47.4569" stroke="#1B1B1B" stroke-width="1.31825"/>
<rect x="1303.19" y="570.142" width="77.7766" height="47.4569" stroke="#1B1B1B" stroke-width="1.31825"/>
<rect x="1380.97" y="570.142" width="77.7766" height="47.4569" stroke="#1B1B1B" stroke-width="1.31825"/>
<rect x="-19.0108" y="617.599" width="77.7766" height="47.4569" stroke="#1B1B1B" stroke-width="1.31825"/>
<rect x="58.7656" y="617.599" width="77.7766" height="47.4569" stroke="#1B1B1B" stroke-width="1.31825"/>
<rect x="136.542" y="617.599" width="77.7766" height="47.4569" stroke="#1B1B1B" stroke-width="1.31825"/>
<rect x="214.319" y="617.599" width="77.7766" height="47.4569" stroke="#1B1B1B" stroke-width="1.31825"/>
<rect x="292.096" y="617.599" width="77.7766" height="47.4569" stroke="#1B1B1B" stroke-width="1.31825"/>
<rect x="369.872" y="617.599" width="77.7766" height="47.4569" stroke="#1B1B1B" stroke-width="1.31825"/>
<rect x="447.649" y="617.599" width="77.7766" height="47.4569" stroke="#1B1B1B" stroke-width="1.31825"/>
<rect x="525.425" y="617.599" width="77.7766" height="47.4569" stroke="#1B1B1B" stroke-width="1.31825"/>
<rect x="603.202" y="617.599" width="77.7766" height="47.4569" stroke="#1B1B1B" stroke-width="1.31825"/>
<rect x="680.979" y="617.599" width="77.7766" height="47.4569" stroke="#1B1B1B" stroke-width="1.31825"/>
<rect x="758.756" y="617.599" width="77.7766" height="47.4569" stroke="#1B1B1B" stroke-width="1.31825"/>
<rect x="836.532" y="617.599" width="77.7766" height="47.4569" stroke="#1B1B1B" stroke-width="1.31825"/>
<rect x="914.309" y="617.599" width="77.7766" height="47.4569" stroke="#1B1B1B" stroke-width="1.31825"/>
<rect x="992.085" y="617.599" width="77.7766" height="47.4569" stroke="#1B1B1B" stroke-width="1.31825"/>
<rect x="1069.86" y="617.599" width="77.7766" height="47.4569" stroke="#1B1B1B" stroke-width="1.31825"/>
<rect x="1147.64" y="617.599" width="77.7766" height="47.4569" stroke="#1B1B1B" stroke-width="1.31825"/>
<rect x="1225.42" y="617.599" width="77.7766" height="47.4569" stroke="#1B1B1B" stroke-width="1.31825"/>
<rect x="1303.19" y="617.599" width="77.7766" height="47.4569" stroke="#1B1B1B" stroke-width="1.31825"/>
<rect x="1380.97" y="617.599" width="77.7766" height="47.4569" stroke="#1B1B1B" stroke-width="1.31825"/>
<rect x="-19.0108" y="665.056" width="77.7766" height="47.4569" stroke="#1B1B1B" stroke-width="1.31825"/>
<rect x="58.7656" y="665.056" width="77.7766" height="47.4569" stroke="#1B1B1B" stroke-width="1.31825"/>
<rect x="136.542" y="665.056" width="77.7766" height="47.4569" stroke="#1B1B1B" stroke-width="1.31825"/>
<rect x="214.319" y="665.056" width="77.7766" height="47.4569" stroke="#1B1B1B" stroke-width="1.31825"/>
<rect x="292.096" y="665.056" width="77.7766" height="47.4569" stroke="#1B1B1B" stroke-width="1.31825"/>
<rect x="369.872" y="665.056" width="77.7766" height="47.4569" stroke="#1B1B1B" stroke-width="1.31825"/>
<rect x="447.649" y="665.056" width="77.7766" height="47.4569" stroke="#1B1B1B" stroke-width="1.31825"/>
<rect x="525.425" y="665.056" width="77.7766" height="47.4569" stroke="#1B1B1B" stroke-width="1.31825"/>
<rect x="603.202" y="665.056" width="77.7766" height="47.4569" stroke="#1B1B1B" stroke-width="1.31825"/>
<rect x="680.979" y="665.056" width="77.7766" height="47.4569" stroke="#1B1B1B" stroke-width="1.31825"/>
<rect x="758.756" y="665.056" width="77.7766" height="47.4569" stroke="#1B1B1B" stroke-width="1.31825"/>
<rect x="836.532" y="665.056" width="77.7766" height="47.4569" stroke="#1B1B1B" stroke-width="1.31825"/>
<rect x="914.309" y="665.056" width="77.7766" height="47.4569" stroke="#1B1B1B" stroke-width="1.31825"/>
<rect x="992.085" y="665.056" width="77.7766" height="47.4569" stroke="#1B1B1B" stroke-width="1.31825"/>
<rect x="1069.86" y="665.056" width="77.7766" height="47.4569" stroke="#1B1B1B" stroke-width="1.31825"/>
<rect x="1147.64" y="665.056" width="77.7766" height="47.4569" stroke="#1B1B1B" stroke-width="1.31825"/>
<rect x="1225.42" y="665.056" width="77.7766" height="47.4569" stroke="#1B1B1B" stroke-width="1.31825"/>
<rect x="1303.19" y="665.056" width="77.7766" height="47.4569" stroke="#1B1B1B" stroke-width="1.31825"/>
<rect x="1380.97" y="665.056" width="77.7766" height="47.4569" stroke="#1B1B1B" stroke-width="1.31825"/>
<rect x="-19.0108" y="712.513" width="77.7766" height="47.4569" stroke="#1B1B1B" stroke-width="1.31825"/>
<rect x="58.7656" y="712.513" width="77.7766" height="47.4569" stroke="#1B1B1B" stroke-width="1.31825"/>
<rect x="136.542" y="712.513" width="77.7766" height="47.4569" stroke="#1B1B1B" stroke-width="1.31825"/>
<rect x="214.319" y="712.513" width="77.7766" height="47.4569" stroke="#1B1B1B" stroke-width="1.31825"/>
<rect x="292.096" y="712.513" width="77.7766" height="47.4569" stroke="#1B1B1B" stroke-width="1.31825"/>
<rect x="369.872" y="712.513" width="77.7766" height="47.4569" stroke="#1B1B1B" stroke-width="1.31825"/>
<rect x="447.649" y="712.513" width="77.7766" height="47.4569" stroke="#1B1B1B" stroke-width="1.31825"/>
<rect x="525.425" y="712.513" width="77.7766" height="47.4569" stroke="#1B1B1B" stroke-width="1.31825"/>
<rect x="603.202" y="712.513" width="77.7766" height="47.4569" stroke="#1B1B1B" stroke-width="1.31825"/>
<rect x="680.979" y="712.513" width="77.7766" height="47.4569" stroke="#1B1B1B" stroke-width="1.31825"/>
<rect x="758.756" y="712.513" width="77.7766" height="47.4569" stroke="#1B1B1B" stroke-width="1.31825"/>
<rect x="836.532" y="712.513" width="77.7766" height="47.4569" stroke="#1B1B1B" stroke-width="1.31825"/>
<rect x="914.309" y="712.513" width="77.7766" height="47.4569" stroke="#1B1B1B" stroke-width="1.31825"/>
<rect x="992.085" y="712.513" width="77.7766" height="47.4569" stroke="#1B1B1B" stroke-width="1.31825"/>
<rect x="1069.86" y="712.513" width="77.7766" height="47.4569" stroke="#1B1B1B" stroke-width="1.31825"/>
<rect x="1147.64" y="712.513" width="77.7766" height="47.4569" stroke="#1B1B1B" stroke-width="1.31825"/>
<rect x="1225.42" y="712.513" width="77.7766" height="47.4569" stroke="#1B1B1B" stroke-width="1.31825"/>
<rect x="1303.19" y="712.513" width="77.7766" height="47.4569" stroke="#1B1B1B" stroke-width="1.31825"/>
<rect x="1380.97" y="712.513" width="77.7766" height="47.4569" stroke="#1B1B1B" stroke-width="1.31825"/>
<rect x="-19.0108" y="759.97" width="77.7766" height="47.4569" stroke="#1B1B1B" stroke-width="1.31825"/>
<rect x="58.7656" y="759.97" width="77.7766" height="47.4569" stroke="#1B1B1B" stroke-width="1.31825"/>
<rect x="136.542" y="759.97" width="77.7766" height="47.4569" stroke="#1B1B1B" stroke-width="1.31825"/>
<rect x="214.319" y="759.97" width="77.7766" height="47.4569" stroke="#1B1B1B" stroke-width="1.31825"/>
<rect x="292.096" y="759.97" width="77.7766" height="47.4569" stroke="#1B1B1B" stroke-width="1.31825"/>
<rect x="369.872" y="759.97" width="77.7766" height="47.4569" stroke="#1B1B1B" stroke-width="1.31825"/>
<rect x="447.649" y="759.97" width="77.7766" height="47.4569" stroke="#1B1B1B" stroke-width="1.31825"/>
<rect x="525.425" y="759.97" width="77.7766" height="47.4569" stroke="#1B1B1B" stroke-width="1.31825"/>
<rect x="603.202" y="759.97" width="77.7766" height="47.4569" stroke="#1B1B1B" stroke-width="1.31825"/>
<rect x="680.979" y="759.97" width="77.7766" height="47.4569" stroke="#1B1B1B" stroke-width="1.31825"/>
<rect x="758.756" y="759.97" width="77.7766" height="47.4569" stroke="#1B1B1B" stroke-width="1.31825"/>
<rect x="836.532" y="759.97" width="77.7766" height="47.4569" stroke="#1B1B1B" stroke-width="1.31825"/>
<rect x="914.309" y="759.97" width="77.7766" height="47.4569" stroke="#1B1B1B" stroke-width="1.31825"/>
<rect x="992.085" y="759.97" width="77.7766" height="47.4569" stroke="#1B1B1B" stroke-width="1.31825"/>
<rect x="1069.86" y="759.97" width="77.7766" height="47.4569" stroke="#1B1B1B" stroke-width="1.31825"/>
<rect x="1147.64" y="759.97" width="77.7766" height="47.4569" stroke="#1B1B1B" stroke-width="1.31825"/>
<rect x="1225.42" y="759.97" width="77.7766" height="47.4569" stroke="#1B1B1B" stroke-width="1.31825"/>
<rect x="1303.19" y="759.97" width="77.7766" height="47.4569" stroke="#1B1B1B" stroke-width="1.31825"/>
<rect x="1380.97" y="759.97" width="77.7766" height="47.4569" stroke="#1B1B1B" stroke-width="1.31825"/>
<rect x="-19.0108" y="807.427" width="77.7766" height="47.4569" stroke="#1B1B1B" stroke-width="1.31825"/>
<rect x="58.7658" y="807.427" width="77.7766" height="47.4569" stroke="#1B1B1B" stroke-width="1.31825"/>
<rect x="136.542" y="807.427" width="77.7766" height="47.4569" stroke="#1B1B1B" stroke-width="1.31825"/>
<rect x="214.319" y="807.427" width="77.7766" height="47.4569" stroke="#1B1B1B" stroke-width="1.31825"/>
<rect x="292.096" y="807.427" width="77.7766" height="47.4569" stroke="#1B1B1B" stroke-width="1.31825"/>
<rect x="369.872" y="807.427" width="77.7766" height="47.4569" stroke="#1B1B1B" stroke-width="1.31825"/>
<rect x="447.649" y="807.427" width="77.7766" height="47.4569" stroke="#1B1B1B" stroke-width="1.31825"/>
<rect x="525.426" y="807.427" width="77.7766" height="47.4569" stroke="#1B1B1B" stroke-width="1.31825"/>
<rect x="603.202" y="807.427" width="77.7766" height="47.4569" stroke="#1B1B1B" stroke-width="1.31825"/>
<rect x="680.979" y="807.427" width="77.7766" height="47.4569" stroke="#1B1B1B" stroke-width="1.31825"/>
<rect x="758.756" y="807.427" width="77.7766" height="47.4569" stroke="#1B1B1B" stroke-width="1.31825"/>
<rect x="836.532" y="807.427" width="77.7766" height="47.4569" stroke="#1B1B1B" stroke-width="1.31825"/>
<rect x="914.309" y="807.427" width="77.7766" height="47.4569" stroke="#1B1B1B" stroke-width="1.31825"/>
<rect x="992.086" y="807.427" width="77.7766" height="47.4569" stroke="#1B1B1B" stroke-width="1.31825"/>
<rect x="1069.86" y="807.427" width="77.7766" height="47.4569" stroke="#1B1B1B" stroke-width="1.31825"/>
<rect x="1147.64" y="807.427" width="77.7766" height="47.4569" stroke="#1B1B1B" stroke-width="1.31825"/>
<rect x="1225.42" y="807.427" width="77.7766" height="47.4569" stroke="#1B1B1B" stroke-width="1.31825"/>
<rect x="1303.19" y="807.427" width="77.7766" height="47.4569" stroke="#1B1B1B" stroke-width="1.31825"/>
<rect x="1380.97" y="807.427" width="77.7766" height="47.4569" stroke="#1B1B1B" stroke-width="1.31825"/>
<rect x="-19.0108" y="854.884" width="77.7766" height="47.4569" stroke="#1B1B1B" stroke-width="1.31825"/>
<rect x="58.7656" y="854.884" width="77.7766" height="47.4569" stroke="#1B1B1B" stroke-width="1.31825"/>
<rect x="136.542" y="854.884" width="77.7766" height="47.4569" stroke="#1B1B1B" stroke-width="1.31825"/>
<rect x="214.319" y="854.884" width="77.7766" height="47.4569" stroke="#1B1B1B" stroke-width="1.31825"/>
<rect x="292.096" y="854.884" width="77.7766" height="47.4569" stroke="#1B1B1B" stroke-width="1.31825"/>
<rect x="369.872" y="854.884" width="77.7766" height="47.4569" stroke="#1B1B1B" stroke-width="1.31825"/>
<rect x="447.649" y="854.884" width="77.7766" height="47.4569" stroke="#1B1B1B" stroke-width="1.31825"/>
<rect x="525.425" y="854.884" width="77.7766" height="47.4569" stroke="#1B1B1B" stroke-width="1.31825"/>
<rect x="603.202" y="854.884" width="77.7766" height="47.4569" stroke="#1B1B1B" stroke-width="1.31825"/>
<rect x="680.979" y="854.884" width="77.7766" height="47.4569" stroke="#1B1B1B" stroke-width="1.31825"/>
<rect x="758.756" y="854.884" width="77.7766" height="47.4569" stroke="#1B1B1B" stroke-width="1.31825"/>
<rect x="836.532" y="854.884" width="77.7766" height="47.4569" stroke="#1B1B1B" stroke-width="1.31825"/>
<rect x="914.309" y="854.884" width="77.7766" height="47.4569" stroke="#1B1B1B" stroke-width="1.31825"/>
<rect x="992.085" y="854.884" width="77.7766" height="47.4569" stroke="#1B1B1B" stroke-width="1.31825"/>
<rect x="1069.86" y="854.884" width="77.7766" height="47.4569" stroke="#1B1B1B" stroke-width="1.31825"/>
<rect x="1147.64" y="854.884" width="77.7766" height="47.4569" stroke="#1B1B1B" stroke-width="1.31825"/>
<rect x="1225.42" y="854.884" width="77.7766" height="47.4569" stroke="#1B1B1B" stroke-width="1.31825"/>
<rect x="1303.19" y="854.884" width="77.7766" height="47.4569" stroke="#1B1B1B" stroke-width="1.31825"/>
<rect x="1380.97" y="854.884" width="77.7766" height="47.4569" stroke="#1B1B1B" stroke-width="1.31825"/>
<path d="M1225.5 238L1225.5 324" stroke="url(#paint0_linear_0_1)" stroke-linecap="round"/>
<path d="M292.5 238L292.5 324" stroke="url(#paint1_linear_0_1)" stroke-linecap="round"/>
<path d="M1182.5 381L1268.5 381" stroke="url(#paint2_linear_0_1)" stroke-linecap="round"/>
<path d="M658.5 381L572.5 381" stroke="url(#paint3_linear_0_1)" stroke-linecap="round"/>
<path d="M1147.5 48L1147.5 134" stroke="url(#paint4_linear_0_1)" stroke-linecap="round"/>
<path d="M681 12V70" stroke="url(#paint5_linear_0_1)" stroke-linecap="round"/>
<path d="M1069.5 428L1069.5 514" stroke="url(#paint6_linear_0_1)" stroke-linecap="round"/>
<defs>
<linearGradient id="paint0_linear_0_1" x1="-4.45302e+13" y1="233" x2="-4.45302e+13" y2="319.783" gradientUnits="userSpaceOnUse">
<stop stop-color="white"/>
<stop offset="1" stop-color="#999999" stop-opacity="0"/>
</linearGradient>
<linearGradient id="paint1_linear_0_1" x1="-4.45302e+13" y1="233" x2="-4.45302e+13" y2="319.783" gradientUnits="userSpaceOnUse">
<stop stop-color="white"/>
<stop offset="1" stop-color="#999999" stop-opacity="0"/>
</linearGradient>
<linearGradient id="paint2_linear_0_1" x1="1.94766e+06" y1="4.45302e+13" x2="1.94774e+06" y2="4.45302e+13" gradientUnits="userSpaceOnUse">
<stop stop-color="white"/>
<stop offset="1" stop-color="#999999" stop-opacity="0"/>
</linearGradient>
<linearGradient id="paint3_linear_0_1" x1="-1.94581e+06" y1="4.45302e+13" x2="-1.9459e+06" y2="4.45302e+13" gradientUnits="userSpaceOnUse">
<stop stop-color="white"/>
<stop offset="1" stop-color="#999999" stop-opacity="0"/>
</linearGradient>
<linearGradient id="paint4_linear_0_1" x1="-4.45302e+13" y1="43" x2="-4.45302e+13" y2="129.783" gradientUnits="userSpaceOnUse">
<stop stop-color="white"/>
<stop offset="1" stop-color="#999999" stop-opacity="0"/>
</linearGradient>
<linearGradient id="paint5_linear_0_1" x1="681" y1="9" x2="681" y2="37" gradientUnits="userSpaceOnUse">
<stop stop-color="white"/>
<stop offset="1" stop-color="#999999" stop-opacity="0"/>
</linearGradient>
<linearGradient id="paint6_linear_0_1" x1="-4.45302e+13" y1="423" x2="-4.45302e+13" y2="509.783" gradientUnits="userSpaceOnUse">
<stop stop-color="white"/>
<stop offset="1" stop-color="#999999" stop-opacity="0"/>
</linearGradient>
</defs>
</svg>
