<svg width="1344" height="396" viewBox="0 0 1344 396" fill="none" xmlns="http://www.w3.org/2000/svg">
<g clip-path="url(#clip0_148_2673)">
<rect width="1344" height="396" fill="black"/>
<g filter="url(#filter0_f_148_2673)">
<ellipse cx="42.6104" cy="173.248" rx="42.6104" ry="173.248" transform="matrix(-0.829554 -0.558427 -0.558427 0.829554 1393.19 -63.4105)" fill="#252525"/>
</g>
<g filter="url(#filter1_f_148_2673)">
<ellipse cx="42.6104" cy="173.248" rx="42.6104" ry="173.248" transform="matrix(1 0 0 -1 1017.57 65.9932)" fill="#252525"/>
</g>
<circle cx="592" cy="189" r="1" fill="#3D3D3D"/>
<circle cx="620" cy="301" r="1" fill="#3D3D3D"/>
<circle cx="588" cy="342" r="1" fill="#3D3D3D"/>
<circle cx="536" cy="251" r="1" fill="#3D3D3D"/>
<circle cx="536" cy="303" r="1" fill="#3D3D3D"/>
<circle cx="536" cy="355" r="1" fill="#3D3D3D"/>
<circle cx="452" cy="201" r="1" fill="#3D3D3D"/>
<circle cx="748" cy="251" r="1" fill="#3D3D3D"/>
<circle cx="675" cy="205" r="1" fill="#3D3D3D"/>
<circle cx="602" cy="159" r="1" fill="#3D3D3D"/>
<circle cx="529" cy="113" r="1" fill="#3D3D3D"/>
<circle cx="1139" cy="189" r="1" fill="#3D3D3D"/>
<circle cx="1167" cy="301" r="1" fill="#3D3D3D"/>
<circle cx="1135" cy="342" r="1" fill="#3D3D3D"/>
<circle cx="1083" cy="251" r="1" fill="#3D3D3D"/>
<circle cx="1083" cy="303" r="1" fill="#3D3D3D"/>
<circle cx="1083" cy="355" r="1" fill="#3D3D3D"/>
<circle cx="999" cy="201" r="1" fill="#3D3D3D"/>
<circle cx="1295" cy="251" r="1" fill="#3D3D3D"/>
<circle cx="1222" cy="205" r="1" fill="#3D3D3D"/>
<circle cx="1149" cy="159" r="1" fill="#3D3D3D"/>
<circle cx="1076" cy="113" r="1" fill="#3D3D3D"/>
<circle cx="993" cy="84" r="1" fill="#3D3D3D"/>
<circle cx="1021" cy="196" r="1" fill="#3D3D3D"/>
<circle cx="989" cy="237" r="1" fill="#3D3D3D"/>
<circle cx="937" cy="146" r="1" fill="#3D3D3D"/>
<circle cx="937" cy="198" r="1" fill="#3D3D3D"/>
<circle cx="937" cy="250" r="1" fill="#3D3D3D"/>
<circle cx="853" cy="96" r="1" fill="#3D3D3D"/>
<circle cx="1149" cy="146" r="1" fill="#3D3D3D"/>
<circle cx="1076" cy="100" r="1" fill="#3D3D3D"/>
<circle cx="1003" cy="54" r="1" fill="#3D3D3D"/>
<circle cx="930" cy="8" r="1" fill="#3D3D3D"/>
<path d="M1249.02 144.852C1248.17 112.392 1250.7 107.597 1246.4 104.645C1246.17 104.336 1248.51 105.828 1208.37 82.4515C1204.74 80.3409 1200.61 83.816 1199.63 84.2317C1198.68 82.0145 1197.23 80.2664 1195.18 79.1044C1189.1 76.7593 1184.68 69.0418 1173.49 75.5548C1135.02 96.8952 1139.64 94.2943 1123.55 103.61C1113.57 109.356 1105.44 123.405 1105.44 134.937V138.615C1087.84 148.784 1076.19 155.532 1059.52 165.157C1054.81 167.886 1051.01 174.474 1051.03 179.857C1051.93 211.261 1049.07 217.518 1053.96 220.331L1056.01 221.546C1057.2 293.935 1054.11 296.718 1059.03 299.447C1082.28 312.985 1096.46 321.352 1096.97 321.512C1103.1 324.699 1104.3 318.165 1235.9 244.359C1240.59 241.631 1244.39 235.043 1244.39 229.639L1244.1 156.598C1247.12 153.347 1249.04 148.785 1249.02 144.852ZM1240.41 106.615C1244.19 104.43 1246.99 106.018 1246.99 110.378C1245.21 153.783 1256.07 144.797 1221.59 175.69C1221.44 174.763 1221 174.038 1220.3 173.686L1220.16 118.342L1240.41 106.615ZM1219.77 176.362V177.705C1219.79 185.38 1219.82 190.752 1219.82 190.752C1219.82 195.261 1213.63 196.156 1204.93 201.955C1204.68 202.083 1204.47 202.137 1204.32 202.137C1203.15 202.137 1204.06 198.64 1203.7 186.765C1203.7 183.344 1206.94 182.363 1210.9 179.965C1211.36 187.533 1210.35 189.899 1212.03 189.899H1212.05C1213.77 189.878 1212.61 187.554 1212.79 178.856C1218.2 175.765 1219.77 174.23 1219.77 176.362ZM1205.14 203.937C1205.96 203.702 1205.9 203.574 1218.44 196.369C1218.15 229.53 1220.55 217.293 1212.84 230.425C1212.35 231.171 1211.16 232.333 1210.47 232.077C1202.3 228.389 1206.16 236.063 1205.14 203.937ZM1218.38 173.556C1217.45 173.844 1216.37 174.59 1212.77 176.648C1212.46 173.503 1213.28 171.264 1211.72 171.264H1211.7C1210.05 171.286 1211.06 173.759 1210.84 177.756L1205.06 181.103L1204.91 127.146L1218.24 119.45L1218.38 173.556ZM1217.27 117.765C1217.01 117.914 1199.36 128.116 1198.82 128.425L1187.58 121.474L1205.8 110.975L1217.27 117.765ZM1196.61 196.135C1180.92 207.818 1164.07 218.115 1146.49 225.972C1146.18 221.314 1147.26 218.244 1145.08 217.146L1144.93 161.802L1197.85 131.209L1197.98 179.892C1195.61 183.132 1196.98 185.294 1196.61 196.135ZM1162.29 105.357C1186.27 92.0751 1187.4 89.4742 1188.63 98.3324C1181.12 103.502 1172.91 104.92 1172.91 111.38V112.36L1162.29 105.357ZM1206.08 100.592C1206.76 100.976 1206.37 102.415 1206.5 108.32C1199.45 112.392 1190.32 117.669 1183.21 121.783C1183.54 119.108 1181.98 114.087 1185.68 111.944C1204.8 101.061 1205.34 100.187 1206.08 100.592ZM1132.84 110.143C1184.45 80.2867 1188.2 77.577 1194.38 80.8707C1200.96 84.7296 1198.47 95.3145 1199.06 101.955L1190.6 106.848C1190.11 99.845 1191.91 94.11 1187.94 91.8183C1183.83 89.4519 1180.15 93.9502 1164.82 101.753C1146.04 112.157 1148.87 110.579 1131.91 120.396C1127.57 122.923 1124.17 128.786 1124.19 133.785C1124.19 134.222 1124.21 143.773 1124.21 144.412L1115.74 149.305L1115.72 139.775C1115.71 128.913 1123.37 115.632 1132.84 110.143ZM1129.91 247.385C1130.82 247.129 1143.24 239.87 1143.24 239.817C1142.93 272.926 1145.32 260.795 1137.63 273.873C1137.14 274.619 1135.94 275.781 1135.27 275.525C1127.08 271.848 1130.93 279.512 1129.91 247.385ZM1142.36 238.09C1127.36 246.66 1130.63 245.062 1129.04 245.584C1128.93 245.563 1128.86 245.531 1128.78 245.456C1128.67 245.2 1128.53 245.307 1128.53 244.603C1128.86 231.108 1127.29 228.518 1130.76 226.269L1135.85 223.316C1136.34 231.684 1135.29 234.103 1137.02 234.103C1137.78 234.082 1138.02 233.592 1138.02 232.227C1138.02 230.501 1137.69 227.441 1137.76 222.218C1147 216.941 1144.04 217.219 1144.58 227.548C1144.31 232.814 1145.6 236.012 1142.36 238.09ZM1136.7 215.46H1136.67C1135.08 215.481 1136 217.805 1135.82 221.099L1129.86 224.552L1129.71 170.595L1143.01 162.899L1143.16 217.017C1142.62 217.166 1143.16 216.889 1137.73 220.002C1137.47 217.753 1138.24 215.46 1136.7 215.46ZM1123.58 171.905L1111.49 164.667L1129.65 154.167L1142 161.245L1123.58 171.905ZM1110.84 154.402C1130.81 142.921 1130.78 142.612 1131.3 143.071C1131.91 143.486 1131.55 144.797 1131.68 150.767C1127.3 153.293 1116.48 159.55 1108.37 164.23C1108.71 161.554 1107.17 156.534 1110.84 154.402ZM1105.46 140.864V145.629C1104.1 146.737 1098.1 148.432 1098.1 153.837V156.672L1088.27 150.799L1105.46 140.864ZM1060.01 297.773C1056.74 295.971 1058.79 293.242 1057.95 222.675C1094.2 243.578 1091.81 242.779 1093.77 242.907C1094.1 319.293 1093.69 315.423 1094.26 317.748L1060.01 297.773ZM1090.68 201.816C1090.68 196.998 1094.04 191.156 1098.22 188.768L1122.63 174.666L1122.76 223.37C1120.52 226.515 1121.73 228.444 1121.42 235.362C1115.91 237.014 1110.44 238.325 1105.06 239.327C1104.6 238.603 1103.54 238.837 1103.36 239.658C1086.84 242.6 1091.37 245.072 1090.68 201.816ZM1234.95 242.675C1097.84 321.118 1101.31 321.79 1097.78 319.754C1094.29 317.75 1096.52 314.499 1095.69 242.781C1098.22 242.472 1100.76 242.088 1103.33 241.619C1103.53 243.581 1102.77 245.968 1104.31 245.968H1104.33C1105.9 245.968 1105.06 243.602 1105.26 241.257C1110.56 240.255 1115.96 238.965 1121.42 237.366C1121.62 240.329 1120.78 243.08 1122.71 244.188L1122.76 244.241C1123.3 268.364 1121.86 271.018 1124.18 272.351C1131.41 276.498 1136.01 279.866 1139.25 274.931C1147.38 259.539 1144.7 277.169 1145.16 238.037C1147.33 235.052 1146.22 232.963 1146.51 228.102C1164.1 220.299 1180.92 210.077 1196.67 198.5C1196.8 199.715 1197.36 200.354 1197.85 200.685C1198.49 226.3 1197.16 227.643 1199.36 228.901C1199.51 228.976 1204.76 232.014 1204.89 232.067C1207.73 232.398 1211.09 236.576 1214.44 231.47C1222.54 216.131 1219.91 233.709 1220.35 194.576C1222.69 191.357 1221.35 189.268 1221.69 178.182C1225.49 174.813 1229.31 171.285 1233.09 167.629C1233.42 171.232 1232.58 173.502 1234.16 173.502C1234.68 173.502 1235.11 173.065 1235.11 172.575V172.521C1234.86 168.3 1235.47 166.68 1234.29 166.445C1236.94 163.866 1239.57 161.244 1242.16 158.568L1242.45 229.625C1242.46 234.411 1239.09 240.252 1234.95 242.672L1234.95 242.675Z" fill="white"/>
<path d="M1104.49 269.653C1105.03 269.653 1105.44 269.216 1105.44 268.672C1105.06 258.087 1106.06 255.7 1104.39 255.881C1102.64 255.881 1103.79 258.151 1103.51 268.672C1103.53 269.653 1104.75 269.76 1104.49 269.653Z" fill="white"/>
<path d="M1104.7 293.285C1106.44 293.285 1105.29 291.014 1105.57 280.493C1105.57 279.544 1104.33 279.417 1104.59 279.544C1102.84 279.544 1103.99 281.815 1103.72 292.336C1103.72 293.285 1104.95 293.413 1104.7 293.285Z" fill="white"/>
<path d="M1108.81 305.928L1105.77 307.654C1105.57 305.8 1106.32 303.071 1104.77 303.199C1103.15 303.199 1104.1 305.565 1103.84 309.328C1103.84 309.659 1104.03 310 1104.33 310.149C1105.15 310.639 1105.52 309.861 1109.77 307.601C1110.88 306.962 1109.92 305.288 1108.81 305.928Z" fill="white"/>
<path d="M1127.55 295.269L1118.18 300.598C1117.07 301.238 1118.03 302.912 1119.13 302.272L1128.49 296.942C1129.62 296.324 1128.64 294.629 1127.55 295.269Z" fill="white"/>
<path d="M1193.12 258.022C1192.01 258.662 1192.97 260.336 1194.07 259.696C1202.12 254.729 1204.67 254.569 1203.79 253.055C1202.94 251.531 1201.56 253.62 1193.12 258.022Z" fill="white"/>
<path d="M1174.39 268.651C1173.28 269.291 1174.24 270.965 1175.34 270.325C1183.39 265.358 1185.94 265.198 1185.07 263.684C1184.21 262.192 1182.8 264.281 1174.39 268.651Z" fill="white"/>
<path d="M1165.02 273.981L1155.66 279.311C1154.8 279.801 1155.15 281.112 1156.15 281.112C1156.6 281.112 1156.22 281.165 1166 275.654C1167.09 275.015 1166.11 273.341 1165.02 273.981Z" fill="white"/>
<path d="M1136.91 289.939C1135.8 290.579 1136.76 292.252 1137.86 291.613C1145.91 286.645 1148.45 286.486 1147.58 284.972C1146.73 283.48 1145.34 285.569 1136.91 289.939Z" fill="white"/>
<path d="M1221.23 242.034L1211.87 247.364C1211.02 247.854 1211.36 249.165 1212.36 249.165C1212.82 249.165 1212.43 249.219 1222.21 243.708C1223.3 243.089 1222.32 241.416 1221.23 242.034Z" fill="white"/>
<path d="M1234.46 229.883L1234.57 234.466C1231.99 236.214 1229.42 236.598 1230.22 238.048C1231.02 239.466 1232.62 237.483 1236.01 235.863C1236.88 235.372 1236.32 234.605 1236.39 229.861C1236.36 228.497 1234.43 228.646 1234.46 229.883Z" fill="white"/>
<path d="M1234.69 196.443C1236.47 196.39 1235.25 193.97 1235.38 183.982C1235.36 182.618 1233.42 182.799 1233.45 184.035L1233.71 195.494C1233.72 196.464 1234.95 196.539 1234.69 196.443Z" fill="white"/>
<path d="M1233.94 206.974L1234.2 218.433C1234.22 219.382 1235.43 219.488 1235.18 219.382C1236.95 219.328 1235.74 216.909 1235.87 206.921C1235.85 205.524 1233.92 205.759 1233.94 206.974Z" fill="white"/>
<path d="M1182.62 192.009C1181.56 192.734 1182.67 194.322 1183.69 193.608C1192.42 187.607 1193.06 187.329 1192.33 186.327C1191.58 185.187 1191.36 185.986 1182.62 192.009Z" fill="white"/>
<path d="M1174.11 197.723C1171.25 199.578 1168.36 201.401 1165.44 203.234C1164.62 203.746 1164.98 205.014 1165.95 205.014C1166.49 205.014 1174.75 199.631 1175.16 199.354C1176.22 198.651 1175.16 197.03 1174.11 197.723Z" fill="white"/>
<path d="M1147.69 213.561C1146.56 214.18 1147.51 215.875 1148.61 215.256C1157.8 210.182 1158.57 209.948 1157.92 208.85C1157.25 207.667 1157.05 208.381 1147.69 213.561Z" fill="white"/>
<path d="M1240.23 138.796C1240.33 137.506 1238.43 137.357 1238.3 138.615C1237.94 142.58 1237.35 145.928 1236.5 148.528C1236.19 149.616 1238.92 153.368 1240.23 138.796Z" fill="white"/>
<path d="M1230.81 156.097C1228.85 157.643 1226.12 159.828 1222.74 162.482C1221.73 163.282 1222.92 164.795 1223.92 163.996C1227.32 161.342 1230.06 159.157 1231.99 157.611C1232.99 156.822 1231.81 155.298 1230.81 156.097Z" fill="white"/>
<path d="M1239.66 129.373C1240.92 128.521 1241.08 129.299 1240.2 118.042C1240.1 116.785 1238.17 116.913 1238.28 118.192C1239.04 128.041 1238.08 129.373 1239.66 129.373Z" fill="white"/>
<path d="M1231.61 123.436C1232.68 122.743 1231.66 121.122 1230.58 121.815C1223.21 126.943 1220.67 127.22 1221.6 128.691C1222.37 129.863 1223.09 128.84 1231.61 123.436Z" fill="white"/>
<path d="M1195.41 141.323C1187.92 146.109 1185.3 146.344 1186.2 147.857C1186.92 149.094 1187.69 148.06 1196.38 142.997C1197.47 142.357 1196.49 140.684 1195.41 141.323Z" fill="white"/>
<path d="M1159.87 162.152L1151 167.354C1150.15 167.845 1150.51 169.156 1151.49 169.156C1151.98 169.156 1151.57 169.209 1160.85 163.805C1161.96 163.176 1160.98 161.502 1159.87 162.152Z" fill="white"/>
<path d="M1168.76 156.949C1168.3 157.205 1168.14 157.801 1168.43 158.26C1168.68 158.718 1169.28 158.878 1169.74 158.59C1177.23 153.804 1179.85 153.57 1178.95 152.056C1178.07 150.564 1176.55 152.781 1168.76 156.949Z" fill="white"/>
<path d="M1099.17 213.308C1097.42 213.542 1098.88 215.802 1099.71 224.607C1099.89 225.865 1101.8 225.609 1101.62 224.351C1100.09 215.567 1100.89 213.041 1099.17 213.308Z" fill="white"/>
<path d="M1111.95 192.446C1119.46 187.681 1122.09 187.446 1121.21 185.954C1120.33 184.44 1118.79 186.626 1110.99 190.772C1109.86 191.422 1110.84 193.096 1111.95 192.446Z" fill="white"/>
<path d="M1098.39 200.302C1101.57 198.138 1104.23 197.722 1103.38 196.283C1103.13 195.825 1102.53 195.665 1102.07 195.921C1097.47 198.831 1096.26 198.778 1096.39 199.907C1097.02 202.999 1096.49 205.216 1098.04 204.981C1098.6 204.939 1098.49 202.572 1098.39 200.302Z" fill="white"/>
<path d="M1114.22 232.45C1114.71 232.248 1114.96 231.704 1114.76 231.193C1113.91 229.029 1110.29 233.538 1105.16 232.12C1104.4 231.917 1103.29 231.48 1103 232.557C1102.75 233.634 1103.91 233.772 1104.65 233.975C1107.71 234.827 1109.24 234.412 1114.22 232.45Z" fill="white"/>
</g>
<defs>
<filter id="filter0_f_148_2673" x="1078.06" y="-169.184" width="366.059" height="451.395" filterUnits="userSpaceOnUse" color-interpolation-filters="sRGB">
<feFlood flood-opacity="0" result="BackgroundImageFix"/>
<feBlend mode="normal" in="SourceGraphic" in2="BackgroundImageFix" result="shape"/>
<feGaussianBlur stdDeviation="40" result="effect1_foregroundBlur_148_2673"/>
</filter>
<filter id="filter1_f_148_2673" x="937.57" y="-360.502" width="245.221" height="506.496" filterUnits="userSpaceOnUse" color-interpolation-filters="sRGB">
<feFlood flood-opacity="0" result="BackgroundImageFix"/>
<feBlend mode="normal" in="SourceGraphic" in2="BackgroundImageFix" result="shape"/>
<feGaussianBlur stdDeviation="40" result="effect1_foregroundBlur_148_2673"/>
</filter>
<clipPath id="clip0_148_2673">
<rect width="1344" height="396" fill="white"/>
</clipPath>
</defs>
</svg>
