<svg width="721" height="736" viewBox="0 0 721 736" fill="none" xmlns="http://www.w3.org/2000/svg">
<g filter="url(#filter0_diii_3_3045)">
<path d="M100.5 392.008C100.5 391.394 100.5 391.093 100.503 390.838C100.78 370.395 117.285 353.891 137.728 353.614C137.982 353.61 138.284 353.61 138.898 353.61H582.102C582.716 353.61 583.018 353.61 583.272 353.614C603.715 353.891 620.22 370.395 620.497 390.838C620.5 391.092 620.5 391.394 620.5 392.008C620.5 395.836 620.5 397.744 620.478 399.358C618.729 528.546 514.426 632.848 385.239 634.598C383.625 634.62 381.716 634.62 377.889 634.62H343.111C339.284 634.62 337.375 634.62 335.761 634.598C206.574 632.848 102.271 528.546 100.522 399.358C100.5 397.744 100.5 395.836 100.5 392.008Z" fill="#121212"/>
<path d="M100.5 392.008C100.5 391.394 100.5 391.093 100.503 390.838C100.78 370.395 117.285 353.891 137.728 353.614C137.982 353.61 138.284 353.61 138.898 353.61H582.102C582.716 353.61 583.018 353.61 583.272 353.614C603.715 353.891 620.22 370.395 620.497 390.838C620.5 391.092 620.5 391.394 620.5 392.008C620.5 395.836 620.5 397.744 620.478 399.358C618.729 528.546 514.426 632.848 385.239 634.598C383.625 634.62 381.716 634.62 377.889 634.62H343.111C339.284 634.62 337.375 634.62 335.761 634.598C206.574 632.848 102.271 528.546 100.522 399.358C100.5 397.744 100.5 395.836 100.5 392.008Z" stroke="#202020"/>
<path d="M100.5 392.008C100.5 391.394 100.5 391.093 100.503 390.838C100.78 370.395 117.285 353.891 137.728 353.614C137.982 353.61 138.284 353.61 138.898 353.61H582.102C582.716 353.61 583.018 353.61 583.272 353.614C603.715 353.891 620.22 370.395 620.497 390.838C620.5 391.092 620.5 391.394 620.5 392.008C620.5 395.836 620.5 397.744 620.478 399.358C618.729 528.546 514.426 632.848 385.239 634.598C383.625 634.62 381.716 634.62 377.889 634.62H343.111C339.284 634.62 337.375 634.62 335.761 634.598C206.574 632.848 102.271 528.546 100.522 399.358C100.5 397.744 100.5 395.836 100.5 392.008Z" stroke="black" stroke-opacity="0.2"/>
<ellipse cx="373" cy="226.5" rx="116" ry="68.5" fill="white"/>
<mask id="path-3-inside-1_3_3045" fill="white">
<path fill-rule="evenodd" clip-rule="evenodd" d="M353 108C353 103.582 356.582 100 361 100H365C369.418 100 373 103.582 373 108V118.899H433.631C465.754 118.899 481.816 118.899 494.086 125.15C504.878 130.649 513.653 139.424 519.152 150.217C525.404 162.486 525.404 178.548 525.404 210.671V242.218C525.404 274.341 525.404 290.403 519.152 302.673C513.653 313.465 504.878 322.24 494.086 327.739C481.816 333.99 465.754 333.99 433.631 333.99H292.149C260.025 333.99 243.963 333.99 231.694 327.739C220.901 322.24 212.127 313.465 206.628 302.673C200.376 290.403 200.376 274.341 200.376 242.218V210.671C200.376 178.548 200.376 162.486 206.628 150.217C212.127 139.424 220.901 130.649 231.694 125.15C243.963 118.899 260.025 118.899 292.148 118.899H353V108ZM434.603 180.443C434.603 171.993 424.46 167.679 418.373 173.541L418.327 173.585L418.282 173.631L366.713 226.474V206.549C366.713 204.365 365.954 202.398 364.567 200.89C363.226 199.432 361.494 198.609 359.804 198.25C356.523 197.552 352.688 198.442 349.924 201.001L293.972 250.778L293.933 250.812L293.895 250.848C287.549 256.787 291.751 267.427 300.442 267.427L335.458 267.427C337.306 267.427 339.076 266.681 340.367 265.359L358.41 246.869V260.568C358.41 264.356 361.481 267.427 365.269 267.427L425.02 267.426C430.313 267.426 434.603 263.136 434.603 257.844V180.443ZM366.713 242.909V238.362L424.164 179.491C424.98 178.753 426.3 179.329 426.3 180.443V257.844C426.3 258.551 425.727 259.124 425.02 259.124L366.713 259.124V242.909ZM358.41 206.549V234.982L334.85 259.124L300.442 259.125C299.293 259.125 298.731 257.732 299.542 256.935L355.477 207.173L355.516 207.139L355.554 207.103C356.256 206.446 357.321 206.21 358.077 206.371C358.247 206.407 358.352 206.452 358.408 206.483C358.409 206.501 358.41 206.522 358.41 206.549Z"/>
</mask>
<path fill-rule="evenodd" clip-rule="evenodd" d="M353 108C353 103.582 356.582 100 361 100H365C369.418 100 373 103.582 373 108V118.899H433.631C465.754 118.899 481.816 118.899 494.086 125.15C504.878 130.649 513.653 139.424 519.152 150.217C525.404 162.486 525.404 178.548 525.404 210.671V242.218C525.404 274.341 525.404 290.403 519.152 302.673C513.653 313.465 504.878 322.24 494.086 327.739C481.816 333.99 465.754 333.99 433.631 333.99H292.149C260.025 333.99 243.963 333.99 231.694 327.739C220.901 322.24 212.127 313.465 206.628 302.673C200.376 290.403 200.376 274.341 200.376 242.218V210.671C200.376 178.548 200.376 162.486 206.628 150.217C212.127 139.424 220.901 130.649 231.694 125.15C243.963 118.899 260.025 118.899 292.148 118.899H353V108ZM434.603 180.443C434.603 171.993 424.46 167.679 418.373 173.541L418.327 173.585L418.282 173.631L366.713 226.474V206.549C366.713 204.365 365.954 202.398 364.567 200.89C363.226 199.432 361.494 198.609 359.804 198.25C356.523 197.552 352.688 198.442 349.924 201.001L293.972 250.778L293.933 250.812L293.895 250.848C287.549 256.787 291.751 267.427 300.442 267.427L335.458 267.427C337.306 267.427 339.076 266.681 340.367 265.359L358.41 246.869V260.568C358.41 264.356 361.481 267.427 365.269 267.427L425.02 267.426C430.313 267.426 434.603 263.136 434.603 257.844V180.443ZM366.713 242.909V238.362L424.164 179.491C424.98 178.753 426.3 179.329 426.3 180.443V257.844C426.3 258.551 425.727 259.124 425.02 259.124L366.713 259.124V242.909ZM358.41 206.549V234.982L334.85 259.124L300.442 259.125C299.293 259.125 298.731 257.732 299.542 256.935L355.477 207.173L355.516 207.139L355.554 207.103C356.256 206.446 357.321 206.21 358.077 206.371C358.247 206.407 358.352 206.452 358.408 206.483C358.409 206.501 358.41 206.522 358.41 206.549Z" fill="#121212"/>
<path d="M373 118.899H372V119.899H373V118.899ZM494.086 125.15L493.632 126.041L494.086 125.15ZM519.152 150.217L518.261 150.671H518.261L519.152 150.217ZM519.152 302.673L518.261 302.219H518.261L519.152 302.673ZM494.086 327.739L493.632 326.848L494.086 327.739ZM231.694 327.739L231.24 328.63L231.694 327.739ZM206.628 302.673L207.519 302.219L206.628 302.673ZM206.628 150.217L205.737 149.763L206.628 150.217ZM231.694 125.15L232.148 126.041L231.694 125.15ZM353 118.899V119.899H354V118.899H353ZM418.373 173.541L417.68 172.82L417.68 172.82L418.373 173.541ZM418.327 173.585L417.633 172.865L417.622 172.876L417.611 172.887L418.327 173.585ZM418.282 173.631L418.998 174.33L418.998 174.33L418.282 173.631ZM366.713 226.474H365.713V228.931L367.428 227.173L366.713 226.474ZM364.567 200.89L363.831 201.567L363.831 201.567L364.567 200.89ZM359.804 198.25L360.012 197.272L359.804 198.25ZM349.924 201.001L350.588 201.748L350.596 201.741L350.603 201.735L349.924 201.001ZM293.972 250.778L294.636 251.525L294.637 251.525L293.972 250.778ZM293.933 250.812L293.268 250.065L293.259 250.074L293.25 250.082L293.933 250.812ZM293.895 250.848L294.578 251.578L294.578 251.578L293.895 250.848ZM300.442 267.427V268.427H300.442L300.442 267.427ZM335.458 267.427V266.427V267.427ZM340.367 265.359L339.651 264.66L340.367 265.359ZM358.41 246.869H359.41V244.413L357.695 246.171L358.41 246.869ZM365.269 267.427L365.269 268.427L365.269 267.427ZM425.02 267.426V266.426H425.02L425.02 267.426ZM366.713 238.362L365.997 237.663L365.713 237.955V238.362H366.713ZM424.164 179.491L423.493 178.75L423.47 178.771L423.448 178.793L424.164 179.491ZM425.02 259.124V258.124H425.02L425.02 259.124ZM366.713 259.124H365.713V260.124L366.713 260.124L366.713 259.124ZM358.41 234.982L359.126 235.68L359.41 235.389V234.982H358.41ZM334.85 259.124V260.124H335.271L335.565 259.823L334.85 259.124ZM300.442 259.125V260.125H300.442L300.442 259.125ZM299.542 256.935L298.878 256.187L298.859 256.204L298.841 256.222L299.542 256.935ZM355.477 207.173L354.812 206.426L354.812 206.426L355.477 207.173ZM355.516 207.139L356.18 207.886L356.19 207.878L356.199 207.869L355.516 207.139ZM355.554 207.103L356.237 207.833L356.237 207.833L355.554 207.103ZM358.077 206.371L357.869 207.349L357.869 207.349L358.077 206.371ZM358.408 206.483L359.407 206.425L359.375 205.871L358.887 205.605L358.408 206.483ZM361 99C356.029 99 352 103.029 352 108H354C354 104.134 357.134 101 361 101V99ZM365 99H361V101H365V99ZM374 108C374 103.029 369.971 99 365 99V101C368.866 101 372 104.134 372 108H374ZM374 118.899V108H372V118.899H374ZM433.631 117.899H373V119.899H433.631V117.899ZM494.54 124.259C488.24 121.05 481.011 119.47 471.385 118.683C461.77 117.898 449.676 117.899 433.631 117.899V119.899C449.709 119.899 461.708 119.899 471.222 120.677C480.725 121.453 487.661 122.999 493.632 126.041L494.54 124.259ZM520.043 149.763C514.448 138.782 505.52 129.854 494.54 124.259L493.632 126.041C504.236 131.445 512.858 140.066 518.261 150.671L520.043 149.763ZM526.404 210.671C526.404 194.626 526.404 182.532 525.619 172.917C524.832 163.291 523.252 156.062 520.043 149.763L518.261 150.671C521.303 156.641 522.849 163.577 523.625 173.08C524.403 182.594 524.404 194.593 524.404 210.671H526.404ZM526.404 242.218V210.671H524.404V242.218H526.404ZM520.043 303.127C523.252 296.827 524.832 289.598 525.619 279.972C526.404 270.357 526.404 258.263 526.404 242.218H524.404C524.404 258.296 524.403 270.295 523.625 279.809C522.849 289.312 521.303 296.248 518.261 302.219L520.043 303.127ZM494.54 328.63C505.52 323.035 514.448 314.107 520.043 303.127L518.261 302.219C512.858 312.823 504.236 321.445 493.632 326.848L494.54 328.63ZM433.631 334.99C449.676 334.99 461.77 334.991 471.385 334.206C481.011 333.419 488.24 331.839 494.54 328.63L493.632 326.848C487.661 329.89 480.725 331.436 471.222 332.212C461.708 332.99 449.709 332.99 433.631 332.99V334.99ZM292.149 334.99H433.631V332.99H292.149V334.99ZM231.24 328.63C237.539 331.839 244.768 333.419 254.395 334.206C264.009 334.991 276.103 334.99 292.149 334.99V332.99C276.07 332.99 264.072 332.99 254.557 332.212C245.055 331.436 238.118 329.89 232.148 326.848L231.24 328.63ZM205.737 303.127C211.332 314.107 220.259 323.035 231.24 328.63L232.148 326.848C221.543 321.445 212.922 312.823 207.519 302.219L205.737 303.127ZM199.376 242.218C199.376 258.263 199.375 270.357 200.161 279.972C200.947 289.598 202.527 296.827 205.737 303.127L207.519 302.219C204.477 296.248 202.931 289.312 202.154 279.809C201.377 270.295 201.376 258.296 201.376 242.218H199.376ZM199.376 210.671V242.218H201.376V210.671H199.376ZM205.737 149.763C202.527 156.062 200.947 163.291 200.161 172.917C199.375 182.532 199.376 194.626 199.376 210.671H201.376C201.376 194.593 201.377 182.594 202.154 173.08C202.931 163.577 204.477 156.641 207.519 150.671L205.737 149.763ZM231.24 124.259C220.259 129.854 211.332 138.782 205.737 149.763L207.519 150.671C212.922 140.066 221.543 131.445 232.148 126.041L231.24 124.259ZM292.148 117.899C276.103 117.899 264.009 117.898 254.395 118.683C244.768 119.47 237.539 121.05 231.24 124.259L232.148 126.041C238.118 122.999 245.055 121.453 254.557 120.677C264.072 119.899 276.07 119.899 292.148 119.899V117.899ZM353 117.899H292.148V119.899H353V117.899ZM352 108V118.899H354V108H352ZM419.067 174.261C424.519 169.011 433.603 172.874 433.603 180.443H435.603C435.603 171.111 424.402 166.347 417.68 172.82L419.067 174.261ZM419.021 174.305L419.067 174.261L417.68 172.82L417.633 172.865L419.021 174.305ZM418.998 174.33L419.043 174.284L417.611 172.887L417.566 172.933L418.998 174.33ZM367.428 227.173L418.998 174.33L417.566 172.933L365.997 225.776L367.428 227.173ZM365.713 206.549V226.474H367.713V206.549H365.713ZM363.831 201.567C365.04 202.882 365.713 204.605 365.713 206.549H367.713C367.713 204.126 366.867 201.914 365.303 200.213L363.831 201.567ZM359.596 199.228C361.124 199.553 362.656 200.29 363.831 201.567L365.303 200.213C363.796 198.575 361.864 197.666 360.012 197.272L359.596 199.228ZM350.603 201.735C353.119 199.406 356.619 198.595 359.596 199.228L360.012 197.272C356.427 196.51 352.257 197.478 349.244 200.267L350.603 201.735ZM294.637 251.525L350.588 201.748L349.259 200.254L293.307 250.031L294.637 251.525ZM294.597 251.56L294.636 251.525L293.307 250.03L293.268 250.065L294.597 251.56ZM294.578 251.578L294.616 251.543L293.25 250.082L293.211 250.118L294.578 251.578ZM300.442 266.427C292.658 266.427 288.894 256.897 294.578 251.578L293.211 250.118C286.203 256.676 290.844 268.427 300.442 268.427V266.427ZM335.458 266.427L300.442 266.427L300.442 268.427L335.458 268.427V266.427ZM339.651 264.66C338.549 265.79 337.037 266.427 335.458 266.427V268.427C337.576 268.427 339.604 267.572 341.083 266.057L339.651 264.66ZM357.695 246.171L339.651 264.66L341.083 266.057L359.126 247.568L357.695 246.171ZM359.41 260.568V246.869H357.41V260.568H359.41ZM365.269 266.427C362.033 266.427 359.41 263.804 359.41 260.568H357.41C357.41 264.908 360.929 268.427 365.269 268.427L365.269 266.427ZM425.02 266.426L365.269 266.427L365.269 268.427L425.02 268.426L425.02 266.426ZM433.603 257.844C433.603 262.584 429.76 266.426 425.02 266.426V268.426C430.865 268.426 435.603 263.689 435.603 257.844H433.603ZM433.603 180.443V257.844H435.603V180.443H433.603ZM365.713 238.362V242.909H367.713V238.362H365.713ZM423.448 178.793L365.997 237.663L367.428 239.06L424.88 180.19L423.448 178.793ZM427.3 180.443C427.3 178.456 424.948 177.433 423.493 178.75L424.835 180.233C425.012 180.073 425.3 180.201 425.3 180.443H427.3ZM427.3 257.844V180.443H425.3V257.844H427.3ZM425.02 260.124C426.28 260.124 427.3 259.103 427.3 257.844H425.3C425.3 257.999 425.175 258.124 425.02 258.124V260.124ZM366.713 260.124L425.02 260.124L425.02 258.124L366.713 258.124L366.713 260.124ZM365.713 242.909V259.124H367.713V242.909H365.713ZM359.41 234.982V206.549H357.41V234.982H359.41ZM335.565 259.823L359.126 235.68L357.695 234.284L334.134 258.426L335.565 259.823ZM300.442 260.125L334.85 260.124V258.124L300.442 258.125L300.442 260.125ZM298.841 256.222C297.395 257.644 298.394 260.125 300.442 260.125V258.125C300.192 258.125 300.067 257.821 300.243 257.648L298.841 256.222ZM354.812 206.426L298.878 256.187L300.207 257.682L356.141 207.921L354.812 206.426ZM354.851 206.391L354.812 206.426L356.141 207.921L356.18 207.886L354.851 206.391ZM354.871 206.373L354.832 206.408L356.199 207.869L356.237 207.833L354.871 206.373ZM358.285 205.393C357.221 205.166 355.82 205.484 354.871 206.373L356.237 207.833C356.692 207.407 357.421 207.254 357.869 207.349L358.285 205.393ZM358.887 205.605C358.738 205.524 358.541 205.447 358.285 205.393L357.869 207.349C357.954 207.367 357.965 207.381 357.93 207.362L358.887 205.605ZM359.41 206.549C359.41 206.505 359.409 206.464 359.407 206.425L357.41 206.541C357.41 206.538 357.41 206.54 357.41 206.549H359.41Z" fill="#202020" mask="url(#path-3-inside-1_3_3045)"/>
</g>
<defs>
<filter id="filter0_diii_3_3045" x="0" y="0" width="721" height="735.12" filterUnits="userSpaceOnUse" color-interpolation-filters="sRGB">
<feFlood flood-opacity="0" result="BackgroundImageFix"/>
<feColorMatrix in="SourceAlpha" type="matrix" values="0 0 0 0 0 0 0 0 0 0 0 0 0 0 0 0 0 0 127 0" result="hardAlpha"/>
<feOffset/>
<feGaussianBlur stdDeviation="50"/>
<feComposite in2="hardAlpha" operator="out"/>
<feColorMatrix type="matrix" values="0 0 0 0 0.319043 0 0 0 0 0.319043 0 0 0 0 0.319043 0 0 0 1 0"/>
<feBlend mode="normal" in2="BackgroundImageFix" result="effect1_dropShadow_3_3045"/>
<feBlend mode="normal" in="SourceGraphic" in2="effect1_dropShadow_3_3045" result="shape"/>
<feColorMatrix in="SourceAlpha" type="matrix" values="0 0 0 0 0 0 0 0 0 0 0 0 0 0 0 0 0 0 127 0" result="hardAlpha"/>
<feOffset dy="4"/>
<feGaussianBlur stdDeviation="15"/>
<feComposite in2="hardAlpha" operator="arithmetic" k2="-1" k3="1"/>
<feColorMatrix type="matrix" values="0 0 0 0 0.315544 0 0 0 0 0.315544 0 0 0 0 0.315544 0 0 0 1 0"/>
<feBlend mode="normal" in2="shape" result="effect2_innerShadow_3_3045"/>
<feColorMatrix in="SourceAlpha" type="matrix" values="0 0 0 0 0 0 0 0 0 0 0 0 0 0 0 0 0 0 127 0" result="hardAlpha"/>
<feOffset dy="5"/>
<feGaussianBlur stdDeviation="7.5"/>
<feComposite in2="hardAlpha" operator="arithmetic" k2="-1" k3="1"/>
<feColorMatrix type="matrix" values="0 0 0 0 0.453581 0 0 0 0 0.453581 0 0 0 0 0.453581 0 0 0 1 0"/>
<feBlend mode="normal" in2="effect2_innerShadow_3_3045" result="effect3_innerShadow_3_3045"/>
<feColorMatrix in="SourceAlpha" type="matrix" values="0 0 0 0 0 0 0 0 0 0 0 0 0 0 0 0 0 0 127 0" result="hardAlpha"/>
<feOffset dy="4"/>
<feGaussianBlur stdDeviation="5"/>
<feComposite in2="hardAlpha" operator="arithmetic" k2="-1" k3="1"/>
<feColorMatrix type="matrix" values="0 0 0 0 1 0 0 0 0 1 0 0 0 0 1 0 0 0 1 0"/>
<feBlend mode="normal" in2="effect3_innerShadow_3_3045" result="effect4_innerShadow_3_3045"/>
</filter>
</defs>
</svg>
