<svg width="521" height="439" viewBox="0 0 521 439" fill="none" xmlns="http://www.w3.org/2000/svg">
<g filter="url(#filter0_ii_3_2020)">
<path d="M0.5 292.008C0.5 291.394 0.500012 291.093 0.50346 290.838C0.780298 270.395 17.285 253.891 37.7275 253.614C37.9822 253.61 38.2841 253.61 38.8978 253.61H482.102C482.716 253.61 483.018 253.61 483.272 253.614C503.715 253.891 520.22 270.395 520.497 290.838C520.5 291.092 520.5 291.394 520.5 292.008C520.5 295.836 520.5 297.744 520.478 299.358C518.729 428.546 414.426 532.848 285.239 534.598C283.625 534.62 281.716 534.62 277.889 534.62H243.111C239.284 534.62 237.375 534.62 235.761 534.598C106.574 532.848 2.27136 428.546 0.521866 299.358C0.500012 297.744 0.5 295.836 0.5 292.008Z" fill="#121212"/>
<path d="M0.5 292.008C0.5 291.394 0.500012 291.093 0.50346 290.838C0.780298 270.395 17.285 253.891 37.7275 253.614C37.9822 253.61 38.2841 253.61 38.8978 253.61H482.102C482.716 253.61 483.018 253.61 483.272 253.614C503.715 253.891 520.22 270.395 520.497 290.838C520.5 291.092 520.5 291.394 520.5 292.008C520.5 295.836 520.5 297.744 520.478 299.358C518.729 428.546 414.426 532.848 285.239 534.598C283.625 534.62 281.716 534.62 277.889 534.62H243.111C239.284 534.62 237.375 534.62 235.761 534.598C106.574 532.848 2.27136 428.546 0.521866 299.358C0.500012 297.744 0.5 295.836 0.5 292.008Z" stroke="#202020"/>
<path d="M0.5 292.008C0.5 291.394 0.500012 291.093 0.50346 290.838C0.780298 270.395 17.285 253.891 37.7275 253.614C37.9822 253.61 38.2841 253.61 38.8978 253.61H482.102C482.716 253.61 483.018 253.61 483.272 253.614C503.715 253.891 520.22 270.395 520.497 290.838C520.5 291.092 520.5 291.394 520.5 292.008C520.5 295.836 520.5 297.744 520.478 299.358C518.729 428.546 414.426 532.848 285.239 534.598C283.625 534.62 281.716 534.62 277.889 534.62H243.111C239.284 534.62 237.375 534.62 235.761 534.598C106.574 532.848 2.27136 428.546 0.521866 299.358C0.500012 297.744 0.5 295.836 0.5 292.008Z" stroke="black" stroke-opacity="0.2"/>
<mask id="path-2-inside-1_3_2020" fill="white">
<path fill-rule="evenodd" clip-rule="evenodd" d="M253 8C253 3.58172 256.582 0 261 0H265C269.418 0 273 3.58172 273 8V18.8987H333.631C365.754 18.8987 381.816 18.8987 394.086 25.1503C404.878 30.6494 413.653 39.4241 419.152 50.2166C425.404 62.4861 425.404 78.5478 425.404 110.671V142.218C425.404 174.341 425.404 190.403 419.152 202.673C413.653 213.465 404.878 222.24 394.086 227.739C381.816 233.99 365.754 233.99 333.631 233.99H192.149C160.025 233.99 143.963 233.99 131.694 227.739C120.901 222.24 112.127 213.465 106.628 202.673C100.376 190.403 100.376 174.341 100.376 142.218V110.671C100.376 78.5478 100.376 62.4861 106.628 50.2166C112.127 39.4241 120.901 30.6494 131.694 25.1503C143.963 18.8987 160.025 18.8987 192.148 18.8987H253V8ZM334.603 80.4428C334.603 71.9925 324.46 67.6789 318.373 73.5405L318.327 73.5852L318.282 73.6313L266.713 126.474V106.549C266.713 104.365 265.954 102.398 264.567 100.89C263.226 99.4324 261.494 98.6092 259.804 98.2499C256.523 97.5524 252.688 98.4418 249.924 101.001L193.972 150.778L193.933 150.812L193.895 150.848C187.549 156.787 191.751 167.427 200.442 167.427L235.458 167.427C237.306 167.427 239.076 166.681 240.367 165.359L258.41 146.869V160.568C258.41 164.356 261.481 167.427 265.269 167.427L325.02 167.426C330.313 167.426 334.603 163.136 334.603 157.844V80.4428ZM266.713 142.909V138.362L324.164 79.4914C324.98 78.7528 326.3 79.3285 326.3 80.4428V157.844C326.3 158.551 325.727 159.124 325.02 159.124L266.713 159.124V142.909ZM258.41 106.549V134.982L234.85 159.124L200.442 159.125C199.293 159.125 198.731 157.732 199.542 156.935L255.477 107.173L255.516 107.139L255.554 107.103C256.256 106.446 257.321 106.21 258.077 106.371C258.247 106.407 258.352 106.452 258.408 106.483C258.409 106.501 258.41 106.522 258.41 106.549Z"/>
</mask>
<path fill-rule="evenodd" clip-rule="evenodd" d="M253 8C253 3.58172 256.582 0 261 0H265C269.418 0 273 3.58172 273 8V18.8987H333.631C365.754 18.8987 381.816 18.8987 394.086 25.1503C404.878 30.6494 413.653 39.4241 419.152 50.2166C425.404 62.4861 425.404 78.5478 425.404 110.671V142.218C425.404 174.341 425.404 190.403 419.152 202.673C413.653 213.465 404.878 222.24 394.086 227.739C381.816 233.99 365.754 233.99 333.631 233.99H192.149C160.025 233.99 143.963 233.99 131.694 227.739C120.901 222.24 112.127 213.465 106.628 202.673C100.376 190.403 100.376 174.341 100.376 142.218V110.671C100.376 78.5478 100.376 62.4861 106.628 50.2166C112.127 39.4241 120.901 30.6494 131.694 25.1503C143.963 18.8987 160.025 18.8987 192.148 18.8987H253V8ZM334.603 80.4428C334.603 71.9925 324.46 67.6789 318.373 73.5405L318.327 73.5852L318.282 73.6313L266.713 126.474V106.549C266.713 104.365 265.954 102.398 264.567 100.89C263.226 99.4324 261.494 98.6092 259.804 98.2499C256.523 97.5524 252.688 98.4418 249.924 101.001L193.972 150.778L193.933 150.812L193.895 150.848C187.549 156.787 191.751 167.427 200.442 167.427L235.458 167.427C237.306 167.427 239.076 166.681 240.367 165.359L258.41 146.869V160.568C258.41 164.356 261.481 167.427 265.269 167.427L325.02 167.426C330.313 167.426 334.603 163.136 334.603 157.844V80.4428ZM266.713 142.909V138.362L324.164 79.4914C324.98 78.7528 326.3 79.3285 326.3 80.4428V157.844C326.3 158.551 325.727 159.124 325.02 159.124L266.713 159.124V142.909ZM258.41 106.549V134.982L234.85 159.124L200.442 159.125C199.293 159.125 198.731 157.732 199.542 156.935L255.477 107.173L255.516 107.139L255.554 107.103C256.256 106.446 257.321 106.21 258.077 106.371C258.247 106.407 258.352 106.452 258.408 106.483C258.409 106.501 258.41 106.522 258.41 106.549Z" fill="#121212"/>
<path d="M273 18.8987H272V19.8987H273V18.8987ZM394.086 25.1503L393.632 26.0413L394.086 25.1503ZM419.152 50.2166L418.261 50.6706H418.261L419.152 50.2166ZM419.152 202.673L418.261 202.219H418.261L419.152 202.673ZM394.086 227.739L393.632 226.848L394.086 227.739ZM131.694 227.739L131.24 228.63L131.694 227.739ZM106.628 202.673L107.519 202.219L106.628 202.673ZM106.628 50.2166L105.737 49.7626L106.628 50.2166ZM131.694 25.1503L132.148 26.0413L131.694 25.1503ZM253 18.8987V19.8987H254V18.8987H253ZM318.373 73.5405L317.68 72.8202L317.68 72.8203L318.373 73.5405ZM318.327 73.5852L317.633 72.865L317.622 72.8757L317.611 72.8869L318.327 73.5852ZM318.282 73.6313L318.998 74.3298L318.998 74.3297L318.282 73.6313ZM266.713 126.474H265.713V128.931L267.428 127.173L266.713 126.474ZM264.567 100.89L263.831 101.567L263.831 101.567L264.567 100.89ZM259.804 98.2499L260.012 97.2718L259.804 98.2499ZM249.924 101.001L250.588 101.748L250.596 101.741L250.603 101.735L249.924 101.001ZM193.972 150.778L194.636 151.525L194.637 151.525L193.972 150.778ZM193.933 150.812L193.268 150.065L193.259 150.074L193.25 150.082L193.933 150.812ZM193.895 150.848L194.578 151.578L194.578 151.578L193.895 150.848ZM200.442 167.427V168.427H200.442L200.442 167.427ZM235.458 167.427V166.427V167.427ZM240.367 165.359L239.651 164.66L240.367 165.359ZM258.41 146.869H259.41V144.413L257.695 146.171L258.41 146.869ZM265.269 167.427L265.269 168.427L265.269 167.427ZM325.02 167.426V166.426H325.02L325.02 167.426ZM266.713 138.362L265.997 137.663L265.713 137.955V138.362H266.713ZM324.164 79.4914L323.493 78.7501L323.47 78.7709L323.448 78.793L324.164 79.4914ZM325.02 159.124V158.124H325.02L325.02 159.124ZM266.713 159.124H265.713V160.124L266.713 160.124L266.713 159.124ZM258.41 134.982L259.126 135.68L259.41 135.389V134.982H258.41ZM234.85 159.124V160.124H235.271L235.565 159.823L234.85 159.124ZM200.442 159.125V160.125H200.442L200.442 159.125ZM199.542 156.935L198.878 156.187L198.859 156.204L198.841 156.222L199.542 156.935ZM255.477 107.173L254.812 106.426L254.812 106.426L255.477 107.173ZM255.516 107.139L256.18 107.886L256.19 107.878L256.199 107.869L255.516 107.139ZM255.554 107.103L256.237 107.833L256.237 107.833L255.554 107.103ZM258.077 106.371L257.869 107.349L257.869 107.349L258.077 106.371ZM258.408 106.483L259.407 106.425L259.375 105.871L258.887 105.605L258.408 106.483ZM261 -1C256.029 -1 252 3.02944 252 8H254C254 4.13401 257.134 1 261 1V-1ZM265 -1H261V1H265V-1ZM274 8C274 3.02944 269.971 -1 265 -1V1C268.866 1 272 4.13401 272 8H274ZM274 18.8987V8H272V18.8987H274ZM333.631 17.8987H273V19.8987H333.631V17.8987ZM394.54 24.2593C388.24 21.0497 381.011 19.47 371.385 18.6835C361.77 17.8979 349.676 17.8987 333.631 17.8987V19.8987C349.709 19.8987 361.708 19.8995 371.222 20.6768C380.725 21.4532 387.661 22.9993 393.632 26.0413L394.54 24.2593ZM420.043 49.7626C414.448 38.7819 405.52 29.8543 394.54 24.2593L393.632 26.0413C404.236 31.4446 412.858 40.0662 418.261 50.6706L420.043 49.7626ZM426.404 110.671C426.404 94.626 426.404 82.532 425.619 72.9173C424.832 63.2909 423.252 56.0618 420.043 49.7626L418.261 50.6706C421.303 56.6409 422.849 63.5774 423.625 73.0801C424.403 82.5945 424.404 94.593 424.404 110.671H426.404ZM426.404 142.218V110.671H424.404V142.218H426.404ZM420.043 203.127C423.252 196.827 424.832 189.598 425.619 179.972C426.404 170.357 426.404 158.263 426.404 142.218H424.404C424.404 158.296 424.403 170.295 423.625 179.809C422.849 189.312 421.303 196.248 418.261 202.219L420.043 203.127ZM394.54 228.63C405.52 223.035 414.448 214.107 420.043 203.127L418.261 202.219C412.858 212.823 404.236 221.445 393.632 226.848L394.54 228.63ZM333.631 234.99C349.676 234.99 361.77 234.991 371.385 234.206C381.011 233.419 388.24 231.839 394.54 228.63L393.632 226.848C387.661 229.89 380.725 231.436 371.222 232.212C361.708 232.99 349.709 232.99 333.631 232.99V234.99ZM192.149 234.99H333.631V232.99H192.149V234.99ZM131.24 228.63C137.539 231.839 144.768 233.419 154.395 234.206C164.009 234.991 176.103 234.99 192.149 234.99V232.99C176.07 232.99 164.072 232.99 154.557 232.212C145.055 231.436 138.118 229.89 132.148 226.848L131.24 228.63ZM105.737 203.127C111.332 214.107 120.259 223.035 131.24 228.63L132.148 226.848C121.543 221.445 112.922 212.823 107.519 202.219L105.737 203.127ZM99.376 142.218C99.376 158.263 99.3752 170.357 100.161 179.972C100.947 189.598 102.527 196.827 105.737 203.127L107.519 202.219C104.477 196.248 102.931 189.312 102.154 179.809C101.377 170.295 101.376 158.296 101.376 142.218H99.376ZM99.376 110.671V142.218H101.376V110.671H99.376ZM105.737 49.7626C102.527 56.0618 100.947 63.2909 100.161 72.9173C99.3752 82.532 99.376 94.626 99.376 110.671H101.376C101.376 94.593 101.377 82.5945 102.154 73.0801C102.931 63.5774 104.477 56.6409 107.519 50.6706L105.737 49.7626ZM131.24 24.2593C120.259 29.8543 111.332 38.7819 105.737 49.7626L107.519 50.6706C112.922 40.0662 121.543 31.4446 132.148 26.0413L131.24 24.2593ZM192.148 17.8987C176.103 17.8987 164.009 17.8979 154.395 18.6835C144.768 19.47 137.539 21.0497 131.24 24.2593L132.148 26.0413C138.118 22.9993 145.055 21.4532 154.557 20.6768C164.072 19.8995 176.07 19.8987 192.148 19.8987V17.8987ZM253 17.8987H192.148V19.8987H253V17.8987ZM252 8V18.8987H254V8H252ZM319.067 74.2608C324.519 69.0109 333.603 72.8744 333.603 80.4428H335.603C335.603 71.1107 324.402 66.3469 317.68 72.8202L319.067 74.2608ZM319.021 74.3055L319.067 74.2608L317.68 72.8203L317.633 72.865L319.021 74.3055ZM318.998 74.3297L319.043 74.2836L317.611 72.8869L317.566 72.933L318.998 74.3297ZM267.428 127.173L318.998 74.3298L317.566 72.9329L265.997 125.776L267.428 127.173ZM265.713 106.549V126.474H267.713V106.549H265.713ZM263.831 101.567C265.04 102.882 265.713 104.605 265.713 106.549H267.713C267.713 104.126 266.867 101.914 265.303 100.213L263.831 101.567ZM259.596 99.2281C261.124 99.5529 262.656 100.29 263.831 101.567L265.303 100.213C263.796 98.5746 261.864 97.6656 260.012 97.2718L259.596 99.2281ZM250.603 101.735C253.119 99.4058 256.619 98.5952 259.596 99.2281L260.012 97.2718C256.427 96.5095 252.257 97.4779 249.244 100.267L250.603 101.735ZM194.637 151.525L250.588 101.748L249.259 100.254L193.307 150.031L194.637 151.525ZM194.597 151.56L194.636 151.525L193.307 150.03L193.268 150.065L194.597 151.56ZM194.578 151.578L194.616 151.543L193.25 150.082L193.211 150.118L194.578 151.578ZM200.442 166.427C192.658 166.427 188.894 156.897 194.578 151.578L193.211 150.118C186.203 156.676 190.844 168.427 200.442 168.427V166.427ZM235.458 166.427L200.442 166.427L200.442 168.427L235.458 168.427V166.427ZM239.651 164.66C238.549 165.79 237.037 166.427 235.458 166.427V168.427C237.576 168.427 239.604 167.572 241.083 166.057L239.651 164.66ZM257.695 146.171L239.651 164.66L241.083 166.057L259.126 147.568L257.695 146.171ZM259.41 160.568V146.869H257.41V160.568H259.41ZM265.269 166.427C262.033 166.427 259.41 163.804 259.41 160.568H257.41C257.41 164.908 260.929 168.427 265.269 168.427L265.269 166.427ZM325.02 166.426L265.269 166.427L265.269 168.427L325.02 168.426L325.02 166.426ZM333.603 157.844C333.603 162.584 329.76 166.426 325.02 166.426V168.426C330.865 168.426 335.603 163.689 335.603 157.844H333.603ZM333.603 80.4428V157.844H335.603V80.4428H333.603ZM265.713 138.362V142.909H267.713V138.362H265.713ZM323.448 78.793L265.997 137.663L267.428 139.06L324.88 80.1899L323.448 78.793ZM327.3 80.4428C327.3 78.4564 324.948 77.4328 323.493 78.7501L324.835 80.2328C325.012 80.0727 325.3 80.2007 325.3 80.4428H327.3ZM327.3 157.844V80.4428H325.3V157.844H327.3ZM325.02 160.124C326.28 160.124 327.3 159.103 327.3 157.844H325.3C325.3 157.999 325.175 158.124 325.02 158.124V160.124ZM266.713 160.124L325.02 160.124L325.02 158.124L266.713 158.124L266.713 160.124ZM265.713 142.909V159.124H267.713V142.909H265.713ZM259.41 134.982V106.549H257.41V134.982H259.41ZM235.565 159.823L259.126 135.68L257.695 134.284L234.134 158.426L235.565 159.823ZM200.442 160.125L234.85 160.124V158.124L200.442 158.125L200.442 160.125ZM198.841 156.222C197.395 157.644 198.394 160.125 200.442 160.125V158.125C200.192 158.125 200.067 157.821 200.243 157.648L198.841 156.222ZM254.812 106.426L198.878 156.187L200.207 157.682L256.141 107.921L254.812 106.426ZM254.851 106.391L254.812 106.426L256.141 107.921L256.18 107.886L254.851 106.391ZM254.871 106.373L254.832 106.408L256.199 107.869L256.237 107.833L254.871 106.373ZM258.285 105.393C257.221 105.166 255.82 105.484 254.871 106.373L256.237 107.833C256.692 107.407 257.421 107.254 257.869 107.349L258.285 105.393ZM258.887 105.605C258.738 105.524 258.541 105.447 258.285 105.393L257.869 107.349C257.954 107.367 257.965 107.381 257.93 107.362L258.887 105.605ZM259.41 106.549C259.41 106.505 259.409 106.464 259.407 106.425L257.41 106.541C257.41 106.538 257.41 106.54 257.41 106.549H259.41Z" fill="#202020" mask="url(#path-2-inside-1_3_2020)"/>
</g>
<defs>
<filter id="filter0_ii_3_2020" x="0" y="0" width="521" height="539.12" filterUnits="userSpaceOnUse" color-interpolation-filters="sRGB">
<feFlood flood-opacity="0" result="BackgroundImageFix"/>
<feBlend mode="normal" in="SourceGraphic" in2="BackgroundImageFix" result="shape"/>
<feColorMatrix in="SourceAlpha" type="matrix" values="0 0 0 0 0 0 0 0 0 0 0 0 0 0 0 0 0 0 127 0" result="hardAlpha"/>
<feOffset dy="4"/>
<feGaussianBlur stdDeviation="15"/>
<feComposite in2="hardAlpha" operator="arithmetic" k2="-1" k3="1"/>
<feColorMatrix type="matrix" values="0 0 0 0 0.315544 0 0 0 0 0.315544 0 0 0 0 0.315544 0 0 0 1 0"/>
<feBlend mode="normal" in2="shape" result="effect1_innerShadow_3_2020"/>
<feColorMatrix in="SourceAlpha" type="matrix" values="0 0 0 0 0 0 0 0 0 0 0 0 0 0 0 0 0 0 127 0" result="hardAlpha"/>
<feOffset/>
<feGaussianBlur stdDeviation="3"/>
<feComposite in2="hardAlpha" operator="arithmetic" k2="-1" k3="1"/>
<feColorMatrix type="matrix" values="0 0 0 0 1 0 0 0 0 1 0 0 0 0 1 0 0 0 1 0"/>
<feBlend mode="normal" in2="effect1_innerShadow_3_2020" result="effect2_innerShadow_3_2020"/>
</filter>
</defs>
</svg>
