<svg width="1281" height="158" viewBox="0 0 1281 158" fill="none" xmlns="http://www.w3.org/2000/svg">
<path d="M0.986634 2.75756H52.4279L87.8124 88.9886H89.5965L124.981 2.75756H176.422V155H135.983V66.9848H134.793L100.896 153.811H76.5132L42.6154 66.3901H41.426V155H0.986634V2.75756ZM339.308 78.8788C339.308 95.8276 336.013 110.125 329.421 121.771C322.83 133.368 313.935 142.164 302.734 148.161C291.534 154.108 279.046 157.081 265.269 157.081C251.392 157.081 238.854 154.083 227.654 148.087C216.503 142.041 207.632 133.219 201.041 121.623C194.5 109.976 191.229 95.7285 191.229 78.8788C191.229 61.9299 194.5 47.6572 201.041 36.0606C207.632 24.4144 216.503 15.6179 227.654 9.67092C238.854 3.67439 251.392 0.676123 265.269 0.676123C279.046 0.676123 291.534 3.67439 302.734 9.67092C313.935 15.6179 322.83 24.4144 329.421 36.0606C336.013 47.6572 339.308 61.9299 339.308 78.8788ZM296.787 78.8788C296.787 69.7601 295.573 62.0786 293.145 55.8343C290.766 49.5404 287.223 44.7828 282.515 41.5615C277.856 38.2907 272.108 36.6553 265.269 36.6553C258.429 36.6553 252.656 38.2907 247.948 41.5615C243.289 44.7828 239.746 49.5404 237.318 55.8343C234.939 62.0786 233.75 69.7601 233.75 78.8788C233.75 87.9975 234.939 95.7038 237.318 101.998C239.746 108.242 243.289 113 247.948 116.27C252.656 119.492 258.429 121.102 265.269 121.102C272.108 121.102 277.856 119.492 282.515 116.27C287.223 113 290.766 108.242 293.145 101.998C295.573 95.7038 296.787 87.9975 296.787 78.8788ZM354.245 2.75756H405.686L441.071 88.9886H442.855L478.239 2.75756H529.68V155H489.241V66.9848H488.052L454.154 153.811H429.771L395.874 66.3901H394.684V155H354.245V2.75756ZM545.082 155V2.75756H654.803V36.0606H586.413V62.2273H649.154V95.5303H586.413V121.697H654.506V155H545.082ZM802.84 2.75756V155H768.348L713.338 75.0133H712.446V155H671.115V2.75756H706.202L760.32 82.447H761.509V2.75756H802.84ZM814.042 36.0606V2.75756H946.362V36.0606H900.57V155H859.833V36.0606H814.042ZM1047.83 2.75756H1089.16V100.288C1089.16 111.884 1086.38 121.92 1080.83 130.394C1075.33 138.819 1067.65 145.336 1057.79 149.945C1047.93 154.504 1036.48 156.784 1023.44 156.784C1010.31 156.784 998.814 154.504 988.952 149.945C979.09 145.336 971.408 138.819 965.907 130.394C960.456 121.92 957.73 111.884 957.73 100.288V2.75756H999.061V96.7197C999.061 101.428 1000.1 105.64 1002.18 109.357C1004.27 113.024 1007.14 115.899 1010.81 117.98C1014.52 120.062 1018.74 121.102 1023.44 121.102C1028.2 121.102 1032.41 120.062 1036.08 117.98C1039.75 115.899 1042.62 113.024 1044.7 109.357C1046.79 105.64 1047.83 101.428 1047.83 96.7197V2.75756ZM1104.61 2.75756H1156.06L1191.44 88.9886H1193.22L1228.61 2.75756H1280.05V155H1239.61V66.9848H1238.42L1204.52 153.811H1180.14L1146.24 66.3901H1145.05V155H1104.61V2.75756Z" fill="url(#paint0_linear_3_2017)"/>
<defs>
<linearGradient id="paint0_linear_3_2017" x1="640.5" y1="1" x2="640.5" y2="157" gradientUnits="userSpaceOnUse">
<stop stop-color="#0B0B0B"/>
<stop offset="1"/>
</linearGradient>
</defs>
</svg>
