<svg width="1183" height="911" viewBox="0 0 1183 911" fill="none" xmlns="http://www.w3.org/2000/svg">
<g opacity="0.31">
<rect x="0.5" y="308.5" width="117" height="294" rx="22.5" fill="white" fill-opacity="0.04" stroke="#202020"/>
<rect x="133.5" y="185.5" width="117" height="540" rx="22.5" fill="white" fill-opacity="0.04" stroke="#202020"/>
<rect x="266.5" y="73.5" width="117" height="764" rx="22.5" fill="white" fill-opacity="0.04" stroke="#202020"/>
<rect x="399.5" y="0.5" width="117" height="910" rx="22.5" fill="white" fill-opacity="0.04" stroke="#202020"/>
<rect x="532.5" y="0.5" width="117" height="910" rx="22.5" fill="white" fill-opacity="0.04" stroke="#202020"/>
<rect x="665.5" y="0.5" width="117" height="910" rx="22.5" fill="white" fill-opacity="0.04" stroke="#202020"/>
<rect x="798.5" y="149.5" width="117" height="612" rx="22.5" fill="white" fill-opacity="0.04" stroke="#202020"/>
<rect x="931.5" y="268.5" width="117" height="374" rx="22.5" fill="white" fill-opacity="0.04" stroke="#202020"/>
<rect x="1064.5" y="308.5" width="117" height="294" rx="22.5" fill="white" fill-opacity="0.04" stroke="#202020"/>
</g>
<path d="M647.029 244.985C647.013 243.894 647.894 243 648.986 243C650.089 243 650.974 243.911 650.942 245.014L649.014 312.004C649.006 312.28 648.78 312.5 648.504 312.5C648.224 312.5 647.997 312.276 647.993 311.996L647.029 244.985Z" fill="url(#paint0_linear_0_1)"/>
<path d="M914.012 350.994C914.005 349.895 914.895 349 915.994 349C917.098 349 917.989 349.902 917.976 351.006L916.006 518.002C916.003 518.278 915.778 518.5 915.501 518.5C915.224 518.5 914.999 518.276 914.997 517.999L914.012 350.994Z" fill="url(#paint1_linear_0_1)"/>
<path d="M132.012 430.994C132.005 429.895 132.895 429 133.994 429C135.098 429 135.989 429.902 135.976 431.006L134.006 598.002C134.003 598.278 133.778 598.5 133.501 598.5C133.224 598.5 132.999 598.276 132.997 597.999L132.012 430.994Z" fill="url(#paint2_linear_0_1)"/>
<path d="M1179.01 510.994C1179.01 509.895 1179.89 509 1180.99 509C1182.1 509 1182.99 509.902 1182.98 511.006L1181.01 678.002C1181 678.278 1180.78 678.5 1180.5 678.5C1180.22 678.5 1180 678.276 1180 677.999L1179.01 510.994Z" fill="url(#paint3_linear_0_1)"/>
<path d="M265.012 174.994C265.005 173.895 265.895 173 266.994 173C268.098 173 268.989 173.902 268.976 175.006L267.006 342.002C267.003 342.278 266.778 342.5 266.501 342.5C266.224 342.5 265.999 342.276 265.997 341.999L265.012 174.994Z" fill="url(#paint4_linear_0_1)"/>
<defs>
<linearGradient id="paint0_linear_0_1" x1="649" y1="243" x2="649" y2="412.5" gradientUnits="userSpaceOnUse">
<stop stop-color="white"/>
<stop offset="1" stop-color="#999999" stop-opacity="0"/>
</linearGradient>
<linearGradient id="paint1_linear_0_1" x1="916" y1="349" x2="916" y2="518.5" gradientUnits="userSpaceOnUse">
<stop stop-color="white"/>
<stop offset="1" stop-color="#999999" stop-opacity="0"/>
</linearGradient>
<linearGradient id="paint2_linear_0_1" x1="134" y1="429" x2="134" y2="598.5" gradientUnits="userSpaceOnUse">
<stop stop-color="white"/>
<stop offset="1" stop-color="#999999" stop-opacity="0"/>
</linearGradient>
<linearGradient id="paint3_linear_0_1" x1="1181" y1="509" x2="1181" y2="678.5" gradientUnits="userSpaceOnUse">
<stop stop-color="white"/>
<stop offset="1" stop-color="#999999" stop-opacity="0"/>
</linearGradient>
<linearGradient id="paint4_linear_0_1" x1="267" y1="173" x2="267" y2="342.5" gradientUnits="userSpaceOnUse">
<stop stop-color="white"/>
<stop offset="1" stop-color="#999999" stop-opacity="0"/>
</linearGradient>
</defs>
</svg>
