<svg width="663" height="443" viewBox="0 0 663 443" fill="none" xmlns="http://www.w3.org/2000/svg">
<g clip-path="url(#clip0_130_2446)">
<rect width="663" height="443" fill="black"/>
<g filter="url(#filter0_f_130_2446)">
<ellipse cx="633.189" cy="394.781" rx="159.567" ry="319" transform="rotate(-58.1795 633.189 394.781)" fill="#171717"/>
</g>
<g filter="url(#filter1_f_130_2446)">
<ellipse cx="633.189" cy="394.781" rx="159.567" ry="319" transform="rotate(-58.1795 633.189 394.781)" fill="url(#paint0_linear_130_2446)"/>
</g>
<circle cx="592" cy="189" r="1" fill="#3D3D3D"/>
<circle cx="620" cy="301" r="1" fill="#3D3D3D"/>
<circle cx="588" cy="342" r="1" fill="#3D3D3D"/>
<circle cx="536" cy="251" r="1" fill="#3D3D3D"/>
<circle cx="536" cy="303" r="1" fill="#3D3D3D"/>
<circle cx="536" cy="355" r="1" fill="#3D3D3D"/>
<circle cx="452" cy="201" r="1" fill="#3D3D3D"/>
<circle cx="602" cy="159" r="1" fill="#3D3D3D"/>
<circle cx="529" cy="113" r="1" fill="#3D3D3D"/>
<path d="M499.749 187.11L500.849 190.084L503.824 191.185L500.849 192.286L499.749 195.26L498.648 192.286L495.674 191.185L498.648 190.084L499.749 187.11Z" fill="white"/>
<path d="M562.909 195.26L564.56 199.721L569.021 201.372L564.56 203.023L562.909 207.485L561.258 203.023L556.797 201.372L561.258 199.721L562.909 195.26Z" fill="white"/>
<path d="M536.831 242.936L538.812 248.289L544.166 250.27L538.812 252.251L536.831 257.605L534.85 252.251L529.496 250.27L534.85 248.289L536.831 242.936Z" fill="white"/>
<path d="M510.344 282.462L511.445 285.436L514.419 286.537L511.445 287.637L510.344 290.612L509.244 287.637L506.27 286.537L509.244 285.436L510.344 282.462Z" fill="white"/>
<path d="M527.458 195.26L528.558 198.234L531.533 199.335L528.558 200.435L527.458 203.41L526.357 200.435L523.383 199.335L526.357 198.234L527.458 195.26Z" fill="white"/>
<path d="M491.599 304.058L492.7 307.033L495.674 308.133L492.7 309.234L491.599 312.208L490.499 309.234L487.524 308.133L490.499 307.033L491.599 304.058Z" fill="white"/>
<path d="M566.985 264.94L568.085 267.914L571.06 269.015L568.085 270.115L566.985 273.09L565.884 270.115L562.91 269.015L565.884 267.914L566.985 264.94Z" fill="white"/>
<path d="M507.899 218.079L509.44 222.243L513.604 223.784L509.44 225.324L507.899 229.488L506.358 225.324L502.194 223.784L506.358 222.243L507.899 218.079Z" fill="white"/>
<path d="M542.535 173.663L544.076 177.827L548.24 179.368L544.076 180.908L542.535 185.072L540.994 180.908L536.83 179.368L540.994 177.827L542.535 173.663Z" fill="white"/>
<path d="M557.001 229.489L557.827 231.719L560.058 232.545L557.827 233.37L557.001 235.601L556.176 233.37L553.945 232.545L556.176 231.719L557.001 229.489Z" fill="white"/>
<path d="M491.804 251.493L492.63 253.724L494.86 254.549L492.63 255.374L491.804 257.605L490.979 255.374L488.748 254.549L490.979 253.724L491.804 251.493Z" fill="white"/>
<path d="M564.947 299.983L566.048 302.958L569.022 304.058L566.048 305.159L564.947 308.133L563.846 305.159L560.872 304.058L563.846 302.958L564.947 299.983Z" fill="white"/>
<circle cx="509.121" cy="196.482" r="1.22246" fill="white"/>
<circle cx="517.679" cy="174.885" r="1.22246" fill="white"/>
<circle cx="568.206" cy="225.006" r="1.22246" fill="white"/>
<circle cx="503.417" cy="246.195" r="1.22246" fill="white"/>
<circle cx="550.686" cy="275.127" r="1.22246" fill="white"/>
<circle cx="536.831" cy="277.572" r="1.22246" fill="white"/>
<circle cx="531.941" cy="266.977" r="1.22246" fill="white"/>
<circle cx="545.388" cy="286.536" r="1.22246" fill="white"/>
<circle cx="569.837" cy="287.759" r="1.22246" fill="white"/>
<circle cx="489.97" cy="298.761" r="1.22246" fill="white"/>
<circle cx="548.24" cy="317.098" r="1.22246" fill="white"/>
<circle cx="525.626" cy="302.225" r="1.83368" fill="white"/>
<circle cx="539.683" cy="225.821" r="2.8524" fill="white"/>
<circle cx="493.434" cy="217.06" r="2.24117" fill="white"/>
<circle cx="517.679" cy="281.239" r="1.22246" fill="white"/>
<circle cx="564.132" cy="263.717" r="1.22246" fill="white"/>
<path d="M505.215 247.01C505.208 248.185 505.224 249.354 505.264 250.515C505.385 254.098 505.726 257.611 506.269 261.035C506.793 264.341 507.507 267.564 508.396 270.686C509.392 274.188 510.609 277.562 512.025 280.784C513.521 284.187 515.24 287.42 517.158 290.453C519.048 293.444 521.133 296.241 523.387 298.815C526.139 301.957 529.145 304.767 532.363 307.194C535.413 309.493 538.653 311.449 542.049 313.016C542.627 313.283 543.21 313.538 543.797 313.783C549.429 316.125 555.46 317.411 561.735 317.449C593.187 317.642 618.876 286.417 619.113 247.707C619.35 208.997 594.045 177.46 562.593 177.268C557.66 177.238 552.87 177.98 548.297 179.403C546.292 180.027 544.329 180.781 542.415 181.658C539.512 182.989 536.72 184.602 534.061 186.47C529.886 189.405 526.038 192.97 522.606 197.06C519.811 200.391 517.29 204.071 515.091 208.042C513.329 211.227 511.773 214.598 510.448 218.129C509.185 221.492 508.133 224.998 507.31 228.623C506.538 232.027 505.969 235.535 505.62 239.127C505.369 241.714 505.232 244.344 505.215 247.01Z" fill="white"/>
<path d="M534.061 186.47L588.819 186.805M534.061 186.47C529.886 189.405 526.038 192.97 522.606 197.06M534.061 186.47C536.72 184.602 539.512 182.989 542.415 181.658C544.329 180.781 546.292 180.027 548.297 179.403M522.606 197.06L595.763 197.507M522.606 197.06C519.811 200.391 517.29 204.071 515.091 208.042M515.091 208.042L595.696 208.535M515.091 208.042C513.329 211.227 511.773 214.598 510.448 218.129M510.448 218.129L595.634 218.65M510.448 218.129C509.185 221.492 508.133 224.998 507.31 228.623M507.31 228.623L595.57 229.163M507.31 228.623C506.538 232.027 505.969 235.535 505.62 239.127M505.62 239.127C505.369 241.714 505.232 244.344 505.215 247.01C505.208 248.185 505.224 249.354 505.264 250.515M505.62 239.127L595.505 239.677M505.264 250.515L595.436 251.067M505.264 250.515C505.385 254.098 505.726 257.611 506.269 261.035M506.269 261.035L593.181 261.567M506.269 261.035C506.793 264.341 507.507 267.564 508.396 270.686M508.396 270.686L590.932 271.191M508.396 270.686C509.392 274.188 510.609 277.562 512.025 280.784M512.025 280.784L579.48 281.197M512.025 280.784C513.521 284.187 515.24 287.42 517.158 290.453M517.158 290.453L564.527 290.743M517.158 290.453C519.048 293.444 521.133 296.241 523.387 298.815M523.387 298.815L564.476 299.066M523.387 298.815C526.139 301.957 529.145 304.767 532.363 307.194M532.363 307.194L576.691 307.465M532.363 307.194C535.413 309.493 538.653 311.449 542.049 313.016C542.627 313.283 543.21 313.538 543.797 313.783M543.797 313.783C549.429 316.125 555.46 317.411 561.735 317.449C593.187 317.642 618.876 286.417 619.113 247.707C619.35 208.997 594.045 177.46 562.593 177.268C557.66 177.238 552.87 177.98 548.297 179.403M543.797 313.783L571.834 313.954M552.94 179.837L548.297 179.403" stroke="black" stroke-width="1.21399"/>
<ellipse cx="52.5691" cy="70.0921" rx="52.5691" ry="70.0921" transform="matrix(-0.999981 -0.00611583 -0.00611583 0.999981 619.542 177.616)" fill="white" stroke="black" stroke-width="1.21399"/>
<path d="M567.85 177.3L563.494 317.46" stroke="black" stroke-width="1.21399"/>
<path d="M513.953 250.568L619.105 249.459" stroke="black" stroke-width="1.21399"/>
<path d="M514.769 261.087L618.747 236.753" stroke="black" stroke-width="1.21399"/>
<path d="M525.102 290.502L610.158 207.787" stroke="black" stroke-width="1.21399"/>
<path d="M530.746 298.861L602.781 196.351" stroke="black" stroke-width="1.21399"/>
<path d="M539.02 306.797L594.075 187.099" stroke="black" stroke-width="1.21399"/>
<path d="M549.495 313.432L582.291 180.017" stroke="black" stroke-width="1.21399"/>
<path d="M608.338 290.135L522.538 208.127" stroke="black" stroke-width="1.21399"/>
<path d="M593.126 271.205L518.538 218.178" stroke="black" stroke-width="1.21399"/>
<path d="M588.94 310.169L540.63 186.772" stroke="black" stroke-width="1.21399"/>
<path d="M600.39 301.477L529.62 197.218" stroke="black" stroke-width="1.21399"/>
<path d="M577.519 315.356L552.501 179.835" stroke="black" stroke-width="1.21399"/>
<path d="M614.559 276.154L515.406 228.234" stroke="black" stroke-width="1.21399"/>
<path d="M618.154 261.282L514.463 239.181" stroke="black" stroke-width="1.21399"/>
<path d="M615.944 224.299L517.145 270.911" stroke="black" stroke-width="1.21399"/>
<ellipse cx="44.6837" cy="59.5783" rx="44.6837" ry="59.5783" transform="matrix(-0.999981 -0.00611583 -0.00611583 0.999981 611.591 188.082)" fill="white" stroke="black" stroke-width="1.21399"/>
<ellipse cx="35.9222" cy="49.0644" rx="35.9222" ry="49.0644" transform="matrix(-0.999981 -0.00611583 -0.00611583 0.999981 603.648 198.547)" fill="white" stroke="black" stroke-width="1.21399"/>
<path fill-rule="evenodd" clip-rule="evenodd" d="M530.91 144C496.028 144 467.75 172.278 467.75 207.16V334.331H626.654V207.16C626.654 172.278 598.376 144 563.494 144H530.91ZM528.794 156.003C501.675 156.003 479.69 177.987 479.69 205.106V322.409H577.897V205.106C577.897 177.987 555.913 156.003 528.794 156.003Z" fill="#FFF9F9"/>
<path d="M627 334.051H566.143V371.381H538.055V406.614H509.152V443.169H627V334.051Z" fill="#FFF9F9"/>
<path fill-rule="evenodd" clip-rule="evenodd" d="M528.652 144C495.008 144 467.733 171.274 467.733 204.919V334.296H589.572V204.919C589.572 171.274 562.297 144 528.652 144ZM528.793 156.003C501.674 156.003 479.69 177.987 479.69 205.106V322.409H577.896V205.106C577.896 177.987 555.912 156.003 528.793 156.003Z" fill="#9E9E9E"/>
<path d="M419.243 339.754C419.243 336.74 421.686 334.298 424.699 334.298H566.622V371.379H419.243V339.754Z" fill="#737373" stroke="black" stroke-width="0.407486"/>
<path d="M382.569 376.834C382.569 373.821 385.012 371.378 388.025 371.378H537.821V406.83H382.569V376.834Z" fill="#737373" stroke="black" stroke-width="0.407486"/>
<path d="M348.748 415.889C348.748 411.068 352.656 407.16 357.477 407.16H509.152V443.169H348.748L348.748 415.889Z" fill="#737373" stroke="black" stroke-width="0.407486"/>
</g>
<defs>
<filter id="filter0_f_130_2446" x="249.301" y="78.7338" width="767.777" height="632.094" filterUnits="userSpaceOnUse" color-interpolation-filters="sRGB">
<feFlood flood-opacity="0" result="BackgroundImageFix"/>
<feBlend mode="normal" in="SourceGraphic" in2="BackgroundImageFix" result="shape"/>
<feGaussianBlur stdDeviation="50" result="effect1_foregroundBlur_130_2446"/>
</filter>
<filter id="filter1_f_130_2446" x="249.301" y="78.7338" width="767.777" height="632.094" filterUnits="userSpaceOnUse" color-interpolation-filters="sRGB">
<feFlood flood-opacity="0" result="BackgroundImageFix"/>
<feBlend mode="normal" in="SourceGraphic" in2="BackgroundImageFix" result="shape"/>
<feGaussianBlur stdDeviation="50" result="effect1_foregroundBlur_130_2446"/>
</filter>
<linearGradient id="paint0_linear_130_2446" x1="605.396" y1="361.787" x2="641.199" y2="238.359" gradientUnits="userSpaceOnUse">
<stop stop-color="white" stop-opacity="0.15"/>
<stop offset="1" stop-color="#999999" stop-opacity="0"/>
</linearGradient>
<clipPath id="clip0_130_2446">
<rect width="663" height="443" fill="white"/>
</clipPath>
</defs>
</svg>
