<svg width="340" height="510" viewBox="0 0 340 510" fill="none" xmlns="http://www.w3.org/2000/svg">
<g clip-path="url(#clip0_205_799)">
<path d="M0 0H340V510H0V0Z" fill="black"/>
<g filter="url(#filter0_f_205_799)">
<ellipse cx="42.6104" cy="173.248" rx="42.6104" ry="173.248" transform="matrix(-0.829554 -0.558427 -0.558427 0.829554 21.1875 27.092)" fill="#252525"/>
</g>
<circle cx="269" cy="279.502" r="1" fill="#3D3D3D"/>
<circle cx="297" cy="391.502" r="1" fill="#3D3D3D"/>
<circle cx="265" cy="432.502" r="1" fill="#3D3D3D"/>
<circle cx="213" cy="341.502" r="1" fill="#3D3D3D"/>
<circle cx="213" cy="393.502" r="1" fill="#3D3D3D"/>
<circle cx="213" cy="445.502" r="1" fill="#3D3D3D"/>
<circle cx="129" cy="291.502" r="1" fill="#3D3D3D"/>
<circle cx="279" cy="249.502" r="1" fill="#3D3D3D"/>
<circle cx="206" cy="203.502" r="1" fill="#3D3D3D"/>
<circle cx="123" cy="174.502" r="1" fill="#3D3D3D"/>
<circle cx="151" cy="286.502" r="1" fill="#3D3D3D"/>
<circle cx="119" cy="327.502" r="1" fill="#3D3D3D"/>
<circle cx="67" cy="236.502" r="1" fill="#3D3D3D"/>
<circle cx="67" cy="288.502" r="1" fill="#3D3D3D"/>
<circle cx="67" cy="340.502" r="1" fill="#3D3D3D"/>
<circle cx="279" cy="236.502" r="1" fill="#3D3D3D"/>
<circle cx="206" cy="190.502" r="1" fill="#3D3D3D"/>
<circle cx="133" cy="144.502" r="1" fill="#3D3D3D"/>
<circle cx="60" cy="98.5024" r="1" fill="#3D3D3D"/>
<path d="M257.093 318.525L258.121 321.39L260.901 322.45L258.121 323.51L257.093 326.375L256.065 323.51L253.285 322.45L256.065 321.39L257.093 318.525Z" fill="white"/>
<path d="M316.111 326.375L317.654 330.673L321.823 332.263L317.654 333.853L316.111 338.15L314.569 333.853L310.4 332.263L314.569 330.673L316.111 326.375Z" fill="white"/>
<path d="M291.745 372.298L293.596 377.455L298.599 379.363L293.596 381.271L291.745 386.428L289.894 381.271L284.891 379.363L289.894 377.455L291.745 372.298Z" fill="white"/>
<path d="M266.996 410.371L268.024 413.236L270.804 414.296L268.024 415.356L266.996 418.221L265.968 415.356L263.188 414.296L265.968 413.236L266.996 410.371Z" fill="white"/>
<path d="M282.986 326.375L284.015 329.24L286.794 330.3L284.015 331.36L282.986 334.225L281.958 331.36L279.179 330.3L281.958 329.24L282.986 326.375Z" fill="white"/>
<path d="M249.479 431.173L250.507 434.038L253.287 435.098L250.507 436.158L249.479 439.023L248.451 436.158L245.671 435.098L248.451 434.038L249.479 431.173Z" fill="white"/>
<path d="M319.919 393.493L320.947 396.358L323.726 397.418L320.947 398.478L319.919 401.343L318.89 398.478L316.111 397.418L318.89 396.358L319.919 393.493Z" fill="white"/>
<path d="M264.71 348.355L266.149 352.366L270.04 353.85L266.149 355.334L264.71 359.345L263.27 355.334L259.379 353.85L263.27 352.366L264.71 348.355Z" fill="white"/>
<path d="M297.075 305.572L298.515 309.583L302.406 311.067L298.515 312.551L297.075 316.562L295.635 312.551L291.744 311.067L295.635 309.583L297.075 305.572Z" fill="white"/>
<path d="M310.592 359.345L311.363 361.494L313.448 362.289L311.363 363.084L310.592 365.233L309.821 363.084L307.736 362.289L309.821 361.494L310.592 359.345Z" fill="white"/>
<path d="M249.669 380.54L250.44 382.689L252.525 383.484L250.44 384.279L249.669 386.428L248.898 384.279L246.813 383.484L248.898 382.689L249.669 380.54Z" fill="white"/>
<path d="M318.016 427.248L319.044 430.113L321.823 431.173L319.044 432.233L318.016 435.098L316.987 432.233L314.208 431.173L316.987 430.113L318.016 427.248Z" fill="white"/>
<ellipse cx="265.852" cy="327.553" rx="1.14227" ry="1.17751" fill="white"/>
<ellipse cx="273.848" cy="306.75" rx="1.14227" ry="1.17751" fill="white"/>
<ellipse cx="321.061" cy="355.027" rx="1.14227" ry="1.17751" fill="white"/>
<ellipse cx="260.521" cy="375.438" rx="1.14227" ry="1.17751" fill="white"/>
<ellipse cx="304.69" cy="403.305" rx="1.14227" ry="1.17751" fill="white"/>
<ellipse cx="291.743" cy="405.66" rx="1.14227" ry="1.17751" fill="white"/>
<ellipse cx="287.176" cy="395.455" rx="1.14227" ry="1.17751" fill="white"/>
<ellipse cx="299.74" cy="414.295" rx="1.14227" ry="1.17751" fill="white"/>
<ellipse cx="322.585" cy="415.473" rx="1.14227" ry="1.17751" fill="white"/>
<ellipse cx="247.956" cy="426.071" rx="1.14227" ry="1.17751" fill="white"/>
<ellipse cx="302.404" cy="443.733" rx="1.14227" ry="1.17751" fill="white"/>
<ellipse cx="281.273" cy="429.407" rx="1.7134" ry="1.76626" fill="white"/>
<ellipse cx="294.41" cy="355.813" rx="2.66529" ry="2.74752" fill="white"/>
<ellipse cx="251.194" cy="347.374" rx="2.09416" ry="2.15877" fill="white"/>
<ellipse cx="273.848" cy="409.193" rx="1.14227" ry="1.17751" fill="white"/>
<ellipse cx="317.253" cy="392.315" rx="1.14227" ry="1.17751" fill="white"/>
<path d="M262.204 376.223C262.197 377.355 262.212 378.481 262.249 379.599C262.362 383.05 262.68 386.434 263.188 389.732C263.678 392.917 264.345 396.021 265.175 399.028C266.107 402.401 267.243 405.652 268.567 408.755C269.965 412.033 271.571 415.147 273.363 418.069C275.129 420.95 277.077 423.644 279.184 426.123C281.755 429.149 284.564 431.856 287.571 434.194C290.42 436.409 293.448 438.292 296.621 439.802C297.161 440.059 297.706 440.305 298.255 440.54C303.517 442.796 309.152 444.035 315.016 444.072C344.405 444.257 368.409 414.181 368.63 376.894C368.851 339.607 345.206 309.23 315.817 309.045C311.209 309.016 306.732 309.731 302.459 311.102C300.586 311.702 298.752 312.429 296.963 313.274C294.251 314.556 291.642 316.109 289.157 317.909C285.256 320.736 281.661 324.17 278.454 328.109C275.842 331.318 273.486 334.862 271.432 338.688C269.785 341.755 268.331 345.003 267.093 348.403C265.913 351.643 264.93 355.021 264.161 358.512C263.44 361.791 262.908 365.17 262.582 368.63C262.347 371.122 262.219 373.655 262.204 376.223Z" fill="white"/>
<path d="M289.157 317.909L340.324 318.232M289.157 317.909C285.256 320.736 281.661 324.17 278.454 328.109M289.157 317.909C291.642 316.109 294.251 314.556 296.963 313.274C298.752 312.429 300.586 311.702 302.459 311.102M278.454 328.109L346.812 328.54M278.454 328.109C275.842 331.318 273.486 334.862 271.432 338.688M271.432 338.688L346.749 339.163M271.432 338.688C269.785 341.755 268.331 345.003 267.093 348.403M267.093 348.403L346.691 348.905M267.093 348.403C265.913 351.643 264.93 355.021 264.161 358.512M264.161 358.512L346.631 359.032M264.161 358.512C263.44 361.791 262.908 365.17 262.582 368.63M262.582 368.63C262.347 371.122 262.219 373.655 262.204 376.223C262.197 377.355 262.212 378.481 262.249 379.599M262.582 368.63L346.571 369.159M262.249 379.599L346.506 380.13M262.249 379.599C262.362 383.05 262.68 386.434 263.188 389.732M263.188 389.732L344.399 390.244M263.188 389.732C263.678 392.917 264.345 396.021 265.175 399.028M265.175 399.028L342.298 399.515M265.175 399.028C266.107 402.401 267.243 405.652 268.567 408.755M268.567 408.755L331.597 409.153M268.567 408.755C269.965 412.033 271.571 415.147 273.363 418.069M273.363 418.069L317.625 418.348M273.363 418.069C275.129 420.95 277.077 423.644 279.184 426.123M279.184 426.123L317.577 426.365M279.184 426.123C281.755 429.149 284.564 431.856 287.571 434.194M287.571 434.194L328.991 434.455M287.571 434.194C290.42 436.409 293.448 438.292 296.621 439.802C297.161 440.059 297.706 440.305 298.255 440.54M298.255 440.54C303.517 442.796 309.152 444.035 315.016 444.072C344.405 444.257 368.409 414.181 368.63 376.894C368.851 339.607 345.206 309.23 315.817 309.045C311.209 309.016 306.732 309.731 302.459 311.102M298.255 440.54L324.452 440.706M306.798 311.52L302.459 311.102" stroke="black" stroke-width="1.21399"/>
<ellipse cx="49.1208" cy="67.5148" rx="49.1208" ry="67.5148" transform="matrix(-0.99998 -0.00630451 -0.00593281 0.999982 369.031 309.38)" fill="white" stroke="black" stroke-width="1.21399"/>
<path d="M320.731 309.076L316.66 444.083" stroke="black" stroke-width="1.21399"/>
<path d="M270.368 379.65L368.623 378.582" stroke="black" stroke-width="1.21399"/>
<path d="M271.131 389.783L368.289 366.343" stroke="black" stroke-width="1.21399"/>
<path d="M280.786 418.116L360.262 338.442" stroke="black" stroke-width="1.21399"/>
<path d="M286.061 426.167L353.371 327.427" stroke="black" stroke-width="1.21399"/>
<path d="M293.792 433.811L345.235 318.514" stroke="black" stroke-width="1.21399"/>
<path d="M303.579 440.202L334.223 311.693" stroke="black" stroke-width="1.21399"/>
<path d="M358.564 417.762L278.392 338.769" stroke="black" stroke-width="1.21399"/>
<path d="M344.349 399.528L274.653 348.451" stroke="black" stroke-width="1.21399"/>
<path d="M340.438 437.059L295.297 318.199" stroke="black" stroke-width="1.21399"/>
<path d="M351.137 428.687L285.009 328.262" stroke="black" stroke-width="1.21399"/>
<path d="M329.766 442.055L306.389 311.518" stroke="black" stroke-width="1.21399"/>
<path d="M364.376 404.295L271.727 358.138" stroke="black" stroke-width="1.21399"/>
<path d="M367.736 389.969L270.847 368.682" stroke="black" stroke-width="1.21399"/>
<path d="M365.67 354.346L273.352 399.245" stroke="black" stroke-width="1.21399"/>
<ellipse cx="41.7527" cy="57.3876" rx="41.7527" ry="57.3876" transform="matrix(-0.99998 -0.00630451 -0.00593281 0.999982 361.602 319.461)" fill="white" stroke="black" stroke-width="1.21399"/>
<ellipse cx="33.5659" cy="47.2604" rx="33.5659" ry="47.2604" transform="matrix(-0.99998 -0.00630451 -0.00593281 0.999982 354.181 329.542)" fill="white" stroke="black" stroke-width="1.21399"/>
<path fill-rule="evenodd" clip-rule="evenodd" d="M290.357 277C255.475 277 227.197 305.278 227.197 340.16V460.333H375.677V340.16C375.677 305.278 347.4 277 312.517 277H290.357ZM284.236 288.562C258.896 288.562 238.354 309.104 238.354 334.444V448.849H330.119V334.444C330.119 309.104 309.577 288.562 284.236 288.562Z" fill="#FFF9F9"/>
<path d="M376 460.062H319.134V496.02H292.888V529.958H265.882V565.169H376V460.062Z" fill="#FFF9F9"/>
<path fill-rule="evenodd" clip-rule="evenodd" d="M284.104 277C252.667 277 227.181 302.485 227.181 333.923V460.299H341.027V333.923C341.027 302.485 315.542 277 284.104 277ZM284.235 288.562C258.895 288.562 238.353 309.104 238.353 334.444V448.849H330.118V334.444C330.118 309.104 309.575 288.562 284.235 288.562Z" fill="#9E9E9E"/>
<path d="M181.871 465.756C181.871 462.743 184.314 460.301 187.327 460.301H319.582V496.018H181.871V465.756Z" fill="#737373" stroke="black" stroke-width="0.407486"/>
<path d="M147.601 501.474C147.601 498.46 150.044 496.018 153.057 496.018H292.669V530.165H147.601V501.474Z" fill="#737373" stroke="black" stroke-width="0.407486"/>
</g>
<path d="M0.5 0.5H339.5V509.5H0.5V0.5Z" stroke="#202020"/>
<defs>
<filter id="filter0_f_205_799" x="-293.936" y="-78.6816" width="366.059" height="451.395" filterUnits="userSpaceOnUse" color-interpolation-filters="sRGB">
<feFlood flood-opacity="0" result="BackgroundImageFix"/>
<feBlend mode="normal" in="SourceGraphic" in2="BackgroundImageFix" result="shape"/>
<feGaussianBlur stdDeviation="40" result="effect1_foregroundBlur_205_799"/>
</filter>
<clipPath id="clip0_205_799">
<path d="M0 0H340V510H0V0Z" fill="white"/>
</clipPath>
</defs>
</svg>
