<svg width="1344" height="396" viewBox="0 0 1344 396" fill="none" xmlns="http://www.w3.org/2000/svg">
<g clip-path="url(#clip0_181_1931)">
<rect width="1344" height="396" fill="black"/>
<g filter="url(#filter0_f_181_1931)">
<ellipse cx="42.6104" cy="173.248" rx="42.6104" ry="173.248" transform="matrix(-0.829554 -0.558427 -0.558427 0.829554 1393.19 -63.4104)" fill="#252525"/>
</g>
<g filter="url(#filter1_f_181_1931)">
<ellipse cx="42.6104" cy="173.248" rx="42.6104" ry="173.248" transform="matrix(1 0 0 -1 1017.57 65.9932)" fill="#252525"/>
</g>
<circle cx="592" cy="189" r="1" fill="#3D3D3D"/>
<circle cx="620" cy="301" r="1" fill="#3D3D3D"/>
<circle cx="588" cy="342" r="1" fill="#3D3D3D"/>
<circle cx="536" cy="251" r="1" fill="#3D3D3D"/>
<circle cx="536" cy="303" r="1" fill="#3D3D3D"/>
<circle cx="536" cy="355" r="1" fill="#3D3D3D"/>
<circle cx="452" cy="201" r="1" fill="#3D3D3D"/>
<circle cx="748" cy="251" r="1" fill="#3D3D3D"/>
<circle cx="675" cy="205" r="1" fill="#3D3D3D"/>
<circle cx="602" cy="159" r="1" fill="#3D3D3D"/>
<circle cx="529" cy="113" r="1" fill="#3D3D3D"/>
<circle cx="1139" cy="189" r="1" fill="#3D3D3D"/>
<circle cx="1167" cy="301" r="1" fill="#3D3D3D"/>
<circle cx="1135" cy="342" r="1" fill="#3D3D3D"/>
<circle cx="1083" cy="251" r="1" fill="#3D3D3D"/>
<circle cx="1083" cy="303" r="1" fill="#3D3D3D"/>
<circle cx="1083" cy="355" r="1" fill="#3D3D3D"/>
<circle cx="999" cy="201" r="1" fill="#3D3D3D"/>
<circle cx="1295" cy="251" r="1" fill="#3D3D3D"/>
<circle cx="1222" cy="205" r="1" fill="#3D3D3D"/>
<circle cx="1149" cy="159" r="1" fill="#3D3D3D"/>
<circle cx="1076" cy="113" r="1" fill="#3D3D3D"/>
<circle cx="993" cy="84" r="1" fill="#3D3D3D"/>
<circle cx="1021" cy="196" r="1" fill="#3D3D3D"/>
<circle cx="989" cy="237" r="1" fill="#3D3D3D"/>
<circle cx="937" cy="146" r="1" fill="#3D3D3D"/>
<circle cx="937" cy="198" r="1" fill="#3D3D3D"/>
<circle cx="937" cy="250" r="1" fill="#3D3D3D"/>
<circle cx="853" cy="96" r="1" fill="#3D3D3D"/>
<circle cx="1149" cy="146" r="1" fill="#3D3D3D"/>
<circle cx="1076" cy="100" r="1" fill="#3D3D3D"/>
<circle cx="1003" cy="54" r="1" fill="#3D3D3D"/>
<circle cx="930" cy="8" r="1" fill="#3D3D3D"/>
<path d="M1142.69 104.162L1143.91 107.554L1147.21 108.809L1143.91 110.064L1142.69 113.456L1141.46 110.064L1138.16 108.809L1141.46 107.554L1142.69 104.162Z" fill="white"/>
<path d="M1212.83 113.456L1214.66 118.544L1219.61 120.427L1214.66 122.309L1212.83 127.397L1210.99 122.309L1206.04 120.427L1210.99 118.544L1212.83 113.456Z" fill="white"/>
<path d="M1183.87 167.825L1186.07 173.93L1192.01 176.189L1186.07 178.449L1183.87 184.554L1181.67 178.449L1175.72 176.189L1181.67 173.93L1183.87 167.825Z" fill="white"/>
<path d="M1154.45 212.9L1155.68 216.292L1158.98 217.547L1155.68 218.802L1154.45 222.194L1153.23 218.802L1149.93 217.547L1153.23 216.292L1154.45 212.9Z" fill="white"/>
<path d="M1173.46 113.456L1174.68 116.848L1177.98 118.103L1174.68 119.358L1173.46 122.75L1172.24 119.358L1168.93 118.103L1172.24 116.848L1173.46 113.456Z" fill="white"/>
<path d="M1133.64 237.529L1134.86 240.921L1138.16 242.176L1134.86 243.431L1133.64 246.823L1132.41 243.431L1129.11 242.176L1132.41 240.921L1133.64 237.529Z" fill="white"/>
<path d="M1217.35 192.918L1218.57 196.31L1221.88 197.565L1218.57 198.82L1217.35 202.212L1216.13 198.82L1212.83 197.565L1216.13 196.31L1217.35 192.918Z" fill="white"/>
<path d="M1151.74 139.479L1153.45 144.227L1158.07 145.984L1153.45 147.742L1151.74 152.49L1150.03 147.742L1145.4 145.984L1150.03 144.227L1151.74 139.479Z" fill="white"/>
<path d="M1190.2 88.8271L1191.91 93.5757L1196.54 95.3328L1191.91 97.09L1190.2 101.839L1188.49 97.09L1183.87 95.3328L1188.49 93.5757L1190.2 88.8271Z" fill="white"/>
<path d="M1206.27 152.49L1207.18 155.034L1209.66 155.975L1207.18 156.917L1206.27 159.461L1205.35 156.917L1202.87 155.975L1205.35 155.034L1206.27 152.49Z" fill="white"/>
<path d="M1133.86 177.584L1134.78 180.128L1137.26 181.069L1134.78 182.01L1133.86 184.554L1132.95 182.01L1130.47 181.069L1132.95 180.128L1133.86 177.584Z" fill="white"/>
<path d="M1215.09 232.882L1216.31 236.273L1219.61 237.529L1216.31 238.784L1215.09 242.175L1213.87 238.784L1210.56 237.529L1213.87 236.273L1215.09 232.882Z" fill="white"/>
<ellipse cx="1153.1" cy="114.85" rx="1.35754" ry="1.39408" fill="white"/>
<ellipse cx="1162.6" cy="90.2212" rx="1.35754" ry="1.39408" fill="white"/>
<ellipse cx="1218.71" cy="147.378" rx="1.35754" ry="1.39408" fill="white"/>
<ellipse cx="1146.76" cy="171.543" rx="1.35754" ry="1.39408" fill="white"/>
<ellipse cx="1199.25" cy="204.536" rx="1.35754" ry="1.39408" fill="white"/>
<ellipse cx="1183.87" cy="207.324" rx="1.35754" ry="1.39408" fill="white"/>
<ellipse cx="1178.44" cy="195.242" rx="1.35754" ry="1.39408" fill="white"/>
<ellipse cx="1193.37" cy="217.547" rx="1.35754" ry="1.39408" fill="white"/>
<ellipse cx="1220.52" cy="218.941" rx="1.35754" ry="1.39408" fill="white"/>
<ellipse cx="1131.83" cy="231.488" rx="1.35754" ry="1.39408" fill="white"/>
<ellipse cx="1196.54" cy="252.399" rx="1.35754" ry="1.39408" fill="white"/>
<ellipse cx="1171.42" cy="235.438" rx="2.03631" ry="2.09111" fill="white"/>
<ellipse cx="1187.03" cy="148.308" rx="3.1676" ry="3.25284" fill="white"/>
<ellipse cx="1135.67" cy="138.317" rx="2.48883" ry="2.55581" fill="white"/>
<ellipse cx="1162.6" cy="211.506" rx="1.35754" ry="1.39408" fill="white"/>
<ellipse cx="1214.18" cy="191.524" rx="1.35754" ry="1.39408" fill="white"/>
<path d="M1148.76 172.472C1148.75 173.812 1148.77 175.145 1148.81 176.469C1148.95 180.554 1149.32 184.561 1149.93 188.466C1150.51 192.236 1151.3 195.911 1152.29 199.472C1153.4 203.465 1154.75 207.313 1156.32 210.987C1157.98 214.868 1159.89 218.555 1162.02 222.014C1164.12 225.425 1166.43 228.614 1168.94 231.55C1171.99 235.132 1175.33 238.337 1178.9 241.104C1182.29 243.727 1185.89 245.957 1189.66 247.744C1190.3 248.048 1190.95 248.34 1191.6 248.618C1197.86 251.289 1204.55 252.756 1211.52 252.8C1246.45 253.019 1274.98 217.411 1275.24 173.266C1275.5 129.122 1247.4 93.1576 1212.47 92.9383C1207 92.9039 1201.68 93.7506 1196.6 95.3732C1194.37 96.0845 1192.19 96.9448 1190.07 97.9454C1186.84 99.4625 1183.74 101.302 1180.79 103.433C1176.15 106.779 1171.88 110.845 1168.07 115.509C1164.97 119.308 1162.17 123.504 1159.72 128.033C1157.77 131.665 1156.04 135.51 1154.57 139.536C1153.17 143.371 1152 147.37 1151.08 151.504C1150.23 155.385 1149.59 159.386 1149.21 163.482C1148.93 166.432 1148.78 169.432 1148.76 172.472Z" fill="white"/>
<path d="M1180.79 103.433L1241.6 103.815M1180.79 103.433C1176.15 106.779 1171.88 110.845 1168.07 115.509M1180.79 103.433C1183.74 101.302 1186.84 99.4625 1190.07 97.9454C1192.19 96.9448 1194.37 96.0845 1196.6 95.3732M1168.07 115.509L1249.31 116.019M1168.07 115.509C1164.97 119.308 1162.17 123.504 1159.72 128.033M1159.72 128.033L1249.24 128.596M1159.72 128.033C1157.77 131.665 1156.04 135.51 1154.57 139.536M1154.57 139.536L1249.17 140.13M1154.57 139.536C1153.17 143.371 1152 147.37 1151.08 151.504M1151.08 151.504L1249.1 152.119M1151.08 151.504C1150.23 155.385 1149.59 159.386 1149.21 163.482M1149.21 163.482C1148.93 166.432 1148.78 169.432 1148.76 172.472C1148.75 173.812 1148.77 175.145 1148.81 176.469M1149.21 163.482L1249.02 164.109M1148.81 176.469L1248.95 177.098M1148.81 176.469C1148.95 180.554 1149.32 184.561 1149.93 188.466M1149.93 188.466L1246.44 189.072M1149.93 188.466C1150.51 192.236 1151.3 195.911 1152.29 199.472M1152.29 199.472L1243.95 200.047M1152.29 199.472C1153.4 203.465 1154.75 207.313 1156.32 210.987M1156.32 210.987L1231.23 211.458M1156.32 210.987C1157.98 214.868 1159.89 218.555 1162.02 222.014M1162.02 222.014L1214.62 222.344M1162.02 222.014C1164.12 225.425 1166.43 228.614 1168.94 231.55M1168.94 231.55L1214.57 231.836M1168.94 231.55C1171.99 235.132 1175.33 238.337 1178.9 241.104M1178.9 241.104L1228.13 241.414M1178.9 241.104C1182.29 243.727 1185.89 245.957 1189.66 247.744C1190.3 248.048 1190.95 248.34 1191.6 248.618M1191.6 248.618C1197.86 251.289 1204.55 252.756 1211.52 252.8C1246.45 253.019 1274.98 217.411 1275.24 173.266C1275.5 129.122 1247.4 93.1576 1212.47 92.9383C1207 92.9039 1201.68 93.7506 1196.6 95.3732M1191.6 248.618L1222.74 248.814M1201.76 95.8684L1196.6 95.3732" stroke="black" stroke-width="1.21399"/>
<ellipse cx="58.3781" cy="79.9322" rx="58.3781" ry="79.9322" transform="matrix(-0.99998 -0.00628042 -0.00595556 0.999982 1275.72 93.3354)" fill="white" stroke="black" stroke-width="1.21399"/>
<path d="M1218.31 92.9751L1213.48 252.812" stroke="black" stroke-width="1.21399"/>
<path d="M1158.46 176.53L1275.23 175.265" stroke="black" stroke-width="1.21399"/>
<path d="M1159.37 188.525L1274.84 160.774" stroke="black" stroke-width="1.21399"/>
<path d="M1170.84 222.07L1265.3 127.742" stroke="black" stroke-width="1.21399"/>
<path d="M1177.11 231.601L1257.1 114.701" stroke="black" stroke-width="1.21399"/>
<path d="M1186.3 240.652L1247.44 104.149" stroke="black" stroke-width="1.21399"/>
<path d="M1197.93 248.218L1234.35 96.0733" stroke="black" stroke-width="1.21399"/>
<path d="M1263.28 221.651L1167.99 128.13" stroke="black" stroke-width="1.21399"/>
<path d="M1246.38 200.063L1163.55 139.592" stroke="black" stroke-width="1.21399"/>
<path d="M1241.74 244.497L1188.09 103.776" stroke="black" stroke-width="1.21399"/>
<path d="M1254.45 234.585L1175.86 115.69" stroke="black" stroke-width="1.21399"/>
<path d="M1229.05 250.412L1201.27 95.8657" stroke="black" stroke-width="1.21399"/>
<path d="M1270.18 205.707L1160.07 151.06" stroke="black" stroke-width="1.21399"/>
<path d="M1274.18 188.747L1159.03 163.544" stroke="black" stroke-width="1.21399"/>
<path d="M1271.72 146.572L1162 199.728" stroke="black" stroke-width="1.21399"/>
<ellipse cx="49.6214" cy="67.9423" rx="49.6214" ry="67.9423" transform="matrix(-0.99998 -0.00628042 -0.00595556 0.999982 1266.89 105.27)" fill="white" stroke="black" stroke-width="1.21399"/>
<ellipse cx="39.8917" cy="55.9525" rx="39.8917" ry="55.9525" transform="matrix(-0.99998 -0.00628042 -0.00595556 0.999982 1258.07 117.205)" fill="white" stroke="black" stroke-width="1.21399"/>
<path fill-rule="evenodd" clip-rule="evenodd" d="M1170.31 55C1135.43 55 1107.15 83.2778 1107.15 118.16V272.052H1283.61V118.16C1283.61 83.2778 1255.34 55 1220.45 55H1170.31ZM1174.94 68.688C1144.82 68.688 1120.41 93.1016 1120.41 123.217V258.455H1229.47V123.217C1229.47 93.1016 1205.06 68.688 1174.94 68.688Z" fill="#FFF9F9"/>
<path d="M1284 271.731H1216.42V314.302H1185.23V354.482H1153.13V396.169H1284V271.731Z" fill="#FFF9F9"/>
<path fill-rule="evenodd" clip-rule="evenodd" d="M1170.29 55C1135.41 55 1107.13 83.2778 1107.13 118.16V272.011H1242.44V118.16C1242.44 83.2778 1214.16 55 1179.28 55H1170.29ZM1174.94 68.688C1144.83 68.688 1120.41 93.1016 1120.41 123.217V258.455H1229.47V123.217C1229.47 93.1016 1205.06 68.688 1174.94 68.688Z" fill="#9E9E9E"/>
<path d="M1053.29 277.469C1053.29 274.456 1055.73 272.013 1058.74 272.013H1216.95V314.3H1053.29V277.469Z" fill="#737373" stroke="black" stroke-width="0.407486"/>
<path d="M1012.56 319.755C1012.56 316.742 1015 314.3 1018.01 314.3H1184.97V354.728H1012.56V319.755Z" fill="#737373" stroke="black" stroke-width="0.407486"/>
<path d="M975 363.834C975 359.013 978.908 355.105 983.729 355.105H1153.13V396.169H975L975 363.834Z" fill="#737373" stroke="black" stroke-width="0.407486"/>
</g>
<defs>
<filter id="filter0_f_181_1931" x="1078.06" y="-169.184" width="366.059" height="451.395" filterUnits="userSpaceOnUse" color-interpolation-filters="sRGB">
<feFlood flood-opacity="0" result="BackgroundImageFix"/>
<feBlend mode="normal" in="SourceGraphic" in2="BackgroundImageFix" result="shape"/>
<feGaussianBlur stdDeviation="40" result="effect1_foregroundBlur_181_1931"/>
</filter>
<filter id="filter1_f_181_1931" x="937.57" y="-360.502" width="245.221" height="506.496" filterUnits="userSpaceOnUse" color-interpolation-filters="sRGB">
<feFlood flood-opacity="0" result="BackgroundImageFix"/>
<feBlend mode="normal" in="SourceGraphic" in2="BackgroundImageFix" result="shape"/>
<feGaussianBlur stdDeviation="40" result="effect1_foregroundBlur_181_1931"/>
</filter>
<clipPath id="clip0_181_1931">
<rect width="1344" height="396" fill="white"/>
</clipPath>
</defs>
</svg>
