<svg width="340" height="443" viewBox="0 0 340 443" fill="none" xmlns="http://www.w3.org/2000/svg">
<g clip-path="url(#clip0_205_967)">
<path d="M0 0H340V443H0V0Z" fill="black"/>
<g filter="url(#filter0_f_205_967)">
<ellipse cx="90.6132" cy="169.694" rx="90.6132" ry="169.694" transform="matrix(0.47184 -0.881684 0.811726 0.584038 69 336.784)" fill="#171717"/>
</g>
<g filter="url(#filter1_f_205_967)">
<ellipse cx="90.6132" cy="169.694" rx="90.6132" ry="169.694" transform="matrix(0.47184 -0.881684 0.811726 0.584038 69 336.784)" fill="url(#paint0_linear_205_967)"/>
</g>
<ellipse cx="310.894" cy="234.745" rx="0.50818" ry="0.58924" fill="#3D3D3D"/>
<ellipse cx="325.123" cy="300.74" rx="0.50818" ry="0.58924" fill="#3D3D3D"/>
<ellipse cx="308.861" cy="324.899" rx="0.50818" ry="0.58924" fill="#3D3D3D"/>
<ellipse cx="282.435" cy="271.278" rx="0.50818" ry="0.58924" fill="#3D3D3D"/>
<ellipse cx="282.435" cy="301.919" rx="0.50818" ry="0.58924" fill="#3D3D3D"/>
<ellipse cx="282.435" cy="332.559" rx="0.50818" ry="0.58924" fill="#3D3D3D"/>
<ellipse cx="239.748" cy="241.816" rx="0.50818" ry="0.58924" fill="#3D3D3D"/>
<ellipse cx="315.975" cy="217.068" rx="0.50818" ry="0.58924" fill="#3D3D3D"/>
<ellipse cx="278.878" cy="189.963" rx="0.50818" ry="0.58924" fill="#3D3D3D"/>
<path d="M324.999 319.862C324.556 305.92 325.869 303.86 323.636 302.592C323.514 302.459 324.733 303.1 303.856 293.06C301.967 292.153 299.817 293.646 299.308 293.824C298.814 292.872 298.061 292.121 296.992 291.622C293.833 290.615 291.534 287.3 285.711 290.097C265.704 299.264 268.102 298.146 259.737 302.148C254.545 304.616 250.317 310.65 250.317 315.604V317.183C241.164 321.551 235.102 324.449 226.431 328.584C223.982 329.756 222.004 332.586 222.015 334.898C222.486 348.386 220.996 351.074 223.539 352.283L224.608 352.805C225.223 383.897 223.617 385.093 226.176 386.265C238.272 392.08 245.647 395.674 245.912 395.742C249.098 397.111 249.724 394.305 318.174 362.603C320.612 361.431 322.59 358.602 322.59 356.28L322.44 324.908C324.008 323.511 325.01 321.552 324.999 319.862ZM320.517 303.439C322.484 302.5 323.941 303.182 323.941 305.055C323.016 323.698 328.667 319.839 310.732 333.108C310.654 332.71 310.422 332.398 310.062 332.247L309.984 308.476L320.517 303.439ZM309.785 333.397V333.973C309.796 337.27 309.812 339.578 309.812 339.578C309.812 341.514 306.588 341.899 302.066 344.39C301.933 344.445 301.828 344.467 301.745 344.467C301.141 344.467 301.612 342.966 301.424 337.865C301.424 336.395 303.108 335.974 305.169 334.944C305.407 338.195 304.887 339.211 305.756 339.211H305.768C306.665 339.202 306.061 338.204 306.155 334.468C308.965 333.14 309.785 332.481 309.785 333.397ZM302.172 345.241C302.598 345.14 302.57 345.085 309.092 341.99C308.942 356.234 310.189 350.978 306.177 356.618C305.923 356.938 305.308 357.438 304.947 357.328C300.698 355.743 302.703 359.04 302.172 345.241ZM309.059 332.192C308.577 332.315 308.017 332.636 306.144 333.519C305.984 332.169 306.41 331.207 305.596 331.207H305.585C304.726 331.216 305.252 332.279 305.141 333.995L302.133 335.433L302.055 312.257L308.987 308.951L309.059 332.192ZM308.482 308.228C308.35 308.292 299.169 312.674 298.886 312.806L293.041 309.821L302.515 305.311L308.482 308.228ZM297.739 341.89C289.578 346.908 280.812 351.331 271.67 354.706C271.509 352.705 272.069 351.386 270.933 350.914L270.855 327.143L298.381 314.002L298.448 334.913C297.218 336.305 297.927 337.233 297.739 341.89ZM279.887 302.898C292.359 297.193 292.946 296.076 293.589 299.881C289.683 302.101 285.411 302.711 285.411 305.485V305.906L279.887 302.898ZM302.665 300.852C303.014 301.016 302.815 301.634 302.881 304.171C299.213 305.92 294.465 308.186 290.769 309.954C290.941 308.804 290.127 306.648 292.055 305.728C301.995 301.053 302.277 300.678 302.665 300.852ZM264.568 304.954C291.413 292.13 293.363 290.966 296.576 292.381C300 294.038 298.704 298.585 299.014 301.437L294.609 303.539C294.354 300.531 295.291 298.067 293.229 297.083C291.091 296.067 289.174 297.999 281.2 301.35C271.432 305.819 272.906 305.141 264.086 309.358C261.825 310.443 260.058 312.961 260.069 315.109C260.069 315.296 260.08 319.399 260.08 319.673L255.675 321.775L255.664 317.682C255.658 313.016 259.642 307.311 264.568 304.954ZM263.044 363.903C263.515 363.793 269.976 360.675 269.976 360.652C269.815 374.874 271.062 369.663 267.061 375.28C266.806 375.601 266.18 376.1 265.831 375.99C261.57 374.41 263.576 377.702 263.044 363.903ZM269.521 359.911C261.72 363.592 263.421 362.905 262.59 363.129C262.535 363.12 262.496 363.106 262.457 363.074C262.402 362.964 262.324 363.01 262.324 362.708C262.496 356.912 261.681 355.799 263.487 354.833L266.136 353.565C266.391 357.159 265.842 358.198 266.74 358.198C267.139 358.189 267.261 357.978 267.261 357.392C267.261 356.651 267.089 355.337 267.128 353.093C271.932 350.827 270.391 350.946 270.674 355.382C270.535 357.644 271.206 359.018 269.521 359.911ZM266.574 350.19H266.563C265.731 350.199 266.214 351.197 266.119 352.612L263.017 354.096L262.939 330.92L269.859 327.614L269.937 350.859C269.654 350.923 269.937 350.804 267.111 352.141C266.978 351.175 267.377 350.19 266.574 350.19ZM259.753 331.482L253.464 328.373L262.911 323.863L269.333 326.904L259.753 331.482ZM253.126 323.964C263.51 319.033 263.499 318.9 263.764 319.097C264.086 319.276 263.897 319.839 263.964 322.403C261.687 323.488 256.057 326.176 251.841 328.186C252.018 327.036 251.215 324.88 253.126 323.964ZM250.328 318.149V320.196C249.619 320.672 246.5 321.4 246.5 323.721V324.939L241.386 322.417L250.328 318.149ZM226.686 385.546C224.985 384.772 226.054 383.6 225.617 353.289C244.472 362.268 243.225 361.924 244.245 361.979C244.417 394.789 244.206 393.127 244.5 394.126L226.686 385.546ZM242.638 344.33C242.638 342.26 244.388 339.751 246.56 338.726L259.26 332.668L259.326 353.588C258.163 354.939 258.789 355.767 258.628 358.739C255.763 359.448 252.916 360.012 250.117 360.442C249.879 360.131 249.331 360.231 249.236 360.584C240.643 361.848 242.998 362.909 242.638 344.33ZM317.681 361.88C246.361 395.573 248.167 395.862 246.333 394.987C244.515 394.126 245.679 392.73 245.247 361.925C246.56 361.793 247.884 361.628 249.219 361.426C249.325 362.269 248.926 363.294 249.729 363.294H249.74C250.555 363.294 250.117 362.278 250.222 361.271C252.981 360.84 255.791 360.286 258.627 359.599C258.733 360.872 258.295 362.054 259.298 362.53L259.326 362.553C259.608 372.914 258.855 374.054 260.062 374.627C263.825 376.408 266.218 377.854 267.903 375.735C272.13 369.123 270.739 376.696 270.978 359.888C272.102 358.606 271.526 357.708 271.676 355.62C280.829 352.269 289.578 347.878 297.768 342.905C297.834 343.427 298.128 343.702 298.383 343.844C298.715 354.846 298.022 355.423 299.169 355.964C299.247 355.996 301.979 357.301 302.045 357.324C303.519 357.465 305.27 359.26 307.009 357.067C311.226 350.479 309.857 358.029 310.085 341.22C311.304 339.837 310.605 338.94 310.783 334.178C312.761 332.731 314.744 331.216 316.711 329.646C316.883 331.193 316.445 332.168 317.271 332.168C317.537 332.168 317.764 331.981 317.764 331.77V331.747C317.631 329.934 317.952 329.238 317.337 329.137C318.717 328.029 320.08 326.903 321.432 325.754L321.582 356.274C321.587 358.33 319.831 360.839 317.681 361.878L317.681 361.88Z" fill="white"/>
<path d="M249.822 373.468C250.105 373.468 250.316 373.28 250.316 373.046C250.116 368.5 250.637 367.474 249.767 367.552C248.858 367.552 249.457 368.527 249.313 373.046C249.324 373.468 249.955 373.513 249.822 373.468Z" fill="white"/>
<path d="M249.93 383.618C250.838 383.618 250.24 382.643 250.384 378.124C250.384 377.716 249.741 377.661 249.874 377.716C248.966 377.716 249.564 378.692 249.42 383.211C249.42 383.618 250.063 383.673 249.93 383.618Z" fill="white"/>
<path d="M252.068 389.048L250.489 389.79C250.384 388.994 250.772 387.821 249.968 387.876C249.126 387.876 249.619 388.893 249.486 390.509C249.486 390.651 249.58 390.798 249.741 390.862C250.168 391.072 250.356 390.738 252.567 389.767C253.143 389.493 252.644 388.774 252.068 389.048Z" fill="white"/>
<path d="M261.812 384.47L256.942 386.759C256.366 387.034 256.865 387.753 257.435 387.478L262.306 385.189C262.893 384.923 262.383 384.195 261.812 384.47Z" fill="white"/>
<path d="M295.922 368.472C295.346 368.747 295.844 369.465 296.415 369.191C300.604 367.057 301.928 366.988 301.474 366.338C301.03 365.683 300.31 366.581 295.922 368.472Z" fill="white"/>
<path d="M286.182 373.037C285.605 373.312 286.104 374.031 286.675 373.756C290.864 371.623 292.188 371.554 291.733 370.904C291.29 370.263 290.553 371.16 286.182 373.037Z" fill="white"/>
<path d="M281.306 375.327L276.435 377.616C275.992 377.827 276.17 378.39 276.69 378.39C276.929 378.39 276.729 378.413 281.816 376.045C282.381 375.771 281.871 375.052 281.306 375.327Z" fill="white"/>
<path d="M266.684 382.181C266.108 382.456 266.607 383.174 267.178 382.9C271.366 380.766 272.69 380.697 272.236 380.047C271.793 379.406 271.073 380.304 266.684 382.181Z" fill="white"/>
<path d="M310.543 361.605L305.673 363.894C305.23 364.104 305.407 364.668 305.928 364.668C306.166 364.668 305.967 364.69 311.053 362.323C311.618 362.058 311.108 361.339 310.543 361.605Z" fill="white"/>
<path d="M317.428 356.385L317.484 358.354C316.143 359.105 314.808 359.27 315.223 359.892C315.639 360.501 316.47 359.65 318.232 358.954C318.686 358.743 318.392 358.413 318.431 356.376C318.415 355.79 317.412 355.854 317.428 356.385Z" fill="white"/>
<path d="M317.542 342.022C318.467 341.999 317.835 340.96 317.902 336.67C317.891 336.084 316.882 336.161 316.899 336.692L317.032 341.614C317.037 342.031 317.68 342.063 317.542 342.022Z" fill="white"/>
<path d="M317.15 346.545L317.283 351.467C317.294 351.875 317.926 351.92 317.793 351.875C318.718 351.852 318.086 350.812 318.153 346.522C318.142 345.923 317.139 346.023 317.15 346.545Z" fill="white"/>
<path d="M290.461 340.117C289.912 340.429 290.488 341.111 291.02 340.804C295.558 338.226 295.89 338.107 295.514 337.677C295.12 337.187 295.009 337.53 290.461 340.117Z" fill="white"/>
<path d="M286.033 342.572C284.548 343.368 283.047 344.151 281.523 344.939C281.096 345.159 281.285 345.703 281.789 345.703C282.072 345.703 286.366 343.391 286.582 343.272C287.13 342.97 286.582 342.274 286.033 342.572Z" fill="white"/>
<path d="M272.29 349.375C271.703 349.64 272.196 350.368 272.772 350.103C277.548 347.923 277.953 347.823 277.615 347.351C277.266 346.843 277.161 347.15 272.29 349.375Z" fill="white"/>
<path d="M320.423 317.261C320.478 316.707 319.486 316.643 319.42 317.183C319.231 318.887 318.927 320.324 318.483 321.442C318.323 321.909 319.741 323.52 320.423 317.261Z" fill="white"/>
<path d="M315.525 324.692C314.506 325.356 313.087 326.295 311.325 327.435C310.805 327.778 311.42 328.428 311.94 328.085C313.708 326.945 315.137 326.006 316.14 325.342C316.661 325.004 316.046 324.349 315.525 324.692Z" fill="white"/>
<path d="M320.13 313.214C320.784 312.847 320.867 313.182 320.412 308.347C320.357 307.807 319.354 307.861 319.409 308.411C319.808 312.642 319.31 313.214 320.13 313.214Z" fill="white"/>
<path d="M315.939 310.663C316.499 310.366 315.967 309.67 315.401 309.967C311.573 312.17 310.249 312.289 310.731 312.921C311.135 313.424 311.506 312.985 315.939 310.663Z" fill="white"/>
<path d="M297.114 318.346C293.219 320.402 291.856 320.503 292.321 321.153C292.698 321.684 293.097 321.24 297.618 319.065C298.183 318.791 297.674 318.072 297.114 318.346Z" fill="white"/>
<path d="M278.632 327.293L274.016 329.528C273.573 329.738 273.761 330.301 274.271 330.301C274.526 330.301 274.31 330.324 279.141 328.003C279.718 327.733 279.208 327.014 278.632 327.293Z" fill="white"/>
<path d="M283.252 325.058C283.013 325.168 282.93 325.425 283.08 325.622C283.213 325.818 283.523 325.887 283.761 325.763C287.656 323.708 289.019 323.607 288.554 322.957C288.094 322.316 287.302 323.268 283.252 325.058Z" fill="white"/>
<path d="M247.053 349.266C246.144 349.366 246.904 350.337 247.336 354.119C247.43 354.659 248.422 354.549 248.327 354.009C247.535 350.236 247.951 349.151 247.053 349.266Z" fill="white"/>
<path d="M253.702 340.305C257.608 338.258 258.977 338.158 258.517 337.517C258.062 336.867 257.259 337.805 253.203 339.586C252.616 339.866 253.126 340.584 253.702 340.305Z" fill="white"/>
<path d="M246.65 343.679C248.307 342.75 249.686 342.571 249.249 341.953C249.116 341.756 248.805 341.688 248.567 341.798C246.174 343.048 245.542 343.025 245.608 343.51C245.941 344.838 245.664 345.79 246.467 345.689C246.761 345.671 246.705 344.655 246.65 343.679Z" fill="white"/>
<path d="M254.883 357.488C255.138 357.401 255.27 357.167 255.165 356.948C254.722 356.018 252.838 357.955 250.173 357.346C249.774 357.259 249.198 357.071 249.048 357.534C248.915 357.996 249.519 358.056 249.907 358.143C251.497 358.509 252.295 358.33 254.883 357.488Z" fill="white"/>
</g>
<path d="M0.5 0.5H339.5V442.5H0.5V0.5Z" stroke="#202020"/>
<defs>
<filter id="filter0_f_205_967" x="5.23364" y="128.696" width="488.533" height="454.607" filterUnits="userSpaceOnUse" color-interpolation-filters="sRGB">
<feFlood flood-opacity="0" result="BackgroundImageFix"/>
<feBlend mode="normal" in="SourceGraphic" in2="BackgroundImageFix" result="shape"/>
<feGaussianBlur stdDeviation="50" result="effect1_foregroundBlur_205_967"/>
</filter>
<filter id="filter1_f_205_967" x="5.23364" y="128.696" width="488.533" height="454.607" filterUnits="userSpaceOnUse" color-interpolation-filters="sRGB">
<feFlood flood-opacity="0" result="BackgroundImageFix"/>
<feBlend mode="normal" in="SourceGraphic" in2="BackgroundImageFix" result="shape"/>
<feGaussianBlur stdDeviation="50" result="effect1_foregroundBlur_205_967"/>
</filter>
<linearGradient id="paint0_linear_205_967" x1="74.8307" y1="152.143" x2="92.8428" y2="85.8543" gradientUnits="userSpaceOnUse">
<stop stop-color="white" stop-opacity="0.15"/>
<stop offset="1" stop-color="#999999" stop-opacity="0"/>
</linearGradient>
<clipPath id="clip0_205_967">
<path d="M0 0H340V443H0V0Z" fill="white"/>
</clipPath>
</defs>
</svg>
