<svg width="610" height="443" viewBox="0 0 610 443" fill="none" xmlns="http://www.w3.org/2000/svg">
<g clip-path="url(#clip0_181_1852)">
<rect width="610" height="443" fill="black"/>
<g filter="url(#filter0_f_181_1852)">
<ellipse cx="606.189" cy="394.781" rx="159.567" ry="319" transform="rotate(-58.1795 606.189 394.781)" fill="#171717"/>
</g>
<g filter="url(#filter1_f_181_1852)">
<ellipse cx="606.189" cy="394.781" rx="159.567" ry="319" transform="rotate(-58.1795 606.189 394.781)" fill="url(#paint0_linear_181_1852)"/>
</g>
<circle cx="592" cy="189" r="1" fill="#3D3D3D"/>
<circle cx="588" cy="342" r="1" fill="#3D3D3D"/>
<circle cx="536" cy="251" r="1" fill="#3D3D3D"/>
<circle cx="536" cy="303" r="1" fill="#3D3D3D"/>
<circle cx="536" cy="355" r="1" fill="#3D3D3D"/>
<circle cx="452" cy="201" r="1" fill="#3D3D3D"/>
<circle cx="602" cy="159" r="1" fill="#3D3D3D"/>
<circle cx="529" cy="113" r="1" fill="#3D3D3D"/>
<path d="M553.875 250.852C553.139 223.362 555.321 219.301 551.611 216.8C551.408 216.539 553.433 217.802 518.747 198.005C515.608 196.217 512.036 199.16 511.189 199.512C510.37 197.634 509.118 196.154 507.341 195.17C502.094 193.184 498.274 186.648 488.598 192.164C455.358 210.237 459.343 208.034 445.443 215.924C436.817 220.79 429.794 232.689 429.794 242.455V245.57C414.586 254.183 404.514 259.897 390.108 268.049C386.039 270.36 382.752 275.94 382.771 280.498C383.553 307.095 381.077 312.394 385.302 314.777L387.079 315.806C388.101 377.112 385.431 379.47 389.684 381.781C409.78 393.246 422.034 400.333 422.475 400.468C427.768 403.167 428.808 397.633 542.535 335.126C546.585 332.815 549.872 327.236 549.872 322.659L549.623 260.8C552.228 258.047 553.894 254.183 553.875 250.852ZM546.428 218.469C549.696 216.618 552.117 217.963 552.117 221.656C550.58 258.416 559.969 250.806 530.171 276.97C530.042 276.184 529.655 275.57 529.057 275.272L528.928 228.401L546.428 218.469ZM528.596 277.538V278.676C528.615 285.176 528.642 289.726 528.642 289.726C528.642 293.544 523.285 294.303 515.773 299.214C515.552 299.322 515.377 299.367 515.239 299.367C514.236 299.367 515.018 296.406 514.705 286.349C514.705 283.451 517.504 282.621 520.928 280.59C521.324 286.999 520.458 289.003 521.904 289.003H521.922C523.413 288.985 522.41 287.017 522.567 279.651C527.234 277.033 528.596 275.733 528.596 277.538ZM515.948 300.892C516.656 300.693 516.61 300.585 527.446 294.482C527.197 322.567 529.268 312.204 522.603 323.325C522.18 323.957 521.158 324.941 520.56 324.724C513.499 321.601 516.831 328.1 515.948 300.892ZM527.39 275.163C526.59 275.406 525.66 276.038 522.548 277.781C522.281 275.117 522.99 273.221 521.637 273.221H521.618C520.191 273.239 521.066 275.334 520.882 278.719L515.883 281.554L515.754 235.857L527.271 229.339L527.39 275.163ZM526.433 227.912C526.212 228.038 510.958 236.678 510.489 236.94L500.777 231.054L516.519 222.161L526.433 227.912ZM508.583 294.285C495.023 304.179 480.459 312.9 465.27 319.554C465.003 315.609 465.933 313.009 464.046 312.079L463.917 265.208L509.65 239.298L509.761 280.528C507.717 283.272 508.896 285.103 508.583 294.285ZM478.922 217.404C499.644 206.155 500.62 203.952 501.688 211.454C495.198 215.833 488.101 217.034 488.101 222.504V223.335L478.922 217.404ZM516.768 213.368C517.348 213.693 517.016 214.912 517.127 219.913C511.033 223.362 503.143 227.831 497.003 231.315C497.288 229.049 495.935 224.797 499.139 222.983C515.654 213.765 516.123 213.025 516.768 213.368ZM453.47 221.457C498.072 196.171 501.313 193.876 506.651 196.666C512.34 199.934 510.186 208.898 510.701 214.523L503.383 218.667C502.959 212.735 504.515 207.878 501.091 205.937C497.537 203.933 494.352 207.743 481.105 214.351C464.875 223.162 467.324 221.826 452.669 230.141C448.913 232.28 445.977 237.245 445.995 241.479C445.995 241.85 446.014 249.938 446.014 250.48L438.695 254.624L438.677 246.553C438.668 237.354 445.287 226.105 453.47 221.457ZM450.939 337.689C451.721 337.472 462.455 331.325 462.455 331.279C462.188 359.32 464.259 349.046 457.613 360.122C457.189 360.754 456.149 361.738 455.569 361.521C448.49 358.407 451.823 364.897 450.939 337.689ZM461.7 329.817C448.739 337.075 451.565 335.721 450.184 336.164C450.092 336.145 450.027 336.118 449.963 336.055C449.871 335.839 449.742 335.929 449.742 335.333C450.027 323.904 448.674 321.71 451.675 319.805L456.076 317.305C456.499 324.391 455.588 326.441 457.079 326.441C457.742 326.422 457.944 326.007 457.944 324.852C457.944 323.389 457.659 320.798 457.723 316.375C465.705 311.906 463.146 312.141 463.615 320.888C463.385 325.348 464.499 328.057 461.7 329.817ZM456.803 310.651H456.784C455.404 310.669 456.205 312.637 456.048 315.427L450.893 318.352L450.764 272.654L462.262 266.136L462.391 311.97C461.921 312.096 462.391 311.862 457.696 314.498C457.475 312.593 458.138 310.651 456.803 310.651ZM445.471 273.764L435.022 267.634L450.718 258.741L461.387 264.736L445.471 273.764ZM434.461 258.94C451.712 249.217 451.694 248.955 452.136 249.344C452.669 249.696 452.356 250.806 452.467 255.862C448.683 258.001 439.33 263.301 432.325 267.264C432.619 264.998 431.285 260.746 434.461 258.94ZM429.812 247.475V251.51C428.633 252.449 423.45 253.884 423.45 258.462V260.863L414.954 255.889L429.812 247.475ZM390.531 380.363C387.705 378.837 389.481 376.526 388.754 316.762C420.081 334.465 418.01 333.788 419.704 333.896C419.989 398.589 419.64 395.311 420.128 397.281L390.531 380.363ZM417.034 299.096C417.034 295.015 419.943 290.068 423.551 288.046L444.651 276.102L444.761 317.35C442.828 320.014 443.868 321.648 443.601 327.507C438.842 328.906 434.11 330.016 429.461 330.865C429.065 330.251 428.154 330.45 427.998 331.145C413.72 333.636 417.632 335.73 417.034 299.096ZM541.715 333.7C423.22 400.134 426.22 400.703 423.173 398.979C420.153 397.282 422.087 394.528 421.369 333.79C423.55 333.528 425.751 333.203 427.969 332.806C428.144 334.467 427.481 336.489 428.816 336.489H428.834C430.188 336.489 429.46 334.485 429.635 332.499C434.22 331.65 438.887 330.558 443.6 329.204C443.775 331.713 443.048 334.043 444.714 334.981L444.76 335.027C445.23 355.456 443.978 357.704 445.985 358.833C452.235 362.345 456.212 365.198 459.011 361.018C466.035 347.982 463.724 362.914 464.12 329.772C465.989 327.244 465.031 325.475 465.28 321.358C480.488 314.75 495.023 306.092 508.631 296.287C508.741 297.316 509.229 297.858 509.652 298.138C510.205 319.832 509.054 320.969 510.96 322.035C511.089 322.098 515.627 324.671 515.737 324.716C518.186 324.996 521.095 328.535 523.986 324.21C530.991 311.22 528.717 326.106 529.095 292.964C531.12 290.238 529.96 288.469 530.255 279.08C533.541 276.227 536.837 273.239 540.105 270.142C540.39 273.194 539.663 275.117 541.035 275.117C541.477 275.117 541.854 274.746 541.854 274.331V274.286C541.633 270.711 542.167 269.339 541.145 269.14C543.437 266.955 545.702 264.735 547.948 262.469L548.197 322.647C548.206 326.701 545.288 331.648 541.716 333.697L541.715 333.7Z" fill="white"/>
<path d="M428.972 356.548C429.441 356.548 429.791 356.178 429.791 355.717C429.46 346.753 430.325 344.731 428.88 344.884C427.37 344.884 428.364 346.807 428.125 355.717C428.143 356.548 429.193 356.638 428.972 356.548Z" fill="white"/>
<path d="M429.15 376.562C430.66 376.562 429.666 374.639 429.905 365.729C429.905 364.925 428.837 364.817 429.058 364.925C427.548 364.925 428.542 366.848 428.303 375.759C428.303 376.562 429.371 376.67 429.15 376.562Z" fill="white"/>
<path d="M432.703 387.269L430.079 388.732C429.904 387.161 430.549 384.85 429.214 384.958C427.815 384.958 428.634 386.962 428.413 390.149C428.413 390.429 428.57 390.718 428.837 390.844C429.545 391.26 429.858 390.601 433.531 388.687C434.489 388.145 433.66 386.728 432.703 387.269Z" fill="white"/>
<path d="M448.896 378.242L440.804 382.756C439.847 383.298 440.675 384.715 441.623 384.173L449.715 379.66C450.691 379.136 449.844 377.701 448.896 378.242Z" fill="white"/>
<path d="M505.563 346.698C504.605 347.24 505.434 348.657 506.382 348.115C513.342 343.908 515.542 343.773 514.787 342.491C514.051 341.2 512.854 342.969 505.563 346.698Z" fill="white"/>
<path d="M489.38 355.699C488.422 356.241 489.251 357.658 490.199 357.117C497.159 352.91 499.359 352.774 498.604 351.492C497.867 350.229 496.643 351.998 489.38 355.699Z" fill="white"/>
<path d="M481.28 360.213L473.189 364.727C472.452 365.142 472.747 366.253 473.612 366.253C474.008 366.253 473.676 366.298 482.127 361.631C483.066 361.089 482.219 359.672 481.28 360.213Z" fill="white"/>
<path d="M456.986 373.729C456.028 374.27 456.857 375.688 457.805 375.146C464.764 370.939 466.964 370.804 466.21 369.522C465.473 368.258 464.277 370.027 456.986 373.729Z" fill="white"/>
<path d="M529.859 333.157L521.768 337.671C521.031 338.086 521.326 339.197 522.191 339.197C522.587 339.197 522.256 339.242 530.706 334.575C531.645 334.051 530.798 332.634 529.859 333.157Z" fill="white"/>
<path d="M541.294 322.866L541.386 326.748C539.158 328.228 536.94 328.553 537.63 329.781C538.321 330.982 539.701 329.303 542.629 327.93C543.384 327.515 542.896 326.865 542.96 322.848C542.933 321.692 541.266 321.819 541.294 322.866Z" fill="white"/>
<path d="M541.486 294.546C543.023 294.5 541.974 292.451 542.084 283.992C542.066 282.837 540.39 282.99 540.418 284.037L540.639 293.742C540.648 294.564 541.716 294.627 541.486 294.546Z" fill="white"/>
<path d="M540.839 303.464L541.06 313.169C541.079 313.973 542.128 314.063 541.907 313.973C543.445 313.927 542.395 311.878 542.506 303.419C542.487 302.237 540.821 302.435 540.839 303.464Z" fill="white"/>
<path d="M496.489 290.79C495.577 291.404 496.535 292.749 497.418 292.144C504.958 287.062 505.51 286.827 504.884 285.978C504.231 285.012 504.047 285.689 496.489 290.79Z" fill="white"/>
<path d="M489.133 295.629C486.666 297.2 484.171 298.744 481.64 300.297C480.931 300.73 481.244 301.804 482.082 301.804C482.551 301.804 489.686 297.245 490.045 297.011C490.956 296.415 490.045 295.043 489.133 295.629Z" fill="white"/>
<path d="M466.301 309.043C465.326 309.567 466.145 311.002 467.102 310.479C475.038 306.181 475.71 305.983 475.148 305.053C474.568 304.051 474.393 304.656 466.301 309.043Z" fill="white"/>
<path d="M546.272 245.724C546.365 244.631 544.717 244.505 544.606 245.57C544.293 248.928 543.787 251.763 543.05 253.966C542.783 254.887 545.14 258.065 546.272 245.724Z" fill="white"/>
<path d="M538.135 260.376C536.441 261.685 534.085 263.536 531.157 265.783C530.292 266.46 531.314 267.742 532.179 267.065C535.116 264.817 537.491 262.967 539.157 261.658C540.022 260.99 539 259.699 538.135 260.376Z" fill="white"/>
<path d="M545.783 237.743C546.87 237.021 547.008 237.68 546.253 228.147C546.161 227.082 544.495 227.19 544.587 228.273C545.249 236.615 544.421 237.743 545.783 237.743Z" fill="white"/>
<path d="M538.825 232.714C539.755 232.128 538.871 230.755 537.932 231.342C531.571 235.685 529.371 235.919 530.172 237.165C530.844 238.158 531.461 237.292 538.825 232.714Z" fill="white"/>
<path d="M507.544 247.864C501.072 251.917 498.808 252.116 499.581 253.398C500.207 254.445 500.87 253.569 508.382 249.281C509.321 248.739 508.474 247.322 507.544 247.864Z" fill="white"/>
<path d="M476.834 265.504L469.166 269.91C468.429 270.325 468.742 271.435 469.589 271.435C470.013 271.435 469.654 271.481 477.681 266.904C478.639 266.371 477.792 264.954 476.834 265.504Z" fill="white"/>
<path d="M484.512 261.097C484.116 261.314 483.978 261.82 484.227 262.208C484.448 262.596 484.963 262.731 485.359 262.488C491.831 258.434 494.095 258.236 493.322 256.954C492.558 255.69 491.242 257.567 484.512 261.097Z" fill="white"/>
<path d="M424.369 308.828C422.86 309.027 424.121 310.941 424.839 318.398C424.995 319.463 426.643 319.246 426.487 318.181C425.17 310.742 425.861 308.603 424.369 308.828Z" fill="white"/>
<path d="M435.418 291.16C441.908 287.125 444.182 286.926 443.417 285.662C442.663 284.38 441.328 286.231 434.589 289.743C433.613 290.293 434.46 291.711 435.418 291.16Z" fill="white"/>
<path d="M423.697 297.814C426.45 295.981 428.742 295.629 428.015 294.41C427.794 294.022 427.278 293.886 426.882 294.103C422.905 296.568 421.856 296.523 421.966 297.479C422.519 300.097 422.059 301.975 423.393 301.777C423.881 301.741 423.789 299.736 423.697 297.814Z" fill="white"/>
<path d="M437.379 325.041C437.802 324.869 438.023 324.409 437.849 323.975C437.112 322.143 433.982 325.961 429.554 324.761C428.891 324.589 427.934 324.219 427.685 325.131C427.465 326.043 428.468 326.16 429.112 326.332C431.754 327.054 433.08 326.702 437.379 325.041Z" fill="white"/>
</g>
<defs>
<filter id="filter0_f_181_1852" x="222.301" y="78.7338" width="767.777" height="632.094" filterUnits="userSpaceOnUse" color-interpolation-filters="sRGB">
<feFlood flood-opacity="0" result="BackgroundImageFix"/>
<feBlend mode="normal" in="SourceGraphic" in2="BackgroundImageFix" result="shape"/>
<feGaussianBlur stdDeviation="50" result="effect1_foregroundBlur_181_1852"/>
</filter>
<filter id="filter1_f_181_1852" x="222.301" y="78.7338" width="767.777" height="632.094" filterUnits="userSpaceOnUse" color-interpolation-filters="sRGB">
<feFlood flood-opacity="0" result="BackgroundImageFix"/>
<feBlend mode="normal" in="SourceGraphic" in2="BackgroundImageFix" result="shape"/>
<feGaussianBlur stdDeviation="50" result="effect1_foregroundBlur_181_1852"/>
</filter>
<linearGradient id="paint0_linear_181_1852" x1="578.396" y1="361.787" x2="614.199" y2="238.359" gradientUnits="userSpaceOnUse">
<stop stop-color="white" stop-opacity="0.15"/>
<stop offset="1" stop-color="#999999" stop-opacity="0"/>
</linearGradient>
<clipPath id="clip0_181_1852">
<rect width="610" height="443" fill="white"/>
</clipPath>
</defs>
</svg>
