<svg width="340" height="429" viewBox="0 0 340 429" fill="none" xmlns="http://www.w3.org/2000/svg">
<g clip-path="url(#clip0_205_1020)">
<path d="M0 0H340V429H0V0Z" fill="black"/>
<rect x="-37.2517" y="0.359854" width="42.4628" height="25.9095" stroke="#1B1B1B" stroke-width="0.719708"/>
<rect x="5.21093" y="0.359854" width="42.4628" height="25.9095" stroke="#1B1B1B" stroke-width="0.719708"/>
<rect x="47.6738" y="0.359854" width="42.4628" height="25.9095" stroke="#1B1B1B" stroke-width="0.719708"/>
<rect x="90.1365" y="0.359854" width="42.4628" height="25.9095" stroke="#1B1B1B" stroke-width="0.719708"/>
<rect x="132.599" y="0.359854" width="42.4628" height="25.9095" stroke="#1B1B1B" stroke-width="0.719708"/>
<rect x="175.062" y="0.359854" width="42.4628" height="25.9095" stroke="#1B1B1B" stroke-width="0.719708"/>
<rect x="217.525" y="0.359854" width="42.4628" height="25.9095" stroke="#1B1B1B" stroke-width="0.719708"/>
<rect x="259.988" y="0.359854" width="42.4628" height="25.9095" stroke="#1B1B1B" stroke-width="0.719708"/>
<rect x="302.45" y="0.359854" width="42.4628" height="25.9095" stroke="#1B1B1B" stroke-width="0.719708"/>
<rect x="-37.2517" y="26.269" width="42.4628" height="25.9095" stroke="#1B1B1B" stroke-width="0.719708"/>
<rect x="5.21093" y="26.269" width="42.4628" height="25.9095" stroke="#1B1B1B" stroke-width="0.719708"/>
<rect x="47.6738" y="26.269" width="42.4628" height="25.9095" stroke="#1B1B1B" stroke-width="0.719708"/>
<rect x="90.1365" y="26.269" width="42.4628" height="25.9095" stroke="#1B1B1B" stroke-width="0.719708"/>
<rect x="132.599" y="26.269" width="42.4628" height="25.9095" stroke="#1B1B1B" stroke-width="0.719708"/>
<rect x="175.062" y="26.269" width="42.4628" height="25.9095" stroke="#1B1B1B" stroke-width="0.719708"/>
<rect x="217.525" y="26.269" width="42.4628" height="25.9095" stroke="#1B1B1B" stroke-width="0.719708"/>
<rect x="259.988" y="26.269" width="42.4628" height="25.9095" stroke="#1B1B1B" stroke-width="0.719708"/>
<rect x="302.45" y="26.269" width="42.4628" height="25.9095" stroke="#1B1B1B" stroke-width="0.719708"/>
<rect x="-37.2517" y="52.1792" width="42.4628" height="25.9095" stroke="#1B1B1B" stroke-width="0.719708"/>
<rect x="5.21093" y="52.1792" width="42.4628" height="25.9095" stroke="#1B1B1B" stroke-width="0.719708"/>
<rect x="47.6738" y="52.1792" width="42.4628" height="25.9095" stroke="#1B1B1B" stroke-width="0.719708"/>
<rect x="90.1365" y="52.1792" width="42.4628" height="25.9095" stroke="#1B1B1B" stroke-width="0.719708"/>
<rect x="132.599" y="52.1792" width="42.4628" height="25.9095" stroke="#1B1B1B" stroke-width="0.719708"/>
<rect x="175.062" y="52.1792" width="42.4628" height="25.9095" stroke="#1B1B1B" stroke-width="0.719708"/>
<rect x="217.525" y="52.1792" width="42.4628" height="25.9095" stroke="#1B1B1B" stroke-width="0.719708"/>
<rect x="259.988" y="52.1792" width="42.4628" height="25.9095" stroke="#1B1B1B" stroke-width="0.719708"/>
<rect x="302.45" y="52.1792" width="42.4628" height="25.9095" stroke="#1B1B1B" stroke-width="0.719708"/>
<rect x="-37.2517" y="78.0884" width="42.4628" height="25.9095" stroke="#1B1B1B" stroke-width="0.719708"/>
<rect x="5.21093" y="78.0884" width="42.4628" height="25.9095" stroke="#1B1B1B" stroke-width="0.719708"/>
<rect x="47.6738" y="78.0884" width="42.4628" height="25.9095" stroke="#1B1B1B" stroke-width="0.719708"/>
<rect x="90.1365" y="78.0884" width="42.4628" height="25.9095" stroke="#1B1B1B" stroke-width="0.719708"/>
<rect x="132.599" y="78.0884" width="42.4628" height="25.9095" stroke="#1B1B1B" stroke-width="0.719708"/>
<rect x="175.062" y="78.0884" width="42.4628" height="25.9095" stroke="#1B1B1B" stroke-width="0.719708"/>
<rect x="217.525" y="78.0884" width="42.4628" height="25.9095" stroke="#1B1B1B" stroke-width="0.719708"/>
<rect x="259.988" y="78.0884" width="42.4628" height="25.9095" stroke="#1B1B1B" stroke-width="0.719708"/>
<rect x="302.45" y="78.0884" width="42.4628" height="25.9095" stroke="#1B1B1B" stroke-width="0.719708"/>
<rect x="-37.2517" y="103.998" width="42.4628" height="25.9095" stroke="#1B1B1B" stroke-width="0.719708"/>
<rect x="5.21093" y="103.998" width="42.4628" height="25.9095" stroke="#1B1B1B" stroke-width="0.719708"/>
<rect x="47.6738" y="103.998" width="42.4628" height="25.9095" stroke="#1B1B1B" stroke-width="0.719708"/>
<rect x="90.1365" y="103.998" width="42.4628" height="25.9095" stroke="#1B1B1B" stroke-width="0.719708"/>
<rect x="132.599" y="103.998" width="42.4628" height="25.9095" stroke="#1B1B1B" stroke-width="0.719708"/>
<rect x="175.062" y="103.998" width="42.4628" height="25.9095" stroke="#1B1B1B" stroke-width="0.719708"/>
<rect x="217.525" y="103.998" width="42.4628" height="25.9095" stroke="#1B1B1B" stroke-width="0.719708"/>
<rect x="259.988" y="103.998" width="42.4628" height="25.9095" stroke="#1B1B1B" stroke-width="0.719708"/>
<rect x="302.45" y="103.998" width="42.4628" height="25.9095" stroke="#1B1B1B" stroke-width="0.719708"/>
<rect x="-37.2517" y="129.907" width="42.4628" height="25.9095" stroke="#1B1B1B" stroke-width="0.719708"/>
<rect x="5.21093" y="129.907" width="42.4628" height="25.9095" stroke="#1B1B1B" stroke-width="0.719708"/>
<rect x="47.6738" y="129.907" width="42.4628" height="25.9095" stroke="#1B1B1B" stroke-width="0.719708"/>
<rect x="90.1365" y="129.907" width="42.4628" height="25.9095" stroke="#1B1B1B" stroke-width="0.719708"/>
<rect x="132.599" y="129.907" width="42.4628" height="25.9095" stroke="#1B1B1B" stroke-width="0.719708"/>
<rect x="175.062" y="129.907" width="42.4628" height="25.9095" stroke="#1B1B1B" stroke-width="0.719708"/>
<rect x="217.525" y="129.907" width="42.4628" height="25.9095" stroke="#1B1B1B" stroke-width="0.719708"/>
<rect x="259.988" y="129.907" width="42.4628" height="25.9095" stroke="#1B1B1B" stroke-width="0.719708"/>
<rect x="302.45" y="129.907" width="42.4628" height="25.9095" stroke="#1B1B1B" stroke-width="0.719708"/>
<rect x="-37.2517" y="155.817" width="42.4628" height="25.9095" stroke="#1B1B1B" stroke-width="0.719708"/>
<rect x="5.21093" y="155.817" width="42.4628" height="25.9095" stroke="#1B1B1B" stroke-width="0.719708"/>
<rect x="47.6738" y="155.817" width="42.4628" height="25.9095" stroke="#1B1B1B" stroke-width="0.719708"/>
<rect x="90.1365" y="155.817" width="42.4628" height="25.9095" stroke="#1B1B1B" stroke-width="0.719708"/>
<rect x="132.599" y="155.817" width="42.4628" height="25.9095" stroke="#1B1B1B" stroke-width="0.719708"/>
<rect x="175.062" y="155.817" width="42.4628" height="25.9095" stroke="#1B1B1B" stroke-width="0.719708"/>
<rect x="217.525" y="155.817" width="42.4628" height="25.9095" stroke="#1B1B1B" stroke-width="0.719708"/>
<rect x="259.988" y="155.817" width="42.4628" height="25.9095" stroke="#1B1B1B" stroke-width="0.719708"/>
<rect x="302.45" y="155.817" width="42.4628" height="25.9095" stroke="#1B1B1B" stroke-width="0.719708"/>
<rect x="-37.2517" y="181.727" width="42.4628" height="25.9095" stroke="#1B1B1B" stroke-width="0.719708"/>
<rect x="5.21093" y="181.727" width="42.4628" height="25.9095" stroke="#1B1B1B" stroke-width="0.719708"/>
<rect x="47.6738" y="181.727" width="42.4628" height="25.9095" stroke="#1B1B1B" stroke-width="0.719708"/>
<rect x="90.1365" y="181.727" width="42.4628" height="25.9095" stroke="#1B1B1B" stroke-width="0.719708"/>
<rect x="132.599" y="181.727" width="42.4628" height="25.9095" stroke="#1B1B1B" stroke-width="0.719708"/>
<rect x="175.062" y="181.727" width="42.4628" height="25.9095" stroke="#1B1B1B" stroke-width="0.719708"/>
<rect x="217.525" y="181.727" width="42.4628" height="25.9095" stroke="#1B1B1B" stroke-width="0.719708"/>
<rect x="259.988" y="181.727" width="42.4628" height="25.9095" stroke="#1B1B1B" stroke-width="0.719708"/>
<rect x="302.45" y="181.727" width="42.4628" height="25.9095" stroke="#1B1B1B" stroke-width="0.719708"/>
<rect x="-37.2517" y="207.636" width="42.4628" height="25.9095" stroke="#1B1B1B" stroke-width="0.719708"/>
<rect x="5.21093" y="207.636" width="42.4628" height="25.9095" stroke="#1B1B1B" stroke-width="0.719708"/>
<rect x="47.6738" y="207.636" width="42.4628" height="25.9095" stroke="#1B1B1B" stroke-width="0.719708"/>
<rect x="90.1365" y="207.636" width="42.4628" height="25.9095" stroke="#1B1B1B" stroke-width="0.719708"/>
<rect x="132.599" y="207.636" width="42.4628" height="25.9095" stroke="#1B1B1B" stroke-width="0.719708"/>
<rect x="175.062" y="207.636" width="42.4628" height="25.9095" stroke="#1B1B1B" stroke-width="0.719708"/>
<rect x="217.525" y="207.636" width="42.4628" height="25.9095" stroke="#1B1B1B" stroke-width="0.719708"/>
<rect x="259.988" y="207.636" width="42.4628" height="25.9095" stroke="#1B1B1B" stroke-width="0.719708"/>
<rect x="302.45" y="207.636" width="42.4628" height="25.9095" stroke="#1B1B1B" stroke-width="0.719708"/>
<rect x="-37.2517" y="233.545" width="42.4628" height="25.9095" stroke="#1B1B1B" stroke-width="0.719708"/>
<rect x="5.21093" y="233.545" width="42.4628" height="25.9095" stroke="#1B1B1B" stroke-width="0.719708"/>
<rect x="47.6738" y="233.545" width="42.4628" height="25.9095" stroke="#1B1B1B" stroke-width="0.719708"/>
<rect x="90.1365" y="233.545" width="42.4628" height="25.9095" stroke="#1B1B1B" stroke-width="0.719708"/>
<rect x="132.599" y="233.545" width="42.4628" height="25.9095" stroke="#1B1B1B" stroke-width="0.719708"/>
<rect x="175.062" y="233.545" width="42.4628" height="25.9095" stroke="#1B1B1B" stroke-width="0.719708"/>
<rect x="217.525" y="233.545" width="42.4628" height="25.9095" stroke="#1B1B1B" stroke-width="0.719708"/>
<rect x="259.988" y="233.545" width="42.4628" height="25.9095" stroke="#1B1B1B" stroke-width="0.719708"/>
<rect x="302.45" y="233.545" width="42.4628" height="25.9095" stroke="#1B1B1B" stroke-width="0.719708"/>
<rect x="-37.2517" y="259.455" width="42.4628" height="25.9095" stroke="#1B1B1B" stroke-width="0.719708"/>
<rect x="5.21093" y="259.455" width="42.4628" height="25.9095" stroke="#1B1B1B" stroke-width="0.719708"/>
<rect x="47.6738" y="259.455" width="42.4628" height="25.9095" stroke="#1B1B1B" stroke-width="0.719708"/>
<rect x="90.1365" y="259.455" width="42.4628" height="25.9095" stroke="#1B1B1B" stroke-width="0.719708"/>
<rect x="132.599" y="259.455" width="42.4628" height="25.9095" stroke="#1B1B1B" stroke-width="0.719708"/>
<rect x="175.062" y="259.455" width="42.4628" height="25.9095" stroke="#1B1B1B" stroke-width="0.719708"/>
<rect x="217.525" y="259.455" width="42.4628" height="25.9095" stroke="#1B1B1B" stroke-width="0.719708"/>
<rect x="259.988" y="259.455" width="42.4628" height="25.9095" stroke="#1B1B1B" stroke-width="0.719708"/>
<rect x="302.45" y="259.455" width="42.4628" height="25.9095" stroke="#1B1B1B" stroke-width="0.719708"/>
<rect x="-37.2517" y="285.364" width="42.4628" height="25.9095" stroke="#1B1B1B" stroke-width="0.719708"/>
<rect x="5.21093" y="285.364" width="42.4628" height="25.9095" stroke="#1B1B1B" stroke-width="0.719708"/>
<rect x="47.6738" y="285.364" width="42.4628" height="25.9095" stroke="#1B1B1B" stroke-width="0.719708"/>
<rect x="90.1365" y="285.364" width="42.4628" height="25.9095" stroke="#1B1B1B" stroke-width="0.719708"/>
<rect x="132.599" y="285.364" width="42.4628" height="25.9095" stroke="#1B1B1B" stroke-width="0.719708"/>
<rect x="175.062" y="285.364" width="42.4628" height="25.9095" stroke="#1B1B1B" stroke-width="0.719708"/>
<rect x="217.525" y="285.364" width="42.4628" height="25.9095" stroke="#1B1B1B" stroke-width="0.719708"/>
<rect x="259.988" y="285.364" width="42.4628" height="25.9095" stroke="#1B1B1B" stroke-width="0.719708"/>
<rect x="302.45" y="285.364" width="42.4628" height="25.9095" stroke="#1B1B1B" stroke-width="0.719708"/>
<rect x="-37.2517" y="311.274" width="42.4628" height="25.9095" stroke="#1B1B1B" stroke-width="0.719708"/>
<rect x="5.21093" y="311.274" width="42.4628" height="25.9095" stroke="#1B1B1B" stroke-width="0.719708"/>
<rect x="47.6738" y="311.274" width="42.4628" height="25.9095" stroke="#1B1B1B" stroke-width="0.719708"/>
<rect x="90.1365" y="311.274" width="42.4628" height="25.9095" stroke="#1B1B1B" stroke-width="0.719708"/>
<rect x="132.599" y="311.274" width="42.4628" height="25.9095" stroke="#1B1B1B" stroke-width="0.719708"/>
<rect x="175.062" y="311.274" width="42.4628" height="25.9095" stroke="#1B1B1B" stroke-width="0.719708"/>
<rect x="217.525" y="311.274" width="42.4628" height="25.9095" stroke="#1B1B1B" stroke-width="0.719708"/>
<rect x="259.988" y="311.274" width="42.4628" height="25.9095" stroke="#1B1B1B" stroke-width="0.719708"/>
<rect x="302.45" y="311.274" width="42.4628" height="25.9095" stroke="#1B1B1B" stroke-width="0.719708"/>
<rect x="-37.2517" y="337.183" width="42.4628" height="25.9095" stroke="#1B1B1B" stroke-width="0.719708"/>
<rect x="5.21093" y="337.183" width="42.4628" height="25.9095" stroke="#1B1B1B" stroke-width="0.719708"/>
<rect x="47.6738" y="337.183" width="42.4628" height="25.9095" stroke="#1B1B1B" stroke-width="0.719708"/>
<rect x="90.1365" y="337.183" width="42.4628" height="25.9095" stroke="#1B1B1B" stroke-width="0.719708"/>
<rect x="132.599" y="337.183" width="42.4628" height="25.9095" stroke="#1B1B1B" stroke-width="0.719708"/>
<rect x="175.062" y="337.183" width="42.4628" height="25.9095" stroke="#1B1B1B" stroke-width="0.719708"/>
<rect x="217.525" y="337.183" width="42.4628" height="25.9095" stroke="#1B1B1B" stroke-width="0.719708"/>
<rect x="259.988" y="337.183" width="42.4628" height="25.9095" stroke="#1B1B1B" stroke-width="0.719708"/>
<rect x="302.45" y="337.183" width="42.4628" height="25.9095" stroke="#1B1B1B" stroke-width="0.719708"/>
<rect x="-37.2517" y="363.093" width="42.4628" height="25.9095" stroke="#1B1B1B" stroke-width="0.719708"/>
<rect x="5.21093" y="363.093" width="42.4628" height="25.9095" stroke="#1B1B1B" stroke-width="0.719708"/>
<rect x="47.6738" y="363.093" width="42.4628" height="25.9095" stroke="#1B1B1B" stroke-width="0.719708"/>
<rect x="90.1365" y="363.093" width="42.4628" height="25.9095" stroke="#1B1B1B" stroke-width="0.719708"/>
<rect x="132.599" y="363.093" width="42.4628" height="25.9095" stroke="#1B1B1B" stroke-width="0.719708"/>
<rect x="175.062" y="363.093" width="42.4628" height="25.9095" stroke="#1B1B1B" stroke-width="0.719708"/>
<rect x="217.525" y="363.093" width="42.4628" height="25.9095" stroke="#1B1B1B" stroke-width="0.719708"/>
<rect x="259.988" y="363.093" width="42.4628" height="25.9095" stroke="#1B1B1B" stroke-width="0.719708"/>
<rect x="302.45" y="363.093" width="42.4628" height="25.9095" stroke="#1B1B1B" stroke-width="0.719708"/>
<rect x="-37.2517" y="389.002" width="42.4628" height="25.9095" stroke="#1B1B1B" stroke-width="0.719708"/>
<rect x="5.21093" y="389.002" width="42.4628" height="25.9095" stroke="#1B1B1B" stroke-width="0.719708"/>
<rect x="47.6738" y="389.002" width="42.4628" height="25.9095" stroke="#1B1B1B" stroke-width="0.719708"/>
<rect x="90.1365" y="389.002" width="42.4628" height="25.9095" stroke="#1B1B1B" stroke-width="0.719708"/>
<rect x="132.599" y="389.002" width="42.4628" height="25.9095" stroke="#1B1B1B" stroke-width="0.719708"/>
<rect x="175.062" y="389.002" width="42.4628" height="25.9095" stroke="#1B1B1B" stroke-width="0.719708"/>
<rect x="217.525" y="389.002" width="42.4628" height="25.9095" stroke="#1B1B1B" stroke-width="0.719708"/>
<rect x="259.988" y="389.002" width="42.4628" height="25.9095" stroke="#1B1B1B" stroke-width="0.719708"/>
<rect x="302.45" y="389.002" width="42.4628" height="25.9095" stroke="#1B1B1B" stroke-width="0.719708"/>
<rect x="-37.2517" y="414.912" width="42.4628" height="25.9095" stroke="#1B1B1B" stroke-width="0.719708"/>
<rect x="5.21093" y="414.912" width="42.4628" height="25.9095" stroke="#1B1B1B" stroke-width="0.719708"/>
<rect x="47.6738" y="414.912" width="42.4628" height="25.9095" stroke="#1B1B1B" stroke-width="0.719708"/>
<rect x="90.1365" y="414.912" width="42.4628" height="25.9095" stroke="#1B1B1B" stroke-width="0.719708"/>
<rect x="132.599" y="414.912" width="42.4628" height="25.9095" stroke="#1B1B1B" stroke-width="0.719708"/>
<rect x="175.062" y="414.912" width="42.4628" height="25.9095" stroke="#1B1B1B" stroke-width="0.719708"/>
<rect x="217.525" y="414.912" width="42.4628" height="25.9095" stroke="#1B1B1B" stroke-width="0.719708"/>
<rect x="259.988" y="414.912" width="42.4628" height="25.9095" stroke="#1B1B1B" stroke-width="0.719708"/>
<rect x="302.45" y="414.912" width="42.4628" height="25.9095" stroke="#1B1B1B" stroke-width="0.719708"/>
<g filter="url(#filter0_f_205_1020)">
<circle cx="27" cy="180" r="287" fill="black"/>
</g>
<rect width="17" height="216" rx="4" transform="matrix(-1 0 0 1 336 215)" fill="white"/>
<rect width="17" height="175" rx="4" transform="matrix(-1 0 0 1 311 256)" fill="white"/>
<rect width="17" height="88" rx="4" transform="matrix(-1 0 0 1 286 343)" fill="white"/>
<rect width="17" height="139" rx="4" transform="matrix(-1 0 0 1 261 292)" fill="white"/>
<rect width="17" height="73" rx="4" transform="matrix(-1 0 0 1 236 358)" fill="#131313"/>
<rect width="17" height="103" rx="4" transform="matrix(-1 0 0 1 211 328)" fill="#131313"/>
<rect width="17" height="45" rx="4" transform="matrix(-1 0 0 1 186 386)" fill="#131313"/>
<rect width="17" height="29" rx="4" transform="matrix(-1 0 0 1 161 402)" fill="#131313"/>
<rect width="17" height="73" rx="4" transform="matrix(-1 0 0 1 136 358)" fill="#131313"/>
<rect width="17" height="49" rx="4" transform="matrix(-1 0 0 1 111 382)" fill="#131313"/>
</g>
<path d="M0.5 0.5H339.5V428.5H0.5V0.5Z" stroke="#202020"/>
<defs>
<filter id="filter0_f_205_1020" x="-360" y="-207" width="774" height="774" filterUnits="userSpaceOnUse" color-interpolation-filters="sRGB">
<feFlood flood-opacity="0" result="BackgroundImageFix"/>
<feBlend mode="normal" in="SourceGraphic" in2="BackgroundImageFix" result="shape"/>
<feGaussianBlur stdDeviation="50" result="effect1_foregroundBlur_205_1020"/>
</filter>
<clipPath id="clip0_205_1020">
<path d="M0 0H340V429H0V0Z" fill="white"/>
</clipPath>
</defs>
</svg>
