<svg width="710" height="443" viewBox="0 0 710 443" fill="none" xmlns="http://www.w3.org/2000/svg">
<g clip-path="url(#clip0_181_1327)">
<rect width="710" height="443" fill="black"/>
<rect x="91.3599" y="-0.730722" width="42.4628" height="25.9095" stroke="#1B1B1B" stroke-width="0.719708"/>
<rect x="133.823" y="-0.730966" width="42.4628" height="25.9095" stroke="#1B1B1B" stroke-width="0.719708"/>
<rect x="176.286" y="-0.730966" width="42.4628" height="25.9095" stroke="#1B1B1B" stroke-width="0.719708"/>
<rect x="218.748" y="-0.730966" width="42.4628" height="25.9095" stroke="#1B1B1B" stroke-width="0.719708"/>
<rect x="261.211" y="-0.730966" width="42.4628" height="25.9095" stroke="#1B1B1B" stroke-width="0.719708"/>
<rect x="303.674" y="-0.730966" width="42.4628" height="25.9095" stroke="#1B1B1B" stroke-width="0.719708"/>
<rect x="346.137" y="-0.730966" width="42.4628" height="25.9095" stroke="#1B1B1B" stroke-width="0.719708"/>
<rect x="388.599" y="-0.730966" width="42.4628" height="25.9095" stroke="#1B1B1B" stroke-width="0.719708"/>
<rect x="431.062" y="-0.730966" width="42.4628" height="25.9095" stroke="#1B1B1B" stroke-width="0.719708"/>
<rect x="473.525" y="-0.730966" width="42.4628" height="25.9095" stroke="#1B1B1B" stroke-width="0.719708"/>
<rect x="515.988" y="-0.730966" width="42.4628" height="25.9095" stroke="#1B1B1B" stroke-width="0.719708"/>
<rect x="558.45" y="-0.730966" width="42.4628" height="25.9095" stroke="#1B1B1B" stroke-width="0.719708"/>
<rect x="600.913" y="-0.730966" width="42.4628" height="25.9095" stroke="#1B1B1B" stroke-width="0.719708"/>
<rect x="643.376" y="-0.730966" width="42.4628" height="25.9095" stroke="#1B1B1B" stroke-width="0.719708"/>
<rect x="685.839" y="-0.730966" width="42.4628" height="25.9095" stroke="#1B1B1B" stroke-width="0.719708"/>
<rect x="91.3599" y="25.1789" width="42.4628" height="25.9095" stroke="#1B1B1B" stroke-width="0.719708"/>
<rect x="133.823" y="25.1792" width="42.4628" height="25.9095" stroke="#1B1B1B" stroke-width="0.719708"/>
<rect x="176.286" y="25.1792" width="42.4628" height="25.9095" stroke="#1B1B1B" stroke-width="0.719708"/>
<rect x="218.748" y="25.1792" width="42.4628" height="25.9095" stroke="#1B1B1B" stroke-width="0.719708"/>
<rect x="261.211" y="25.1792" width="42.4628" height="25.9095" stroke="#1B1B1B" stroke-width="0.719708"/>
<rect x="303.674" y="25.1792" width="42.4628" height="25.9095" stroke="#1B1B1B" stroke-width="0.719708"/>
<rect x="346.137" y="25.1792" width="42.4628" height="25.9095" stroke="#1B1B1B" stroke-width="0.719708"/>
<rect x="388.599" y="25.1792" width="42.4628" height="25.9095" stroke="#1B1B1B" stroke-width="0.719708"/>
<rect x="431.062" y="25.1792" width="42.4628" height="25.9095" stroke="#1B1B1B" stroke-width="0.719708"/>
<rect x="473.525" y="25.1792" width="42.4628" height="25.9095" stroke="#1B1B1B" stroke-width="0.719708"/>
<rect x="515.988" y="25.1792" width="42.4628" height="25.9095" stroke="#1B1B1B" stroke-width="0.719708"/>
<rect x="558.45" y="25.1792" width="42.4628" height="25.9095" stroke="#1B1B1B" stroke-width="0.719708"/>
<rect x="600.913" y="25.1792" width="42.4628" height="25.9095" stroke="#1B1B1B" stroke-width="0.719708"/>
<rect x="643.376" y="25.1792" width="42.4628" height="25.9095" stroke="#1B1B1B" stroke-width="0.719708"/>
<rect x="685.839" y="25.1792" width="42.4628" height="25.9095" stroke="#1B1B1B" stroke-width="0.719708"/>
<rect x="91.3599" y="51.0884" width="42.4628" height="25.9095" stroke="#1B1B1B" stroke-width="0.719708"/>
<rect x="133.823" y="51.0884" width="42.4628" height="25.9095" stroke="#1B1B1B" stroke-width="0.719708"/>
<rect x="176.286" y="51.0884" width="42.4628" height="25.9095" stroke="#1B1B1B" stroke-width="0.719708"/>
<rect x="218.748" y="51.0884" width="42.4628" height="25.9095" stroke="#1B1B1B" stroke-width="0.719708"/>
<rect x="261.211" y="51.0884" width="42.4628" height="25.9095" stroke="#1B1B1B" stroke-width="0.719708"/>
<rect x="303.674" y="51.0884" width="42.4628" height="25.9095" stroke="#1B1B1B" stroke-width="0.719708"/>
<rect x="346.137" y="51.0884" width="42.4628" height="25.9095" stroke="#1B1B1B" stroke-width="0.719708"/>
<rect x="388.599" y="51.0884" width="42.4628" height="25.9095" stroke="#1B1B1B" stroke-width="0.719708"/>
<rect x="431.062" y="51.0884" width="42.4628" height="25.9095" stroke="#1B1B1B" stroke-width="0.719708"/>
<rect x="473.525" y="51.0884" width="42.4628" height="25.9095" stroke="#1B1B1B" stroke-width="0.719708"/>
<rect x="515.988" y="51.0884" width="42.4628" height="25.9095" stroke="#1B1B1B" stroke-width="0.719708"/>
<rect x="558.45" y="51.0884" width="42.4628" height="25.9095" stroke="#1B1B1B" stroke-width="0.719708"/>
<rect x="600.913" y="51.0884" width="42.4628" height="25.9095" stroke="#1B1B1B" stroke-width="0.719708"/>
<rect x="643.376" y="51.0884" width="42.4628" height="25.9095" stroke="#1B1B1B" stroke-width="0.719708"/>
<rect x="685.839" y="51.0884" width="42.4628" height="25.9095" stroke="#1B1B1B" stroke-width="0.719708"/>
<rect x="91.3599" y="76.9978" width="42.4628" height="25.9095" stroke="#1B1B1B" stroke-width="0.719708"/>
<rect x="133.823" y="76.9975" width="42.4628" height="25.9095" stroke="#1B1B1B" stroke-width="0.719708"/>
<rect x="176.286" y="76.9975" width="42.4628" height="25.9095" stroke="#1B1B1B" stroke-width="0.719708"/>
<rect x="218.748" y="76.9975" width="42.4628" height="25.9095" stroke="#1B1B1B" stroke-width="0.719708"/>
<rect x="261.211" y="76.9975" width="42.4628" height="25.9095" stroke="#1B1B1B" stroke-width="0.719708"/>
<rect x="303.674" y="76.9975" width="42.4628" height="25.9095" stroke="#1B1B1B" stroke-width="0.719708"/>
<rect x="346.137" y="76.9975" width="42.4628" height="25.9095" stroke="#1B1B1B" stroke-width="0.719708"/>
<rect x="388.599" y="76.9975" width="42.4628" height="25.9095" stroke="#1B1B1B" stroke-width="0.719708"/>
<rect x="431.062" y="76.9975" width="42.4628" height="25.9095" stroke="#1B1B1B" stroke-width="0.719708"/>
<rect x="473.525" y="76.9975" width="42.4628" height="25.9095" stroke="#1B1B1B" stroke-width="0.719708"/>
<rect x="515.988" y="76.9975" width="42.4628" height="25.9095" stroke="#1B1B1B" stroke-width="0.719708"/>
<rect x="558.45" y="76.9975" width="42.4628" height="25.9095" stroke="#1B1B1B" stroke-width="0.719708"/>
<rect x="600.913" y="76.9975" width="42.4628" height="25.9095" stroke="#1B1B1B" stroke-width="0.719708"/>
<rect x="643.376" y="76.9975" width="42.4628" height="25.9095" stroke="#1B1B1B" stroke-width="0.719708"/>
<rect x="685.839" y="76.9975" width="42.4628" height="25.9095" stroke="#1B1B1B" stroke-width="0.719708"/>
<rect x="91.3599" y="102.907" width="42.4628" height="25.9095" stroke="#1B1B1B" stroke-width="0.719708"/>
<rect x="133.823" y="102.907" width="42.4628" height="25.9095" stroke="#1B1B1B" stroke-width="0.719708"/>
<rect x="176.286" y="102.907" width="42.4628" height="25.9095" stroke="#1B1B1B" stroke-width="0.719708"/>
<rect x="218.748" y="102.907" width="42.4628" height="25.9095" stroke="#1B1B1B" stroke-width="0.719708"/>
<rect x="261.211" y="102.907" width="42.4628" height="25.9095" stroke="#1B1B1B" stroke-width="0.719708"/>
<rect x="303.674" y="102.907" width="42.4628" height="25.9095" stroke="#1B1B1B" stroke-width="0.719708"/>
<rect x="346.137" y="102.907" width="42.4628" height="25.9095" stroke="#1B1B1B" stroke-width="0.719708"/>
<rect x="388.599" y="102.907" width="42.4628" height="25.9095" stroke="#1B1B1B" stroke-width="0.719708"/>
<rect x="431.062" y="102.907" width="42.4628" height="25.9095" stroke="#1B1B1B" stroke-width="0.719708"/>
<rect x="473.525" y="102.907" width="42.4628" height="25.9095" stroke="#1B1B1B" stroke-width="0.719708"/>
<rect x="515.988" y="102.907" width="42.4628" height="25.9095" stroke="#1B1B1B" stroke-width="0.719708"/>
<rect x="558.45" y="102.907" width="42.4628" height="25.9095" stroke="#1B1B1B" stroke-width="0.719708"/>
<rect x="600.913" y="102.907" width="42.4628" height="25.9095" stroke="#1B1B1B" stroke-width="0.719708"/>
<rect x="643.376" y="102.907" width="42.4628" height="25.9095" stroke="#1B1B1B" stroke-width="0.719708"/>
<rect x="685.839" y="102.907" width="42.4628" height="25.9095" stroke="#1B1B1B" stroke-width="0.719708"/>
<rect x="91.3599" y="128.817" width="42.4628" height="25.9095" stroke="#1B1B1B" stroke-width="0.719708"/>
<rect x="133.823" y="128.817" width="42.4628" height="25.9095" stroke="#1B1B1B" stroke-width="0.719708"/>
<rect x="176.286" y="128.817" width="42.4628" height="25.9095" stroke="#1B1B1B" stroke-width="0.719708"/>
<rect x="218.748" y="128.817" width="42.4628" height="25.9095" stroke="#1B1B1B" stroke-width="0.719708"/>
<rect x="261.211" y="128.817" width="42.4628" height="25.9095" stroke="#1B1B1B" stroke-width="0.719708"/>
<rect x="303.674" y="128.817" width="42.4628" height="25.9095" stroke="#1B1B1B" stroke-width="0.719708"/>
<rect x="346.137" y="128.817" width="42.4628" height="25.9095" stroke="#1B1B1B" stroke-width="0.719708"/>
<rect x="388.599" y="128.817" width="42.4628" height="25.9095" stroke="#1B1B1B" stroke-width="0.719708"/>
<rect x="431.062" y="128.817" width="42.4628" height="25.9095" stroke="#1B1B1B" stroke-width="0.719708"/>
<rect x="473.525" y="128.817" width="42.4628" height="25.9095" stroke="#1B1B1B" stroke-width="0.719708"/>
<rect x="515.988" y="128.817" width="42.4628" height="25.9095" stroke="#1B1B1B" stroke-width="0.719708"/>
<rect x="558.45" y="128.817" width="42.4628" height="25.9095" stroke="#1B1B1B" stroke-width="0.719708"/>
<rect x="600.913" y="128.817" width="42.4628" height="25.9095" stroke="#1B1B1B" stroke-width="0.719708"/>
<rect x="643.376" y="128.817" width="42.4628" height="25.9095" stroke="#1B1B1B" stroke-width="0.719708"/>
<rect x="685.839" y="128.817" width="42.4628" height="25.9095" stroke="#1B1B1B" stroke-width="0.719708"/>
<rect x="91.3599" y="154.726" width="42.4628" height="25.9095" stroke="#1B1B1B" stroke-width="0.719708"/>
<rect x="133.823" y="154.727" width="42.4628" height="25.9095" stroke="#1B1B1B" stroke-width="0.719708"/>
<rect x="176.286" y="154.727" width="42.4628" height="25.9095" stroke="#1B1B1B" stroke-width="0.719708"/>
<rect x="218.748" y="154.727" width="42.4628" height="25.9095" stroke="#1B1B1B" stroke-width="0.719708"/>
<rect x="261.211" y="154.727" width="42.4628" height="25.9095" stroke="#1B1B1B" stroke-width="0.719708"/>
<rect x="303.674" y="154.727" width="42.4628" height="25.9095" stroke="#1B1B1B" stroke-width="0.719708"/>
<rect x="346.137" y="154.727" width="42.4628" height="25.9095" stroke="#1B1B1B" stroke-width="0.719708"/>
<rect x="388.599" y="154.727" width="42.4628" height="25.9095" stroke="#1B1B1B" stroke-width="0.719708"/>
<rect x="431.062" y="154.727" width="42.4628" height="25.9095" stroke="#1B1B1B" stroke-width="0.719708"/>
<rect x="473.525" y="154.727" width="42.4628" height="25.9095" stroke="#1B1B1B" stroke-width="0.719708"/>
<rect x="515.988" y="154.727" width="42.4628" height="25.9095" stroke="#1B1B1B" stroke-width="0.719708"/>
<rect x="558.45" y="154.727" width="42.4628" height="25.9095" stroke="#1B1B1B" stroke-width="0.719708"/>
<rect x="600.913" y="154.727" width="42.4628" height="25.9095" stroke="#1B1B1B" stroke-width="0.719708"/>
<rect x="643.376" y="154.727" width="42.4628" height="25.9095" stroke="#1B1B1B" stroke-width="0.719708"/>
<rect x="685.839" y="154.727" width="42.4628" height="25.9095" stroke="#1B1B1B" stroke-width="0.719708"/>
<rect x="91.3599" y="180.636" width="42.4628" height="25.9095" stroke="#1B1B1B" stroke-width="0.719708"/>
<rect x="133.823" y="180.636" width="42.4628" height="25.9095" stroke="#1B1B1B" stroke-width="0.719708"/>
<rect x="176.286" y="180.636" width="42.4628" height="25.9095" stroke="#1B1B1B" stroke-width="0.719708"/>
<rect x="218.748" y="180.636" width="42.4628" height="25.9095" stroke="#1B1B1B" stroke-width="0.719708"/>
<rect x="261.211" y="180.636" width="42.4628" height="25.9095" stroke="#1B1B1B" stroke-width="0.719708"/>
<rect x="303.674" y="180.636" width="42.4628" height="25.9095" stroke="#1B1B1B" stroke-width="0.719708"/>
<rect x="346.137" y="180.636" width="42.4628" height="25.9095" stroke="#1B1B1B" stroke-width="0.719708"/>
<rect x="388.599" y="180.636" width="42.4628" height="25.9095" stroke="#1B1B1B" stroke-width="0.719708"/>
<rect x="431.062" y="180.636" width="42.4628" height="25.9095" stroke="#1B1B1B" stroke-width="0.719708"/>
<rect x="473.525" y="180.636" width="42.4628" height="25.9095" stroke="#1B1B1B" stroke-width="0.719708"/>
<rect x="515.988" y="180.636" width="42.4628" height="25.9095" stroke="#1B1B1B" stroke-width="0.719708"/>
<rect x="558.45" y="180.636" width="42.4628" height="25.9095" stroke="#1B1B1B" stroke-width="0.719708"/>
<rect x="600.913" y="180.636" width="42.4628" height="25.9095" stroke="#1B1B1B" stroke-width="0.719708"/>
<rect x="643.376" y="180.636" width="42.4628" height="25.9095" stroke="#1B1B1B" stroke-width="0.719708"/>
<rect x="685.839" y="180.636" width="42.4628" height="25.9095" stroke="#1B1B1B" stroke-width="0.719708"/>
<rect x="91.3599" y="206.545" width="42.4628" height="25.9095" stroke="#1B1B1B" stroke-width="0.719708"/>
<rect x="133.823" y="206.545" width="42.4628" height="25.9095" stroke="#1B1B1B" stroke-width="0.719708"/>
<rect x="176.286" y="206.545" width="42.4628" height="25.9095" stroke="#1B1B1B" stroke-width="0.719708"/>
<rect x="218.748" y="206.545" width="42.4628" height="25.9095" stroke="#1B1B1B" stroke-width="0.719708"/>
<rect x="261.211" y="206.545" width="42.4628" height="25.9095" stroke="#1B1B1B" stroke-width="0.719708"/>
<rect x="303.674" y="206.545" width="42.4628" height="25.9095" stroke="#1B1B1B" stroke-width="0.719708"/>
<rect x="346.137" y="206.545" width="42.4628" height="25.9095" stroke="#1B1B1B" stroke-width="0.719708"/>
<rect x="388.599" y="206.545" width="42.4628" height="25.9095" stroke="#1B1B1B" stroke-width="0.719708"/>
<rect x="431.062" y="206.545" width="42.4628" height="25.9095" stroke="#1B1B1B" stroke-width="0.719708"/>
<rect x="473.525" y="206.545" width="42.4628" height="25.9095" stroke="#1B1B1B" stroke-width="0.719708"/>
<rect x="515.988" y="206.545" width="42.4628" height="25.9095" stroke="#1B1B1B" stroke-width="0.719708"/>
<rect x="558.45" y="206.545" width="42.4628" height="25.9095" stroke="#1B1B1B" stroke-width="0.719708"/>
<rect x="600.913" y="206.545" width="42.4628" height="25.9095" stroke="#1B1B1B" stroke-width="0.719708"/>
<rect x="643.376" y="206.545" width="42.4628" height="25.9095" stroke="#1B1B1B" stroke-width="0.719708"/>
<rect x="685.839" y="206.545" width="42.4628" height="25.9095" stroke="#1B1B1B" stroke-width="0.719708"/>
<rect x="91.3599" y="232.455" width="42.4628" height="25.9095" stroke="#1B1B1B" stroke-width="0.719708"/>
<rect x="133.823" y="232.455" width="42.4628" height="25.9095" stroke="#1B1B1B" stroke-width="0.719708"/>
<rect x="176.285" y="232.455" width="42.4628" height="25.9095" stroke="#1B1B1B" stroke-width="0.719708"/>
<rect x="218.748" y="232.455" width="42.4628" height="25.9095" stroke="#1B1B1B" stroke-width="0.719708"/>
<rect x="261.211" y="232.455" width="42.4628" height="25.9095" stroke="#1B1B1B" stroke-width="0.719708"/>
<rect x="303.674" y="232.455" width="42.4628" height="25.9095" stroke="#1B1B1B" stroke-width="0.719708"/>
<rect x="346.136" y="232.455" width="42.4628" height="25.9095" stroke="#1B1B1B" stroke-width="0.719708"/>
<rect x="388.599" y="232.455" width="42.4628" height="25.9095" stroke="#1B1B1B" stroke-width="0.719708"/>
<rect x="431.062" y="232.455" width="42.4628" height="25.9095" stroke="#1B1B1B" stroke-width="0.719708"/>
<rect x="473.525" y="232.455" width="42.4628" height="25.9095" stroke="#1B1B1B" stroke-width="0.719708"/>
<rect x="515.988" y="232.455" width="42.4628" height="25.9095" stroke="#1B1B1B" stroke-width="0.719708"/>
<rect x="558.45" y="232.455" width="42.4628" height="25.9095" stroke="#1B1B1B" stroke-width="0.719708"/>
<rect x="600.913" y="232.455" width="42.4628" height="25.9095" stroke="#1B1B1B" stroke-width="0.719708"/>
<rect x="643.376" y="232.455" width="42.4628" height="25.9095" stroke="#1B1B1B" stroke-width="0.719708"/>
<rect x="685.839" y="232.455" width="42.4628" height="25.9095" stroke="#1B1B1B" stroke-width="0.719708"/>
<rect x="91.3599" y="258.364" width="42.4628" height="25.9095" stroke="#1B1B1B" stroke-width="0.719708"/>
<rect x="133.823" y="258.364" width="42.4628" height="25.9095" stroke="#1B1B1B" stroke-width="0.719708"/>
<rect x="176.286" y="258.364" width="42.4628" height="25.9095" stroke="#1B1B1B" stroke-width="0.719708"/>
<rect x="218.748" y="258.364" width="42.4628" height="25.9095" stroke="#1B1B1B" stroke-width="0.719708"/>
<rect x="261.211" y="258.364" width="42.4628" height="25.9095" stroke="#1B1B1B" stroke-width="0.719708"/>
<rect x="303.674" y="258.364" width="42.4628" height="25.9095" stroke="#1B1B1B" stroke-width="0.719708"/>
<rect x="346.137" y="258.364" width="42.4628" height="25.9095" stroke="#1B1B1B" stroke-width="0.719708"/>
<rect x="388.599" y="258.364" width="42.4628" height="25.9095" stroke="#1B1B1B" stroke-width="0.719708"/>
<rect x="431.062" y="258.364" width="42.4628" height="25.9095" stroke="#1B1B1B" stroke-width="0.719708"/>
<rect x="473.525" y="258.364" width="42.4628" height="25.9095" stroke="#1B1B1B" stroke-width="0.719708"/>
<rect x="515.988" y="258.364" width="42.4628" height="25.9095" stroke="#1B1B1B" stroke-width="0.719708"/>
<rect x="558.45" y="258.364" width="42.4628" height="25.9095" stroke="#1B1B1B" stroke-width="0.719708"/>
<rect x="600.913" y="258.364" width="42.4628" height="25.9095" stroke="#1B1B1B" stroke-width="0.719708"/>
<rect x="643.376" y="258.364" width="42.4628" height="25.9095" stroke="#1B1B1B" stroke-width="0.719708"/>
<rect x="685.839" y="258.364" width="42.4628" height="25.9095" stroke="#1B1B1B" stroke-width="0.719708"/>
<rect x="91.3599" y="284.274" width="42.4628" height="25.9095" stroke="#1B1B1B" stroke-width="0.719708"/>
<rect x="133.823" y="284.274" width="42.4628" height="25.9095" stroke="#1B1B1B" stroke-width="0.719708"/>
<rect x="176.286" y="284.274" width="42.4628" height="25.9095" stroke="#1B1B1B" stroke-width="0.719708"/>
<rect x="218.748" y="284.274" width="42.4628" height="25.9095" stroke="#1B1B1B" stroke-width="0.719708"/>
<rect x="261.211" y="284.274" width="42.4628" height="25.9095" stroke="#1B1B1B" stroke-width="0.719708"/>
<rect x="303.674" y="284.274" width="42.4628" height="25.9095" stroke="#1B1B1B" stroke-width="0.719708"/>
<rect x="346.137" y="284.274" width="42.4628" height="25.9095" stroke="#1B1B1B" stroke-width="0.719708"/>
<rect x="388.599" y="284.274" width="42.4628" height="25.9095" stroke="#1B1B1B" stroke-width="0.719708"/>
<rect x="431.062" y="284.274" width="42.4628" height="25.9095" stroke="#1B1B1B" stroke-width="0.719708"/>
<rect x="473.525" y="284.274" width="42.4628" height="25.9095" stroke="#1B1B1B" stroke-width="0.719708"/>
<rect x="515.988" y="284.274" width="42.4628" height="25.9095" stroke="#1B1B1B" stroke-width="0.719708"/>
<rect x="558.45" y="284.274" width="42.4628" height="25.9095" stroke="#1B1B1B" stroke-width="0.719708"/>
<rect x="600.913" y="284.274" width="42.4628" height="25.9095" stroke="#1B1B1B" stroke-width="0.719708"/>
<rect x="643.376" y="284.274" width="42.4628" height="25.9095" stroke="#1B1B1B" stroke-width="0.719708"/>
<rect x="685.839" y="284.274" width="42.4628" height="25.9095" stroke="#1B1B1B" stroke-width="0.719708"/>
<rect x="91.3599" y="310.183" width="42.4628" height="25.9095" stroke="#1B1B1B" stroke-width="0.719708"/>
<rect x="133.823" y="310.183" width="42.4628" height="25.9095" stroke="#1B1B1B" stroke-width="0.719708"/>
<rect x="176.286" y="310.183" width="42.4628" height="25.9095" stroke="#1B1B1B" stroke-width="0.719708"/>
<rect x="218.748" y="310.183" width="42.4628" height="25.9095" stroke="#1B1B1B" stroke-width="0.719708"/>
<rect x="261.211" y="310.183" width="42.4628" height="25.9095" stroke="#1B1B1B" stroke-width="0.719708"/>
<rect x="303.674" y="310.183" width="42.4628" height="25.9095" stroke="#1B1B1B" stroke-width="0.719708"/>
<rect x="346.137" y="310.183" width="42.4628" height="25.9095" stroke="#1B1B1B" stroke-width="0.719708"/>
<rect x="388.599" y="310.183" width="42.4628" height="25.9095" stroke="#1B1B1B" stroke-width="0.719708"/>
<rect x="431.062" y="310.183" width="42.4628" height="25.9095" stroke="#1B1B1B" stroke-width="0.719708"/>
<rect x="473.525" y="310.183" width="42.4628" height="25.9095" stroke="#1B1B1B" stroke-width="0.719708"/>
<rect x="515.988" y="310.183" width="42.4628" height="25.9095" stroke="#1B1B1B" stroke-width="0.719708"/>
<rect x="558.45" y="310.183" width="42.4628" height="25.9095" stroke="#1B1B1B" stroke-width="0.719708"/>
<rect x="600.913" y="310.183" width="42.4628" height="25.9095" stroke="#1B1B1B" stroke-width="0.719708"/>
<rect x="643.376" y="310.183" width="42.4628" height="25.9095" stroke="#1B1B1B" stroke-width="0.719708"/>
<rect x="685.839" y="310.183" width="42.4628" height="25.9095" stroke="#1B1B1B" stroke-width="0.719708"/>
<rect x="91.3599" y="336.093" width="42.4628" height="25.9095" stroke="#1B1B1B" stroke-width="0.719708"/>
<rect x="133.823" y="336.093" width="42.4628" height="25.9095" stroke="#1B1B1B" stroke-width="0.719708"/>
<rect x="176.286" y="336.093" width="42.4628" height="25.9095" stroke="#1B1B1B" stroke-width="0.719708"/>
<rect x="218.748" y="336.093" width="42.4628" height="25.9095" stroke="#1B1B1B" stroke-width="0.719708"/>
<rect x="261.211" y="336.093" width="42.4628" height="25.9095" stroke="#1B1B1B" stroke-width="0.719708"/>
<rect x="303.674" y="336.093" width="42.4628" height="25.9095" stroke="#1B1B1B" stroke-width="0.719708"/>
<rect x="346.137" y="336.093" width="42.4628" height="25.9095" stroke="#1B1B1B" stroke-width="0.719708"/>
<rect x="388.599" y="336.093" width="42.4628" height="25.9095" stroke="#1B1B1B" stroke-width="0.719708"/>
<rect x="431.062" y="336.093" width="42.4628" height="25.9095" stroke="#1B1B1B" stroke-width="0.719708"/>
<rect x="473.525" y="336.093" width="42.4628" height="25.9095" stroke="#1B1B1B" stroke-width="0.719708"/>
<rect x="515.988" y="336.093" width="42.4628" height="25.9095" stroke="#1B1B1B" stroke-width="0.719708"/>
<rect x="558.45" y="336.093" width="42.4628" height="25.9095" stroke="#1B1B1B" stroke-width="0.719708"/>
<rect x="600.913" y="336.093" width="42.4628" height="25.9095" stroke="#1B1B1B" stroke-width="0.719708"/>
<rect x="643.376" y="336.093" width="42.4628" height="25.9095" stroke="#1B1B1B" stroke-width="0.719708"/>
<rect x="685.839" y="336.093" width="42.4628" height="25.9095" stroke="#1B1B1B" stroke-width="0.719708"/>
<rect x="91.3599" y="362.002" width="42.4628" height="25.9095" stroke="#1B1B1B" stroke-width="0.719708"/>
<rect x="133.823" y="362.002" width="42.4628" height="25.9095" stroke="#1B1B1B" stroke-width="0.719708"/>
<rect x="176.285" y="362.002" width="42.4628" height="25.9095" stroke="#1B1B1B" stroke-width="0.719708"/>
<rect x="218.748" y="362.002" width="42.4628" height="25.9095" stroke="#1B1B1B" stroke-width="0.719708"/>
<rect x="261.211" y="362.002" width="42.4628" height="25.9095" stroke="#1B1B1B" stroke-width="0.719708"/>
<rect x="303.674" y="362.002" width="42.4628" height="25.9095" stroke="#1B1B1B" stroke-width="0.719708"/>
<rect x="346.136" y="362.002" width="42.4628" height="25.9095" stroke="#1B1B1B" stroke-width="0.719708"/>
<rect x="388.599" y="362.002" width="42.4628" height="25.9095" stroke="#1B1B1B" stroke-width="0.719708"/>
<rect x="431.062" y="362.002" width="42.4628" height="25.9095" stroke="#1B1B1B" stroke-width="0.719708"/>
<rect x="473.525" y="362.002" width="42.4628" height="25.9095" stroke="#1B1B1B" stroke-width="0.719708"/>
<rect x="515.988" y="362.002" width="42.4628" height="25.9095" stroke="#1B1B1B" stroke-width="0.719708"/>
<rect x="558.45" y="362.002" width="42.4628" height="25.9095" stroke="#1B1B1B" stroke-width="0.719708"/>
<rect x="600.913" y="362.002" width="42.4628" height="25.9095" stroke="#1B1B1B" stroke-width="0.719708"/>
<rect x="643.376" y="362.002" width="42.4628" height="25.9095" stroke="#1B1B1B" stroke-width="0.719708"/>
<rect x="685.839" y="362.002" width="42.4628" height="25.9095" stroke="#1B1B1B" stroke-width="0.719708"/>
<rect x="91.3599" y="387.912" width="42.4628" height="25.9095" stroke="#1B1B1B" stroke-width="0.719708"/>
<rect x="133.823" y="387.912" width="42.4628" height="25.9095" stroke="#1B1B1B" stroke-width="0.719708"/>
<rect x="176.286" y="387.912" width="42.4628" height="25.9095" stroke="#1B1B1B" stroke-width="0.719708"/>
<rect x="218.748" y="387.912" width="42.4628" height="25.9095" stroke="#1B1B1B" stroke-width="0.719708"/>
<rect x="261.211" y="387.912" width="42.4628" height="25.9095" stroke="#1B1B1B" stroke-width="0.719708"/>
<rect x="303.674" y="387.912" width="42.4628" height="25.9095" stroke="#1B1B1B" stroke-width="0.719708"/>
<rect x="346.137" y="387.912" width="42.4628" height="25.9095" stroke="#1B1B1B" stroke-width="0.719708"/>
<rect x="388.599" y="387.912" width="42.4628" height="25.9095" stroke="#1B1B1B" stroke-width="0.719708"/>
<rect x="431.062" y="387.912" width="42.4628" height="25.9095" stroke="#1B1B1B" stroke-width="0.719708"/>
<rect x="473.525" y="387.912" width="42.4628" height="25.9095" stroke="#1B1B1B" stroke-width="0.719708"/>
<rect x="515.988" y="387.912" width="42.4628" height="25.9095" stroke="#1B1B1B" stroke-width="0.719708"/>
<rect x="558.45" y="387.912" width="42.4628" height="25.9095" stroke="#1B1B1B" stroke-width="0.719708"/>
<rect x="600.913" y="387.912" width="42.4628" height="25.9095" stroke="#1B1B1B" stroke-width="0.719708"/>
<rect x="643.376" y="387.912" width="42.4628" height="25.9095" stroke="#1B1B1B" stroke-width="0.719708"/>
<rect x="685.839" y="387.912" width="42.4628" height="25.9095" stroke="#1B1B1B" stroke-width="0.719708"/>
<rect x="91.3599" y="413.821" width="42.4628" height="25.9095" stroke="#1B1B1B" stroke-width="0.719708"/>
<rect x="133.823" y="413.821" width="42.4628" height="25.9095" stroke="#1B1B1B" stroke-width="0.719708"/>
<rect x="176.286" y="413.821" width="42.4628" height="25.9095" stroke="#1B1B1B" stroke-width="0.719708"/>
<rect x="218.748" y="413.821" width="42.4628" height="25.9095" stroke="#1B1B1B" stroke-width="0.719708"/>
<rect x="261.211" y="413.821" width="42.4628" height="25.9095" stroke="#1B1B1B" stroke-width="0.719708"/>
<rect x="303.674" y="413.821" width="42.4628" height="25.9095" stroke="#1B1B1B" stroke-width="0.719708"/>
<rect x="346.137" y="413.821" width="42.4628" height="25.9095" stroke="#1B1B1B" stroke-width="0.719708"/>
<rect x="388.599" y="413.821" width="42.4628" height="25.9095" stroke="#1B1B1B" stroke-width="0.719708"/>
<rect x="431.062" y="413.821" width="42.4628" height="25.9095" stroke="#1B1B1B" stroke-width="0.719708"/>
<rect x="473.525" y="413.821" width="42.4628" height="25.9095" stroke="#1B1B1B" stroke-width="0.719708"/>
<rect x="515.988" y="413.821" width="42.4628" height="25.9095" stroke="#1B1B1B" stroke-width="0.719708"/>
<rect x="558.45" y="413.821" width="42.4628" height="25.9095" stroke="#1B1B1B" stroke-width="0.719708"/>
<rect x="600.913" y="413.821" width="42.4628" height="25.9095" stroke="#1B1B1B" stroke-width="0.719708"/>
<rect x="643.376" y="413.821" width="42.4628" height="25.9095" stroke="#1B1B1B" stroke-width="0.719708"/>
<rect x="685.839" y="413.821" width="42.4628" height="25.9095" stroke="#1B1B1B" stroke-width="0.719708"/>
<rect x="91.3599" y="439.73" width="42.4628" height="25.9095" stroke="#1B1B1B" stroke-width="0.719708"/>
<rect x="133.823" y="439.73" width="42.4628" height="25.9095" stroke="#1B1B1B" stroke-width="0.719708"/>
<rect x="176.285" y="439.73" width="42.4628" height="25.9095" stroke="#1B1B1B" stroke-width="0.719708"/>
<rect x="218.748" y="439.73" width="42.4628" height="25.9095" stroke="#1B1B1B" stroke-width="0.719708"/>
<rect x="261.211" y="439.73" width="42.4628" height="25.9095" stroke="#1B1B1B" stroke-width="0.719708"/>
<rect x="303.674" y="439.73" width="42.4628" height="25.9095" stroke="#1B1B1B" stroke-width="0.719708"/>
<rect x="346.136" y="439.73" width="42.4628" height="25.9095" stroke="#1B1B1B" stroke-width="0.719708"/>
<rect x="388.599" y="439.73" width="42.4628" height="25.9095" stroke="#1B1B1B" stroke-width="0.719708"/>
<rect x="431.062" y="439.73" width="42.4628" height="25.9095" stroke="#1B1B1B" stroke-width="0.719708"/>
<rect x="473.525" y="439.73" width="42.4628" height="25.9095" stroke="#1B1B1B" stroke-width="0.719708"/>
<rect x="515.988" y="439.73" width="42.4628" height="25.9095" stroke="#1B1B1B" stroke-width="0.719708"/>
<rect x="558.45" y="439.73" width="42.4628" height="25.9095" stroke="#1B1B1B" stroke-width="0.719708"/>
<rect x="600.913" y="439.73" width="42.4628" height="25.9095" stroke="#1B1B1B" stroke-width="0.719708"/>
<rect x="643.376" y="439.73" width="42.4628" height="25.9095" stroke="#1B1B1B" stroke-width="0.719708"/>
<rect x="685.839" y="439.73" width="42.4628" height="25.9095" stroke="#1B1B1B" stroke-width="0.719708"/>
<g filter="url(#filter0_f_181_1327)">
<circle cx="175" cy="173" r="287" fill="black"/>
</g>
<rect width="17" height="37" rx="4" transform="matrix(-1 0 0 1 631 415)" fill="white"/>
<rect width="17" height="73" rx="4" transform="matrix(-1 0 0 1 606 379)" fill="white"/>
<rect width="17" height="112" rx="4" transform="matrix(-1 0 0 1 581 340)" fill="white"/>
<rect width="17" height="139" rx="4" transform="matrix(-1 0 0 1 556 313)" fill="white"/>
<rect width="17" height="216" rx="4" transform="matrix(-1 0 0 1 531 236)" fill="white"/>
<rect width="17" height="175" rx="4" transform="matrix(-1 0 0 1 506 277)" fill="white"/>
<rect width="17" height="88" rx="4" transform="matrix(-1 0 0 1 481 364)" fill="white"/>
<rect width="17" height="139" rx="4" transform="matrix(-1 0 0 1 456 313)" fill="white"/>
<rect width="17" height="73" rx="4" transform="matrix(-1 0 0 1 431 379)" fill="#131313"/>
<rect width="17" height="103" rx="4" transform="matrix(-1 0 0 1 406 349)" fill="#131313"/>
<rect width="17" height="45" rx="4" transform="matrix(-1 0 0 1 381 407)" fill="#131313"/>
<rect width="17" height="29" rx="4" transform="matrix(-1 0 0 1 356 423)" fill="#131313"/>
<rect width="17" height="73" rx="4" transform="matrix(-1 0 0 1 331 379)" fill="#131313"/>
<rect width="17" height="49" rx="4" transform="matrix(-1 0 0 1 306 403)" fill="#131313"/>
<path d="M450.5 284V232.5" stroke="url(#paint0_linear_181_1327)" stroke-linecap="round"/>
<path d="M578 61V103H535.5V144.5" stroke="url(#paint1_linear_181_1327)" stroke-linecap="round"/>
<path d="M620.5 362.5V336H666.5" stroke="url(#paint2_linear_181_1327)" stroke-linecap="round"/>
</g>
<defs>
<filter id="filter0_f_181_1327" x="-212" y="-214" width="774" height="774" filterUnits="userSpaceOnUse" color-interpolation-filters="sRGB">
<feFlood flood-opacity="0" result="BackgroundImageFix"/>
<feBlend mode="normal" in="SourceGraphic" in2="BackgroundImageFix" result="shape"/>
<feGaussianBlur stdDeviation="50" result="effect1_foregroundBlur_181_1327"/>
</filter>
<linearGradient id="paint0_linear_181_1327" x1="451" y1="232.5" x2="451" y2="284" gradientUnits="userSpaceOnUse">
<stop stop-color="white"/>
<stop offset="1" stop-color="#999999" stop-opacity="0"/>
</linearGradient>
<linearGradient id="paint1_linear_181_1327" x1="556.75" y1="61" x2="536" y2="142.5" gradientUnits="userSpaceOnUse">
<stop stop-color="white"/>
<stop offset="1" stop-color="#999999" stop-opacity="0"/>
</linearGradient>
<linearGradient id="paint2_linear_181_1327" x1="643.5" y1="336" x2="667" y2="336" gradientUnits="userSpaceOnUse">
<stop stop-color="white"/>
<stop offset="1" stop-color="#999999" stop-opacity="0.18"/>
</linearGradient>
<clipPath id="clip0_181_1327">
<rect width="710" height="443" fill="white"/>
</clipPath>
</defs>
</svg>
